{"glyphs":{"0":{"ha":856,"x_min":118,"x_max":738,"o":"m 428 -17 q 281 26 343 -17 q 184 144 218 69 q 134 304 150 219 q 118 486 118 389 q 132 652 118 572 q 178 812 146 732 q 274 940 210 892 q 428 989 339 989 q 575 944 513 989 q 672 825 638 900 q 722 666 706 750 q 738 486 738 582 q 729 355 738 419 q 699 221 721 290 q 644 101 678 151 q 555 17 611 50 q 428 -17 499 -17 m 428 33 q 554 77 501 33 q 633 192 607 121 q 672 336 660 264 q 683 486 683 408 q 670 648 683 572 q 629 792 657 724 q 549 899 601 860 q 428 939 497 939 q 301 895 354 939 q 222 779 249 851 q 184 635 196 707 q 172 486 172 563 q 185 322 172 399 q 226 178 199 246 q 306 72 254 111 q 428 33 358 33 z "},"1":{"ha":458,"x_min":76,"x_max":292,"o":"m 242 0 l 242 808 l 76 808 l 76 842 q 206 865 172 842 q 257 972 239 889 l 292 972 l 292 0 l 242 0 z "},"2":{"ha":828,"x_min":115,"x_max":708,"o":"m 115 0 q 130 117 115 64 q 163 205 144 169 q 223 278 182 240 q 294 338 264 315 q 385 399 325 360 q 463 449 439 433 q 531 501 488 465 q 594 566 574 538 q 631 637 614 594 q 647 726 647 679 q 586 880 647 821 q 421 939 525 939 q 267 890 329 939 q 182 758 204 842 l 135 781 q 236 931 161 874 q 421 989 311 989 q 626 917 551 989 q 700 726 700 844 q 681 623 700 672 q 640 541 663 574 q 572 469 618 508 q 497 413 525 431 q 411 357 469 394 q 232 213 288 278 q 172 50 176 147 l 708 50 l 708 0 l 115 0 z "},"3":{"ha":814,"x_min":81,"x_max":699,"o":"m 394 -17 q 198 42 276 -17 q 81 193 119 101 l 129 211 q 394 33 210 33 q 575 91 504 33 q 646 253 646 149 q 583 419 646 358 q 407 481 521 481 l 354 481 l 354 529 l 386 529 q 545 588 483 529 q 607 744 607 646 q 548 885 607 832 q 397 939 489 939 q 165 788 243 939 l 118 807 q 226 935 153 882 q 397 989 300 989 q 585 921 511 989 q 660 744 660 853 q 620 603 660 667 q 501 510 581 539 q 645 422 592 492 q 699 253 699 353 q 613 57 699 131 q 394 -17 528 -17 z "},"4":{"ha":810,"x_min":60,"x_max":732,"o":"m 535 0 l 535 283 l 60 283 l 60 313 l 563 972 l 585 972 l 585 329 l 732 329 l 732 283 l 585 283 l 585 0 l 535 0 m 535 329 l 535 861 l 131 329 l 535 329 z "},"5":{"ha":867,"x_min":119,"x_max":747,"o":"m 415 -17 q 241 22 318 -17 q 119 110 164 61 l 153 151 q 417 33 258 33 q 624 115 553 33 q 694 315 694 197 q 621 505 694 432 q 433 578 547 578 q 197 468 294 578 l 156 479 l 235 972 l 683 972 l 683 922 l 279 922 l 219 550 q 435 628 307 628 q 659 541 571 628 q 747 315 747 454 q 661 80 747 176 q 415 -17 575 -17 z "},"6":{"ha":808,"x_min":101,"x_max":694,"o":"m 399 -17 q 227 35 297 -17 q 129 158 157 86 q 101 315 101 231 q 217 733 101 554 q 557 989 333 911 l 557 938 q 301 765 403 885 q 164 465 200 644 q 263 556 199 522 q 399 590 328 590 q 614 506 533 590 q 694 292 694 422 q 613 70 694 157 q 399 -17 531 -17 m 399 33 q 574 105 507 33 q 642 285 642 176 q 576 469 642 397 q 399 540 510 540 q 225 469 293 540 q 157 292 157 399 q 224 107 157 181 q 399 33 292 33 z "},"7":{"ha":688,"x_min":68,"x_max":619,"o":"m 246 0 q 320 487 250 263 q 567 922 390 711 l 68 922 l 68 972 l 619 972 l 619 929 q 452 688 519 815 q 354 433 385 560 q 313 209 324 307 q 300 0 301 111 l 246 0 z "},"8":{"ha":825,"x_min":117,"x_max":708,"o":"m 624 64 q 582 24 624 64 q 413 -17 540 -17 q 201 64 285 -17 q 117 265 117 144 q 172 438 117 364 q 318 536 226 513 q 203 617 244 558 q 161 747 161 676 q 233 919 161 849 q 413 989 306 989 q 592 919 519 989 q 664 747 664 849 q 624 617 664 675 q 504 536 583 560 q 653 437 599 510 q 708 265 708 364 q 624 64 708 144 m 268 610 q 295 583 268 610 q 413 557 322 557 q 557 610 503 557 q 611 747 611 663 q 555 887 611 835 q 413 939 499 939 q 270 887 326 939 q 214 747 214 835 q 268 610 214 663 m 240 97 q 274 65 240 97 q 413 33 308 33 q 585 97 517 33 q 653 265 653 160 q 585 441 653 369 q 413 513 518 513 q 240 441 307 513 q 172 265 172 369 q 240 97 172 160 z "},"9":{"ha":808,"x_min":100,"x_max":694,"o":"m 256 -17 l 256 33 q 503 219 404 83 q 624 519 601 354 q 379 400 544 400 q 179 483 258 400 q 100 690 100 567 q 185 903 100 818 q 399 989 269 989 q 616 893 538 989 q 694 667 694 797 q 573 233 694 422 q 256 -17 451 44 m 386 450 q 567 519 497 450 q 638 690 638 588 q 568 867 638 796 q 396 939 499 939 q 221 869 289 939 q 153 697 153 800 q 217 520 153 590 q 386 450 282 450 z "}," ":{"ha":306,"x_min":0,"x_max":0,"o":""},"!":{"ha":369,"x_min":144,"x_max":225,"o":"m 178 268 l 158 639 l 158 989 l 211 989 l 211 639 l 192 268 l 178 268 m 185 -19 q 156 -8 168 -19 q 144 21 144 4 q 156 51 144 39 q 185 64 168 64 q 214 51 203 64 q 225 21 225 39 q 214 -8 225 4 q 185 -19 203 -19 z "},"\"":{"ha":503,"x_min":108,"x_max":394,"o":"m 108 972 l 161 972 l 161 601 l 108 601 l 108 972 m 342 972 l 394 972 l 394 601 l 342 601 l 342 972 z "},"#":{"ha":946,"x_min":92,"x_max":854,"o":"m 211 0 l 260 303 l 92 303 l 100 353 l 267 353 l 313 635 l 144 635 l 153 685 l 319 685 l 365 972 l 418 972 l 372 685 l 632 685 l 678 972 l 736 972 l 690 685 l 854 685 l 847 635 l 683 635 l 638 353 l 803 353 l 794 303 l 631 303 l 583 0 l 525 0 l 572 303 l 313 303 l 265 0 l 211 0 m 319 353 l 579 353 l 625 635 l 365 635 l 319 353 z "},"$":{"ha":817,"x_min":106,"x_max":694,"o":"m 382 -136 l 382 -15 q 213 49 285 -7 q 106 188 140 106 l 158 206 q 260 79 193 126 q 413 32 328 32 q 580 86 518 32 q 642 242 642 140 q 407 499 642 408 q 308 542 347 522 q 226 595 269 563 q 160 674 182 628 q 138 776 138 719 q 202 925 138 867 q 382 989 267 983 l 382 1096 l 432 1096 l 432 986 q 572 938 513 979 q 653 829 631 896 l 603 813 q 396 940 550 940 q 245 896 300 940 q 190 774 190 851 q 209 694 190 729 q 267 631 228 658 q 340 587 307 603 q 429 547 372 571 q 524 502 483 525 q 606 443 564 479 q 672 356 649 407 q 694 240 694 304 q 622 58 694 125 q 432 -15 550 -10 l 432 -136 l 382 -136 z "},"%":{"ha":1229,"x_min":94,"x_max":1135,"o":"m 465 567 q 439 531 465 567 q 306 494 413 494 q 147 567 199 494 q 94 742 94 640 q 106 826 94 785 q 140 905 117 867 q 206 966 164 943 q 306 989 249 989 q 405 966 363 989 q 471 905 447 943 q 506 826 494 867 q 517 742 517 785 q 465 567 517 640 m 313 -17 l 253 -17 l 917 989 l 976 989 l 313 -17 m 186 603 q 206 574 186 603 q 306 544 225 544 q 425 603 386 544 q 464 742 464 661 q 425 878 464 818 q 306 939 386 939 q 186 878 225 939 q 147 742 147 818 q 186 603 147 661 m 1083 56 q 1057 20 1083 56 q 924 -17 1031 -17 q 765 56 817 -17 q 713 231 713 129 q 724 315 713 274 q 758 394 735 356 q 824 455 782 432 q 924 478 867 478 q 1023 455 981 478 q 1089 394 1065 432 q 1124 315 1113 356 q 1135 231 1135 274 q 1083 56 1135 129 m 804 92 q 824 63 804 92 q 924 33 843 33 q 1043 92 1004 33 q 1082 231 1082 150 q 1043 367 1082 307 q 924 428 1004 428 q 804 367 843 428 q 765 231 765 307 q 804 92 765 150 z "},"&":{"ha":897,"x_min":81,"x_max":851,"o":"m 342 -17 q 152 52 224 -17 q 81 238 81 121 q 144 404 81 332 q 324 543 207 476 q 221 688 250 632 q 192 794 192 743 q 251 936 192 883 q 401 989 311 989 q 544 933 488 989 q 601 792 601 878 q 400 532 601 650 l 650 236 q 718 443 701 331 l 771 443 q 686 194 760 313 l 851 0 l 779 0 l 654 149 q 342 -17 528 -17 m 396 939 q 286 899 328 939 q 244 794 244 860 q 274 698 244 749 q 369 568 304 647 q 549 783 549 672 q 505 897 549 854 q 396 939 461 939 m 342 33 q 621 189 511 33 l 354 506 q 189 379 244 443 q 133 238 133 315 q 192 88 133 142 q 342 33 250 33 z "},"'":{"ha":269,"x_min":108,"x_max":161,"o":"m 108 972 l 161 972 l 161 601 l 108 601 l 108 972 z "},"(":{"ha":467,"x_min":144,"x_max":379,"o":"m 314 -181 q 144 394 144 42 q 329 989 144 768 l 379 989 q 259 757 321 917 q 197 394 197 597 q 364 -181 197 67 l 314 -181 z "},")":{"ha":467,"x_min":88,"x_max":322,"o":"m 103 -181 q 269 394 269 67 q 208 757 269 597 q 88 989 146 917 l 138 989 q 322 394 322 768 q 153 -181 322 42 l 103 -181 z "},"*":{"ha":728,"x_min":81,"x_max":647,"o":"m 435 546 l 364 671 l 293 546 l 210 431 l 167 464 l 250 579 l 351 681 l 214 710 l 81 754 l 99 804 l 233 760 l 354 697 l 336 826 l 336 972 l 392 972 l 392 826 l 374 697 l 494 760 l 629 804 l 647 754 l 514 710 l 376 681 l 478 579 l 561 464 l 518 431 l 435 546 z "},"+":{"ha":911,"x_min":129,"x_max":782,"o":"m 481 450 l 481 150 l 428 150 l 428 450 l 129 450 l 129 500 l 428 500 l 428 803 l 481 803 l 481 500 l 782 500 l 782 450 l 481 450 z "},",":{"ha":281,"x_min":100,"x_max":186,"o":"m 100 -192 q 144 -19 144 -125 q 113 -8 125 -19 q 100 21 100 3 q 112 51 100 39 q 140 64 124 64 q 186 0 186 64 q 163 -112 186 -56 q 113 -196 140 -168 l 100 -192 z "},"-":{"ha":554,"x_min":122,"x_max":432,"o":"m 122 389 l 122 439 l 432 439 l 432 389 l 122 389 z "},".":{"ha":281,"x_min":100,"x_max":181,"o":"m 140 -19 q 112 -8 124 -19 q 100 21 100 4 q 112 51 100 39 q 140 64 124 64 q 169 51 158 64 q 181 21 181 39 q 169 -8 181 4 q 140 -19 158 -19 z "},"/":{"ha":669,"x_min":17,"x_max":618,"o":"m 17 -181 l 563 989 l 618 989 l 72 -181 l 17 -181 z "},":":{"ha":281,"x_min":100,"x_max":181,"o":"m 140 588 q 112 599 124 588 q 100 628 100 611 q 112 658 100 646 q 140 671 124 671 q 169 658 158 671 q 181 628 181 646 q 169 599 181 611 q 140 588 158 588 m 140 -19 q 112 -8 124 -19 q 100 21 100 4 q 112 51 100 39 q 140 64 124 64 q 169 51 158 64 q 181 21 181 39 q 169 -8 181 4 q 140 -19 158 -19 z "},";":{"ha":281,"x_min":100,"x_max":186,"o":"m 140 588 q 112 599 124 588 q 100 628 100 611 q 112 658 100 646 q 140 671 124 671 q 169 658 158 671 q 181 628 181 646 q 169 599 181 611 q 140 588 158 588 m 100 -192 q 144 -19 144 -125 q 113 -8 125 -19 q 100 21 100 3 q 112 51 100 39 q 140 64 124 64 q 186 0 186 64 q 163 -112 186 -56 q 113 -196 140 -168 l 100 -192 z "},"<":{"ha":911,"x_min":129,"x_max":782,"o":"m 782 167 l 129 450 l 129 503 l 782 786 l 782 729 l 194 476 l 782 224 l 782 167 z "},"=":{"ha":911,"x_min":129,"x_max":782,"o":"m 129 582 l 129 632 l 782 632 l 782 582 l 129 582 m 129 318 l 129 368 l 782 368 l 782 318 l 129 318 z "},">":{"ha":911,"x_min":129,"x_max":782,"o":"m 782 450 l 129 167 l 129 224 l 717 476 l 129 729 l 129 786 l 782 503 l 782 450 z "},"?":{"ha":725,"x_min":86,"x_max":635,"o":"m 321 217 l 321 264 q 348 388 321 332 q 413 481 375 443 q 490 554 451 518 q 555 637 528 590 q 582 739 582 683 q 524 882 582 825 q 365 939 467 939 q 198 879 260 939 q 136 729 136 819 l 86 729 q 163 915 86 840 q 365 989 239 989 q 563 917 492 989 q 635 739 635 846 q 608 626 635 676 q 542 538 581 575 q 466 465 504 501 q 401 378 428 429 q 374 264 374 326 l 374 217 l 321 217 m 347 -19 q 319 -8 331 -19 q 307 21 307 4 q 319 51 307 39 q 347 64 331 64 q 376 51 365 64 q 388 21 388 39 q 376 -8 388 4 q 347 -19 365 -19 z "},"@":{"ha":1104,"x_min":86,"x_max":1018,"o":"m 551 -17 q 219 113 351 -17 q 86 464 86 242 q 231 840 86 690 q 578 989 376 989 q 896 876 774 989 q 1018 582 1018 764 q 957 324 1018 426 q 807 222 896 222 q 731 249 761 222 q 696 325 701 275 q 513 210 635 210 q 368 272 422 210 q 314 444 314 333 q 382 646 314 557 q 558 735 450 735 q 672 695 628 735 q 729 597 715 656 l 750 717 l 799 717 l 750 432 q 742 349 742 389 q 807 265 742 265 q 919 355 874 265 q 965 582 965 444 q 857 840 965 740 q 578 939 749 939 q 267 803 394 939 q 139 463 139 667 q 251 155 139 276 q 557 33 364 33 q 729 51 656 33 l 718 1 q 551 -17 647 -17 m 518 258 q 656 329 603 258 q 710 501 710 400 q 667 635 710 583 q 564 686 624 686 q 419 616 472 686 q 367 443 367 546 q 408 308 367 358 q 518 258 450 258 z "},"A":{"ha":883,"x_min":90,"x_max":793,"o":"m 739 0 l 644 274 l 239 274 l 144 0 l 90 0 l 424 972 l 460 972 l 793 0 l 739 0 m 632 315 l 490 729 q 478 767 489 733 q 456 834 467 801 q 442 885 446 867 q 426 833 438 867 q 404 766 415 799 q 392 729 393 733 l 251 315 l 632 315 z "},"B":{"ha":878,"x_min":153,"x_max":761,"o":"m 153 972 l 451 972 q 662 903 597 972 q 726 731 726 833 q 676 587 726 649 q 539 507 626 525 q 699 432 638 499 q 761 261 761 365 q 747 167 761 211 q 701 83 732 122 q 611 22 669 44 q 474 0 553 0 l 153 0 l 153 972 m 425 526 q 612 582 547 526 q 676 733 676 638 q 456 928 676 928 l 203 928 l 203 526 l 425 526 m 486 44 q 659 103 607 44 q 711 251 711 161 q 442 482 711 482 l 203 482 l 203 44 l 486 44 z "},"C":{"ha":889,"x_min":118,"x_max":785,"o":"m 494 -17 q 323 26 397 -17 q 205 140 249 68 q 140 300 161 213 q 118 486 118 388 q 141 674 118 585 q 209 834 164 763 q 327 947 254 906 q 493 989 400 989 q 667 947 604 989 q 771 832 729 904 l 728 807 q 640 903 692 868 q 493 939 588 939 q 256 807 339 939 q 172 486 172 675 q 203 265 172 364 q 308 100 233 167 q 494 33 383 33 q 647 75 585 33 q 739 179 708 117 l 785 161 q 676 34 749 85 q 494 -17 603 -17 z "},"D":{"ha":924,"x_min":153,"x_max":806,"o":"m 153 972 l 375 972 q 577 931 490 972 q 712 818 664 889 q 783 665 760 747 q 806 486 806 582 q 794 349 806 415 q 751 219 782 283 q 672 106 719 154 q 546 29 624 58 q 369 0 468 0 l 153 0 l 153 972 m 369 50 q 524 76 456 50 q 634 145 592 103 q 703 247 676 188 q 741 364 731 306 q 751 486 751 422 q 740 614 751 553 q 700 732 728 675 q 630 831 672 789 q 522 897 588 872 q 375 922 457 922 l 203 922 l 203 50 l 369 50 z "},"E":{"ha":808,"x_min":153,"x_max":690,"o":"m 153 0 l 153 972 l 660 972 l 660 926 l 203 926 l 203 526 l 511 526 l 511 481 l 203 481 l 203 46 l 690 46 l 690 0 l 153 0 z "},"F":{"ha":764,"x_min":153,"x_max":674,"o":"m 153 0 l 153 972 l 674 972 l 674 926 l 203 926 l 203 526 l 521 526 l 521 481 l 203 481 l 203 0 l 153 0 z "},"G":{"ha":946,"x_min":118,"x_max":806,"o":"m 497 -17 q 324 26 399 -17 q 205 140 249 68 q 140 300 161 213 q 118 486 118 388 q 141 677 118 589 q 208 836 164 765 q 327 948 253 907 q 497 989 401 989 q 763 856 664 989 l 718 826 q 497 939 638 939 q 346 899 411 939 q 244 791 281 858 q 190 647 207 724 q 172 486 172 569 q 204 264 172 363 q 312 99 236 165 q 497 33 388 33 q 685 119 617 33 q 753 374 753 206 l 753 390 l 549 390 l 549 438 l 806 438 l 806 390 q 722 83 806 183 q 497 -17 639 -17 z "},"H":{"ha":928,"x_min":153,"x_max":775,"o":"m 725 0 l 725 482 l 203 482 l 203 0 l 153 0 l 153 972 l 203 972 l 203 529 l 725 529 l 725 972 l 775 972 l 775 0 l 725 0 z "},"I":{"ha":356,"x_min":153,"x_max":203,"o":"m 153 0 l 153 972 l 203 972 l 203 0 l 153 0 z "},"J":{"ha":739,"x_min":53,"x_max":592,"o":"m 306 -17 q 147 25 206 -17 q 53 149 88 67 l 94 171 q 306 31 157 31 q 387 43 349 31 q 462 85 425 56 q 520 172 499 114 q 542 310 542 229 l 542 972 l 592 972 l 592 313 q 565 150 592 218 q 495 48 539 82 q 405 -1 451 14 q 306 -17 358 -17 z "},"K":{"ha":860,"x_min":153,"x_max":772,"o":"m 714 0 l 388 599 l 203 367 l 203 0 l 153 0 l 153 972 l 203 972 l 203 440 l 625 972 l 685 972 l 422 642 l 772 0 l 714 0 z "},"L":{"ha":740,"x_min":153,"x_max":685,"o":"m 153 0 l 153 972 l 203 972 l 203 46 l 685 46 l 685 0 l 153 0 z "},"M":{"ha":1108,"x_min":153,"x_max":956,"o":"m 956 0 l 906 0 l 906 767 l 906 828 q 893 798 901 818 q 881 767 885 778 l 554 -17 l 228 767 l 203 828 l 203 767 l 203 0 l 153 0 l 153 972 l 197 972 l 525 183 l 554 113 l 583 183 l 911 972 l 956 972 l 956 0 z "},"N":{"ha":946,"x_min":153,"x_max":793,"o":"m 793 0 l 744 0 l 246 807 l 203 878 l 203 807 l 203 0 l 153 0 l 153 972 l 201 972 l 700 165 l 743 94 l 743 165 l 743 972 l 793 972 l 793 0 z "},"O":{"ha":994,"x_min":118,"x_max":876,"o":"m 673 27 q 635 5 673 27 q 497 -17 597 -17 q 322 27 397 -17 q 203 145 246 71 q 139 306 160 219 q 118 486 118 392 q 139 667 118 581 q 203 827 160 753 q 322 945 246 901 q 497 989 397 989 q 673 945 597 989 q 792 827 749 901 q 856 667 835 753 q 876 486 876 581 q 856 306 876 392 q 792 145 835 219 q 673 27 749 71 m 497 33 q 649 74 583 33 q 751 181 715 114 q 805 326 788 249 q 822 486 822 403 q 805 655 822 576 q 751 799 788 733 q 649 901 714 864 q 497 939 585 939 q 345 899 411 939 q 243 791 279 858 q 190 647 207 724 q 172 486 172 569 q 190 317 172 396 q 244 174 207 239 q 345 71 281 108 q 497 33 410 33 z "},"P":{"ha":829,"x_min":153,"x_max":763,"o":"m 153 0 l 153 972 l 457 972 q 690 890 618 972 q 763 686 763 807 q 746 586 763 635 q 694 495 729 538 q 599 427 660 453 q 457 401 538 401 l 203 401 l 203 0 l 153 0 m 457 451 q 651 522 589 451 q 713 686 713 592 q 653 855 713 788 q 457 922 594 922 l 203 922 l 203 451 l 457 451 z "},"Q":{"ha":994,"x_min":118,"x_max":876,"o":"m 497 -17 q 322 27 397 -17 q 203 145 246 71 q 139 306 160 219 q 118 486 118 392 q 139 667 118 581 q 203 827 160 753 q 322 945 246 901 q 497 989 397 989 q 673 945 597 989 q 792 827 749 901 q 856 667 835 753 q 876 486 876 581 q 735 75 876 211 l 821 -53 l 783 -79 l 700 46 q 497 -17 613 -17 m 497 33 q 671 89 597 33 l 586 215 l 624 242 l 706 119 q 822 486 822 242 q 805 655 822 576 q 751 799 788 733 q 649 901 714 864 q 497 939 585 939 q 345 899 411 939 q 243 791 279 858 q 190 647 207 724 q 172 486 172 569 q 190 317 172 396 q 244 174 207 239 q 345 71 281 108 q 497 33 410 33 z "},"R":{"ha":883,"x_min":153,"x_max":765,"o":"m 153 0 l 153 972 l 486 972 q 699 899 632 972 q 765 718 765 825 q 701 540 765 614 q 511 457 638 467 l 735 0 l 679 0 l 458 457 l 203 457 l 203 0 l 153 0 m 203 503 l 486 503 q 658 566 604 503 q 713 718 713 629 q 701 790 713 756 q 667 856 690 824 q 597 907 643 888 q 486 926 550 926 l 203 926 l 203 503 z "},"S":{"ha":804,"x_min":104,"x_max":693,"o":"m 410 -17 q 222 42 303 -17 q 104 188 140 100 l 157 204 q 259 78 192 125 q 411 32 326 32 q 578 86 517 32 q 640 242 640 140 q 406 499 640 408 q 307 542 346 522 q 224 595 268 563 q 158 674 181 628 q 136 776 136 719 q 206 929 136 869 q 399 989 275 989 q 558 945 489 989 q 651 829 628 901 l 601 814 q 394 940 549 940 q 244 896 299 940 q 189 774 189 851 q 208 694 189 729 q 266 631 226 658 q 338 587 306 603 q 428 547 371 571 q 522 502 482 525 q 605 443 563 479 q 670 356 647 407 q 693 240 693 304 q 615 51 693 119 q 410 -17 536 -17 z "},"T":{"ha":774,"x_min":94,"x_max":679,"o":"m 411 926 l 411 0 l 361 0 l 361 926 l 94 926 l 94 972 l 679 972 l 679 926 l 411 926 z "},"U":{"ha":914,"x_min":147,"x_max":767,"o":"m 767 346 q 457 -17 767 -17 q 147 346 147 -17 l 147 972 l 197 972 l 197 349 q 457 31 197 31 q 717 349 717 31 l 717 972 l 767 972 l 767 346 z "},"V":{"ha":878,"x_min":88,"x_max":790,"o":"m 419 0 l 88 972 l 142 972 l 419 161 q 426 143 422 153 q 433 122 429 133 q 439 103 436 110 q 445 122 442 110 q 452 143 449 133 q 458 161 456 153 l 736 972 l 790 972 l 458 0 l 419 0 z "},"W":{"ha":1156,"x_min":88,"x_max":1068,"o":"m 324 0 l 88 972 l 142 972 l 329 194 q 346 122 343 135 q 363 192 351 147 l 557 972 l 599 972 l 793 192 q 810 122 804 147 q 826 194 813 136 l 1014 972 l 1068 972 l 832 0 l 790 0 l 615 700 q 578 853 590 800 q 540 700 565 800 l 365 0 l 324 0 z "},"X":{"ha":758,"x_min":74,"x_max":685,"o":"m 629 0 l 379 457 l 129 0 l 74 0 l 353 508 l 97 972 l 153 972 l 379 558 l 606 972 l 661 972 l 406 508 l 685 0 l 629 0 z "},"Y":{"ha":833,"x_min":75,"x_max":758,"o":"m 392 0 l 392 385 l 75 972 l 129 972 l 417 436 l 704 972 l 758 972 l 442 385 l 442 0 l 392 0 z "},"Z":{"ha":826,"x_min":93,"x_max":733,"o":"m 93 0 l 93 26 l 667 926 l 125 926 l 125 972 l 733 972 l 733 943 l 165 46 l 733 46 l 733 0 l 93 0 z "},"[":{"ha":521,"x_min":181,"x_max":424,"o":"m 181 -181 l 181 989 l 424 989 l 424 942 l 231 942 l 231 -133 l 424 -133 l 424 -181 l 181 -181 z "},"\\":{"ha":669,"x_min":18,"x_max":617,"o":"m 564 -181 l 18 989 l 71 989 l 617 -181 l 564 -181 z "},"]":{"ha":521,"x_min":97,"x_max":340,"o":"m 340 -181 l 97 -181 l 97 -133 l 290 -133 l 290 942 l 97 942 l 97 989 l 340 989 l 340 -181 z "},"^":{"ha":911,"x_min":160,"x_max":751,"o":"m 699 503 l 456 921 l 213 503 l 160 503 l 429 989 l 482 989 l 751 503 l 699 503 z "},"_":{"ha":731,"x_min":11,"x_max":719,"o":"m 11 -215 l 11 -169 l 719 -169 l 719 -215 l 11 -215 z "},"`":{"ha":460,"x_min":22,"x_max":308,"o":"m 257 800 l 22 1017 l 99 1017 l 308 800 l 257 800 z "},"a":{"ha":718,"x_min":101,"x_max":603,"o":"m 553 0 l 553 111 q 451 17 511 51 q 328 -17 392 -17 q 162 44 222 -17 q 101 214 101 104 q 169 381 101 324 q 344 439 238 439 q 553 371 449 439 l 553 476 q 506 636 553 592 q 379 681 458 681 q 165 613 279 681 l 150 656 q 383 726 272 726 q 460 717 425 726 q 530 683 496 707 q 583 611 564 658 q 603 497 603 564 l 603 0 l 553 0 m 328 29 q 553 169 450 29 l 553 324 q 344 393 449 393 q 210 347 265 393 q 156 214 156 300 q 202 80 156 131 q 328 29 249 29 z "},"b":{"ha":769,"x_min":143,"x_max":675,"o":"m 414 -17 q 193 101 278 -17 l 193 0 l 143 0 l 143 978 l 193 1003 l 193 606 q 283 694 226 661 q 406 726 340 726 q 602 628 529 726 q 675 356 675 529 q 606 80 675 176 q 414 -17 538 -17 m 410 33 q 566 119 511 33 q 621 356 621 206 q 565 594 621 511 q 404 676 510 676 q 278 631 335 676 q 193 532 221 586 l 193 179 q 285 73 228 113 q 410 33 343 33 z "},"c":{"ha":657,"x_min":94,"x_max":576,"o":"m 350 -17 q 163 81 232 -17 q 94 354 94 179 q 165 628 94 529 q 360 726 236 726 q 486 688 432 726 q 567 578 540 649 l 517 558 q 456 645 497 614 q 360 676 414 676 q 149 354 149 676 q 203 119 149 204 q 350 33 257 33 q 461 69 414 33 q 526 164 508 104 l 576 146 q 492 27 553 71 q 350 -17 432 -17 z "},"d":{"ha":769,"x_min":94,"x_max":626,"o":"m 364 -17 q 167 84 239 -17 q 94 356 94 185 q 168 628 94 531 q 375 726 242 726 q 576 606 500 726 l 576 978 l 626 1003 l 626 0 l 576 0 l 576 101 q 364 -17 494 -17 m 375 33 q 489 75 433 33 q 576 179 544 117 l 576 533 q 375 676 492 676 q 207 593 265 676 q 149 356 149 510 q 211 126 149 218 q 375 33 274 33 z "},"e":{"ha":724,"x_min":94,"x_max":636,"o":"m 379 -17 q 169 83 244 -17 q 94 356 94 182 q 174 628 94 529 q 379 726 253 726 q 567 634 499 726 q 636 356 636 542 l 636 340 l 149 340 q 383 33 158 33 q 550 93 476 33 l 579 57 q 379 -17 493 -17 m 149 386 l 583 386 q 521 614 582 547 q 379 681 460 681 q 219 608 281 681 q 149 386 157 535 z "},"f":{"ha":429,"x_min":53,"x_max":388,"o":"m 217 664 l 217 0 l 167 0 l 167 664 l 53 664 l 53 710 l 167 710 l 167 838 q 303 989 167 989 q 388 967 346 989 l 388 922 q 303 943 340 943 q 236 917 256 943 q 217 832 217 890 l 217 710 l 388 710 l 388 664 l 217 664 z "},"g":{"ha":772,"x_min":94,"x_max":629,"o":"m 318 -296 l 292 -251 q 513 -188 446 -243 q 579 -26 579 -133 l 579 117 q 367 -17 514 -17 q 173 81 251 -17 q 94 356 94 178 q 171 627 94 528 q 372 726 247 726 q 500 691 446 726 q 579 607 554 656 l 579 710 l 629 710 l 629 -32 q 603 -156 629 -104 q 531 -236 578 -208 q 433 -278 483 -264 q 318 -296 382 -292 m 368 33 q 492 77 436 33 q 579 186 549 121 l 579 540 q 489 641 544 606 q 372 676 433 676 q 206 593 264 676 q 149 356 149 510 q 212 120 149 207 q 368 33 275 33 z "},"h":{"ha":767,"x_min":143,"x_max":631,"o":"m 143 0 l 143 978 l 193 1003 l 193 582 q 279 691 219 656 q 403 726 339 726 q 631 433 631 726 l 631 0 l 581 0 l 581 444 q 399 679 581 679 q 193 413 193 679 l 193 0 l 143 0 z "},"i":{"ha":344,"x_min":132,"x_max":213,"o":"m 172 879 q 144 891 156 879 q 132 919 132 903 q 144 950 132 938 q 172 963 156 963 q 201 950 190 963 q 213 919 213 938 q 201 891 213 903 q 172 879 190 879 m 147 0 l 147 710 l 197 710 l 197 0 l 147 0 z "},"j":{"ha":344,"x_min":-25,"x_max":213,"o":"m 172 879 q 144 891 156 879 q 132 919 132 903 q 144 950 132 938 q 172 963 156 963 q 201 950 190 963 q 213 919 213 938 q 201 891 213 903 q 172 879 190 879 m 0 -296 l -25 -253 q 107 -203 65 -246 q 149 -71 149 -161 l 149 710 l 199 710 l 199 -68 q 144 -237 199 -181 q 0 -296 96 -286 z "},"k":{"ha":699,"x_min":143,"x_max":646,"o":"m 646 0 l 589 0 l 344 476 l 193 315 l 193 0 l 143 0 l 143 978 l 193 1003 l 193 378 l 496 710 l 558 710 l 381 515 l 646 0 z "},"l":{"ha":336,"x_min":143,"x_max":193,"o":"m 143 0 l 143 978 l 193 1003 l 193 0 l 143 0 z "},"m":{"ha":1160,"x_min":143,"x_max":1024,"o":"m 974 0 l 974 446 q 797 679 974 679 q 660 611 711 679 q 608 446 608 543 l 608 0 l 558 0 l 558 446 q 385 679 558 679 q 242 613 290 679 q 193 436 193 547 l 193 0 l 143 0 l 143 710 l 193 710 l 193 593 q 392 726 254 726 q 519 683 467 726 q 588 553 571 640 q 672 681 614 636 q 801 726 731 726 q 964 662 904 726 q 1024 488 1024 597 l 1024 0 l 974 0 z "},"n":{"ha":767,"x_min":143,"x_max":631,"o":"m 581 0 l 581 443 q 399 679 581 679 q 193 413 193 679 l 193 0 l 143 0 l 143 710 l 193 710 l 193 582 q 279 691 219 656 q 403 726 339 726 q 631 433 631 726 l 631 0 l 581 0 z "},"o":{"ha":750,"x_min":94,"x_max":656,"o":"m 579 83 q 541 33 579 83 q 375 -17 503 -17 q 171 81 247 -17 q 94 354 94 179 q 171 627 94 528 q 375 726 247 726 q 579 628 503 726 q 656 356 656 531 q 579 83 656 182 m 375 33 q 542 118 483 33 q 601 356 601 203 q 543 592 601 508 q 375 676 485 676 q 207 594 265 676 q 149 354 149 511 q 207 117 149 201 q 375 33 265 33 z "},"p":{"ha":775,"x_min":143,"x_max":681,"o":"m 400 -17 q 193 117 263 -17 l 193 -257 l 143 -282 l 143 710 l 193 710 l 193 607 q 411 726 267 726 q 608 626 535 726 q 681 356 681 525 q 605 81 681 178 q 400 -17 529 -17 m 400 33 q 567 117 508 33 q 626 356 626 201 q 566 590 626 503 q 400 676 506 676 q 281 640 336 676 q 193 540 226 603 l 193 186 q 282 74 228 114 q 400 33 336 33 z "},"q":{"ha":775,"x_min":94,"x_max":632,"o":"m 375 -17 q 170 77 246 -17 q 94 349 94 171 q 167 622 94 518 q 364 726 240 726 q 582 607 508 726 l 582 710 l 632 710 l 632 -253 l 582 -278 l 582 117 q 496 19 551 56 q 375 -17 440 -17 m 375 33 q 493 74 439 33 q 582 186 547 114 l 582 540 q 494 640 549 603 q 375 676 439 676 q 209 586 269 676 q 149 349 149 496 q 208 115 149 196 q 375 33 267 33 z "},"r":{"ha":531,"x_min":143,"x_max":496,"o":"m 143 0 l 143 710 l 193 710 l 193 558 q 281 684 225 642 q 401 726 336 726 q 496 697 464 726 l 488 647 q 394 671 449 671 q 256 602 318 671 q 193 393 193 533 l 193 0 l 143 0 z "},"s":{"ha":635,"x_min":101,"x_max":540,"o":"m 328 -17 q 104 90 199 -17 l 143 124 q 326 31 228 31 q 446 65 403 31 q 489 167 489 100 q 438 275 489 233 q 294 351 386 317 q 150 433 199 388 q 101 551 101 478 q 158 677 101 628 q 310 726 214 726 q 514 639 431 726 l 476 607 q 308 679 399 679 q 194 644 235 679 q 153 551 153 610 q 163 503 153 525 q 185 467 174 481 q 226 437 197 453 q 272 414 256 421 q 326 392 288 407 q 413 353 382 369 q 477 312 443 338 q 526 251 511 286 q 540 167 540 215 q 485 33 540 83 q 328 -17 429 -17 z "},"t":{"ha":501,"x_min":60,"x_max":421,"o":"m 311 -17 q 181 144 181 -17 l 181 664 l 60 664 l 60 710 l 181 710 l 181 978 l 231 1003 l 231 710 l 411 710 l 411 664 l 231 664 l 231 151 q 249 61 231 90 q 317 32 267 32 q 421 65 369 32 l 415 13 q 311 -17 368 -17 z "},"u":{"ha":767,"x_min":136,"x_max":624,"o":"m 574 0 l 574 119 q 365 -17 513 -17 q 136 276 136 -17 l 136 710 l 186 710 l 186 265 q 368 29 186 29 q 574 297 574 29 l 574 710 l 624 710 l 624 0 l 574 0 z "},"v":{"ha":689,"x_min":74,"x_max":615,"o":"m 326 0 l 74 710 l 124 710 l 329 138 l 344 92 l 360 138 l 565 710 l 615 710 l 363 0 l 326 0 z "},"w":{"ha":969,"x_min":74,"x_max":896,"o":"m 254 0 l 74 710 l 124 710 l 260 163 l 276 92 q 297 163 286 129 l 467 710 l 503 710 l 672 163 l 693 92 q 710 163 701 129 l 846 710 l 896 710 l 715 0 l 679 0 l 514 522 l 485 618 q 456 522 469 568 l 290 0 l 254 0 z "},"x":{"ha":678,"x_min":74,"x_max":604,"o":"m 74 0 l 311 369 l 93 710 l 147 710 l 311 456 l 339 411 q 353 434 343 419 q 367 456 363 449 l 531 710 l 585 710 l 365 369 l 604 0 l 550 0 l 368 282 q 339 329 349 313 q 310 282 329 313 l 128 0 l 74 0 z "},"y":{"ha":708,"x_min":74,"x_max":635,"o":"m 224 -269 l 329 17 l 74 710 l 124 710 l 329 150 l 354 79 l 379 150 l 585 710 l 635 710 l 274 -269 l 224 -269 z "},"z":{"ha":688,"x_min":94,"x_max":586,"o":"m 94 0 l 94 31 l 519 664 l 122 664 l 122 710 l 586 710 l 586 681 l 160 46 l 585 46 l 585 0 l 94 0 z "},"{":{"ha":519,"x_min":88,"x_max":436,"o":"m 436 -181 q 272 -100 322 -178 q 222 140 222 -22 l 222 225 q 188 338 222 297 q 93 378 153 378 l 88 378 l 88 432 l 93 432 q 188 471 153 432 q 222 585 222 510 l 222 668 q 272 908 222 831 q 436 989 322 986 l 436 944 q 276 731 276 939 l 276 617 q 240 457 276 501 q 124 404 203 413 q 240 355 204 397 q 276 192 276 313 l 276 78 q 436 -136 276 -131 l 436 -181 z "},"|":{"ha":369,"x_min":160,"x_max":210,"o":"m 160 -525 l 160 1475 l 210 1475 l 210 -525 l 160 -525 z "},"}":{"ha":519,"x_min":83,"x_max":432,"o":"m 83 -181 l 83 -136 q 243 78 243 -131 l 243 192 q 279 355 243 313 q 396 404 315 397 q 280 457 317 413 q 243 617 243 501 l 243 731 q 83 944 243 939 l 83 989 q 247 908 197 986 q 297 668 297 831 l 297 585 q 332 471 297 510 q 426 432 367 432 l 432 432 l 432 378 l 426 378 q 332 338 367 378 q 297 225 297 297 l 297 140 q 247 -100 297 -22 q 83 -181 197 -178 z "},"~":{"ha":911,"x_min":132,"x_max":779,"o":"m 615 385 q 503 417 560 385 q 392 483 446 450 q 293 515 339 515 q 215 481 243 515 q 183 385 186 447 l 132 385 q 174 513 132 460 q 296 565 215 565 q 408 533 351 565 q 519 467 465 500 q 618 435 572 435 q 697 469 668 435 q 728 565 725 504 l 779 565 q 738 438 779 490 q 615 385 696 385 z "}," ":{"ha":306,"x_min":0,"x_max":0,"o":""},"¡":{"ha":369,"x_min":144,"x_max":225,"o":"m 185 643 q 156 656 167 643 q 144 686 144 668 q 156 715 144 703 q 185 726 167 726 q 213 715 201 726 q 225 686 225 703 q 213 656 225 668 q 185 643 201 643 m 211 -278 l 158 -278 l 158 72 l 178 443 l 192 443 l 211 72 l 211 -278 z "},"¢":{"ha":704,"x_min":111,"x_max":593,"o":"m 340 -17 l 340 114 q 172 222 233 125 q 111 483 111 318 q 172 742 111 644 q 340 853 232 839 l 340 989 l 390 989 l 390 856 q 508 813 457 851 q 583 707 558 774 l 533 688 q 376 804 492 804 q 165 483 165 804 q 219 249 165 333 q 367 164 274 164 q 478 199 431 164 q 543 293 525 233 l 593 275 q 517 163 571 206 q 390 114 464 119 l 390 -17 l 340 -17 z "},"£":{"ha":833,"x_min":143,"x_max":746,"o":"m 143 0 l 143 56 q 285 347 285 179 q 275 432 285 386 l 143 432 l 143 478 l 263 478 q 234 558 254 506 q 203 651 214 611 q 193 731 193 692 q 267 914 193 839 q 479 989 342 989 q 724 914 628 989 l 703 868 q 479 940 619 940 q 305 878 364 940 q 246 732 246 817 q 257 652 246 693 q 289 560 268 611 q 318 478 310 508 l 551 478 l 551 432 l 329 432 q 338 358 338 397 q 190 46 338 171 l 746 46 l 746 0 l 143 0 z "},"¤":{"ha":876,"x_min":90,"x_max":785,"o":"m 647 214 q 438 140 554 140 q 228 214 321 140 l 131 115 l 90 154 l 190 253 q 132 463 132 342 q 190 672 132 583 l 90 771 l 131 810 l 228 711 q 438 785 321 785 q 647 711 554 785 l 744 810 l 785 771 l 685 672 q 743 463 743 583 q 685 253 743 342 l 785 154 l 744 115 l 647 214 m 255 267 q 289 230 255 267 q 438 192 324 192 q 620 267 551 192 q 689 463 689 343 q 620 658 689 582 q 438 733 551 733 q 255 658 324 733 q 186 463 186 582 q 255 267 186 343 z "},"¥":{"ha":769,"x_min":43,"x_max":726,"o":"m 431 429 l 644 429 l 644 383 l 410 383 l 410 217 l 644 217 l 644 171 l 410 171 l 410 0 l 360 0 l 360 171 l 108 171 l 108 217 l 360 217 l 360 383 l 108 383 l 108 429 l 339 429 l 43 972 l 97 972 l 385 442 l 672 972 l 726 972 l 431 429 z "},"¦":{"ha":369,"x_min":160,"x_max":210,"o":"m 160 508 l 160 1146 l 210 1146 l 210 508 l 160 508 m 160 -312 l 160 325 l 210 325 l 210 -312 l 160 -312 z "},"§":{"ha":733,"x_min":108,"x_max":625,"o":"m 360 -167 q 108 -68 201 -167 l 147 -32 q 360 -117 239 -117 q 571 46 571 -117 q 558 105 571 78 q 531 149 544 132 q 481 186 517 167 q 428 213 446 206 q 362 240 411 221 q 299 265 313 260 q 160 341 203 304 q 117 446 117 378 q 158 547 117 506 q 264 600 199 588 q 117 796 117 660 q 186 936 117 883 q 357 989 256 989 q 588 903 496 989 l 547 867 q 357 939 465 939 q 224 901 276 939 q 171 792 171 864 q 220 685 171 719 q 419 593 269 650 q 498 560 468 575 q 560 521 528 544 q 609 464 593 497 q 625 388 625 431 q 594 297 625 339 q 507 235 564 254 q 625 46 625 175 q 553 -114 625 -61 q 360 -167 482 -167 m 463 260 q 571 383 571 299 q 556 438 571 413 q 524 479 542 463 q 466 515 506 496 q 399 543 426 533 q 317 572 372 553 q 210 528 249 561 q 171 446 171 496 q 204 378 171 408 q 276 332 238 349 q 376 294 315 315 q 463 260 436 272 z "},"¨":{"ha":460,"x_min":76,"x_max":388,"o":"m 117 842 q 88 853 100 842 q 76 882 76 865 q 88 913 76 900 q 117 925 100 925 q 146 913 135 925 q 157 882 157 900 q 146 853 157 865 q 117 842 135 842 m 347 842 q 319 853 331 842 q 307 882 307 865 q 319 913 307 900 q 347 925 331 925 q 376 913 365 925 q 388 882 388 900 q 376 853 388 865 q 347 842 365 842 z "},"©":{"ha":1208,"x_min":101,"x_max":1107,"o":"m 963 128 q 890 56 963 128 q 604 -17 818 -17 q 246 128 390 -17 q 101 486 101 272 q 246 844 101 700 q 604 989 390 989 q 963 844 818 989 q 1107 486 1107 700 q 963 128 1107 272 m 280 160 q 344 95 280 160 q 604 31 408 31 q 928 160 800 31 q 1057 486 1057 290 q 928 812 1057 682 q 604 942 800 942 q 280 812 408 942 q 151 486 151 682 q 280 160 151 290 m 613 192 q 440 269 499 192 q 381 493 381 347 q 440 715 381 633 q 611 796 500 796 q 801 674 749 796 l 754 654 q 611 747 711 747 q 478 680 524 747 q 433 493 433 613 q 613 240 433 240 q 768 346 732 240 l 810 329 q 613 192 763 192 z "},"ª":{"ha":622,"x_min":81,"x_max":514,"o":"m 464 393 l 464 451 q 279 379 382 379 q 135 428 189 379 q 81 567 81 476 q 146 710 81 660 q 300 760 211 760 q 464 718 388 760 l 464 769 q 424 903 464 864 q 300 942 385 942 q 143 894 219 942 l 129 939 q 300 989 204 989 q 460 942 406 989 q 514 779 514 894 l 514 393 l 464 393 m 279 425 q 464 500 383 425 l 464 668 q 300 714 394 714 q 184 677 233 714 q 135 567 135 640 q 174 460 135 496 q 279 425 214 425 z "},"«":{"ha":640,"x_min":71,"x_max":590,"o":"m 282 0 l 71 356 l 282 710 l 340 710 l 129 356 l 340 0 l 282 0 m 532 0 l 321 356 l 532 710 l 590 710 l 379 356 l 590 0 l 532 0 z "},"¬":{"ha":911,"x_min":129,"x_max":782,"o":"m 732 244 l 732 593 l 129 593 l 129 643 l 782 643 l 782 244 l 732 244 z "},"­":{"ha":554,"x_min":122,"x_max":432,"o":"m 122 389 l 122 439 l 432 439 l 432 389 l 122 389 z "},"®":{"ha":1208,"x_min":101,"x_max":1107,"o":"m 963 128 q 890 56 963 128 q 604 -17 818 -17 q 246 128 390 -17 q 101 486 101 272 q 246 844 101 700 q 604 989 390 989 q 963 844 818 989 q 1107 486 1107 700 q 963 128 1107 272 m 280 160 q 344 95 280 160 q 604 31 408 31 q 928 160 800 31 q 1057 486 1057 290 q 928 812 1057 682 q 604 942 800 942 q 280 812 408 942 q 151 486 151 682 q 280 160 151 290 m 414 190 l 414 778 l 661 778 q 784 725 743 778 q 825 608 825 672 q 785 497 825 543 q 671 446 746 451 l 817 190 l 758 190 l 617 443 l 464 443 l 464 190 l 414 190 m 464 493 l 649 493 q 742 526 713 493 q 772 608 772 558 q 744 693 772 658 q 649 728 715 728 l 464 728 l 464 493 z "},"¯":{"ha":460,"x_min":0,"x_max":458,"o":"m 0 865 l 0 911 l 458 911 l 458 865 l 0 865 z "},"°":{"ha":550,"x_min":88,"x_max":463,"o":"m 275 669 q 141 723 194 669 q 88 856 88 776 q 141 989 88 936 q 275 1042 194 1042 q 408 988 354 1042 q 463 856 463 935 q 408 723 463 776 q 275 669 354 669 m 275 715 q 375 756 335 715 q 415 856 415 796 q 376 956 415 917 q 275 996 336 996 q 174 956 214 996 q 135 856 135 917 q 174 756 135 796 q 275 715 214 715 z "},"±":{"ha":911,"x_min":129,"x_max":782,"o":"m 479 539 l 479 283 l 429 283 l 429 539 l 129 539 l 129 589 l 429 589 l 429 844 l 479 844 l 479 589 l 782 589 l 782 539 l 479 539 m 129 0 l 129 50 l 782 50 l 782 0 l 129 0 z "},"²":{"ha":508,"x_min":65,"x_max":421,"o":"m 65 617 q 114 768 67 711 q 250 881 161 825 q 340 954 313 919 q 368 1044 368 989 q 337 1126 368 1090 q 246 1163 306 1163 q 111 1058 142 1163 l 65 1076 q 128 1174 81 1135 q 246 1213 176 1213 q 372 1167 324 1213 q 421 1044 421 1122 q 386 926 421 972 q 274 835 351 881 q 170 757 204 794 q 125 674 136 719 l 418 674 l 418 617 l 65 617 z "},"³":{"ha":504,"x_min":51,"x_max":436,"o":"m 247 601 q 51 731 110 601 l 100 749 q 247 651 146 651 q 346 683 308 651 q 383 769 383 714 q 351 858 383 824 q 261 893 319 893 l 218 893 l 218 943 l 247 943 q 328 977 297 943 q 360 1058 360 1011 q 331 1135 360 1106 q 250 1164 303 1164 q 119 1075 164 1164 l 72 1094 q 250 1214 124 1214 q 367 1172 322 1214 q 413 1058 413 1131 q 390 977 413 1015 q 325 922 367 939 q 406 871 376 911 q 436 769 436 831 q 381 647 436 693 q 247 601 326 601 z "},"´":{"ha":460,"x_min":146,"x_max":432,"o":"m 146 800 l 356 1017 l 432 1017 l 197 800 l 146 800 z "},"µ":{"ha":767,"x_min":136,"x_max":624,"o":"m 574 0 l 574 119 q 491 19 544 56 q 365 -17 438 -17 q 186 69 240 -17 l 186 -251 l 136 -278 l 136 710 l 186 710 l 186 265 q 368 29 186 29 q 574 297 574 29 l 574 710 l 624 710 l 624 0 l 574 0 z "},"¶":{"ha":831,"x_min":69,"x_max":678,"o":"m 429 -242 l 429 410 q 259 434 332 410 q 147 500 186 458 q 88 587 107 542 q 69 682 69 632 q 140 872 69 796 q 364 949 211 949 l 678 949 l 678 -126 l 628 -151 l 628 899 l 479 899 l 479 -218 l 429 -242 m 431 460 l 431 899 l 368 899 q 183 838 240 899 q 125 683 125 776 q 198 526 125 592 q 431 460 271 460 z "},"·":{"ha":281,"x_min":100,"x_max":181,"o":"m 140 444 q 112 456 124 444 q 100 485 100 468 q 112 515 100 503 q 140 528 124 528 q 169 515 158 528 q 181 485 181 503 q 169 456 181 468 q 140 444 158 444 z "},"¸":{"ha":460,"x_min":139,"x_max":372,"o":"m 336 -289 q 318 -307 336 -289 q 238 -325 300 -325 q 139 -286 175 -325 l 174 -261 q 236 -285 203 -285 q 301 -261 278 -285 q 325 -200 325 -237 q 299 -140 325 -164 q 235 -117 274 -117 q 182 -128 204 -117 l 168 -111 l 258 14 l 292 14 l 236 -82 q 338 -117 303 -82 q 372 -199 372 -151 q 336 -289 372 -253 z "},"¹":{"ha":272,"x_min":36,"x_max":167,"o":"m 114 617 l 114 1081 l 36 1081 l 36 1111 q 106 1134 86 1113 q 133 1203 126 1156 l 167 1203 l 167 617 l 114 617 z "},"º":{"ha":646,"x_min":79,"x_max":567,"o":"m 322 378 q 145 458 211 378 q 79 683 79 539 q 145 908 79 826 q 322 989 211 989 q 501 908 435 989 q 567 683 567 826 q 501 458 567 539 q 322 378 436 378 m 322 429 q 462 497 411 429 q 513 683 513 564 q 461 870 513 803 q 322 938 410 938 q 185 869 236 938 q 133 683 133 801 q 185 497 133 564 q 322 429 236 429 z "},"»":{"ha":640,"x_min":50,"x_max":569,"o":"m 50 0 l 261 356 l 50 710 l 108 710 l 319 356 l 108 0 l 50 0 m 300 0 l 511 356 l 300 710 l 358 710 l 569 356 l 358 0 l 300 0 z "},"¼":{"ha":931,"x_min":35,"x_max":856,"o":"m 35 -17 l 699 989 l 758 989 l 94 -17 l 35 -17 m 128 393 l 128 857 l 50 857 l 50 888 q 120 910 100 889 q 147 979 140 932 l 181 979 l 181 393 l 128 393 m 725 0 l 725 163 l 431 163 l 431 190 l 735 588 l 778 588 l 778 213 l 856 213 l 856 163 l 778 163 l 778 0 l 725 0 m 725 213 l 725 500 l 504 213 l 725 213 z "},"½":{"ha":999,"x_min":35,"x_max":911,"o":"m 35 -17 l 699 989 l 758 989 l 94 -17 l 35 -17 m 128 393 l 128 857 l 50 857 l 50 888 q 120 910 100 889 q 147 979 140 932 l 181 979 l 181 393 l 128 393 m 556 0 q 604 151 557 94 q 740 264 651 208 q 831 338 803 303 q 858 428 858 372 q 827 510 858 474 q 736 546 796 546 q 601 442 632 546 l 556 460 q 619 557 571 518 q 736 596 667 596 q 863 551 814 596 q 911 428 911 506 q 876 310 911 356 q 764 218 842 264 q 615 56 638 144 l 908 56 l 908 0 l 556 0 z "},"¾":{"ha":1131,"x_min":54,"x_max":1054,"o":"m 250 376 q 54 506 113 376 l 103 524 q 250 426 149 426 q 349 458 311 426 q 386 544 386 489 q 354 633 386 599 q 264 668 322 668 l 221 668 l 221 718 l 250 718 q 331 752 300 718 q 363 833 363 786 q 334 910 363 881 q 253 939 306 939 q 122 850 167 939 l 75 869 q 253 989 126 989 q 370 947 325 989 q 415 833 415 906 q 392 752 415 790 q 328 697 369 714 q 409 646 379 686 q 439 544 439 606 q 384 422 439 468 q 250 376 329 376 m 233 -17 l 897 989 l 957 989 l 293 -17 l 233 -17 m 924 0 l 924 163 l 629 163 l 629 190 l 933 588 l 976 588 l 976 213 l 1054 213 l 1054 163 l 976 163 l 976 0 l 924 0 m 924 213 l 924 500 l 703 213 l 924 213 z "},"¿":{"ha":725,"x_min":88,"x_max":636,"o":"m 375 643 q 346 656 357 643 q 335 686 335 668 q 346 715 335 703 q 375 726 357 726 q 403 715 392 726 q 415 686 415 703 q 403 656 415 668 q 375 643 392 643 m 560 -203 q 522 -241 560 -203 q 357 -278 483 -278 q 159 -206 231 -278 q 88 -28 88 -135 q 115 85 88 35 q 180 173 142 136 q 256 246 218 210 q 322 333 294 282 q 349 447 349 385 l 349 494 l 401 494 l 401 447 q 374 324 401 379 q 309 231 347 268 q 233 157 271 193 q 167 74 194 121 q 140 -28 140 28 q 198 -171 140 -114 q 357 -228 256 -228 q 524 -168 463 -228 q 586 -18 586 -108 l 636 -18 q 560 -203 636 -129 z "},"À":{"ha":883,"x_min":90,"x_max":793,"o":"m 467 1063 l 232 1279 l 308 1279 l 518 1063 l 467 1063 m 739 0 l 644 274 l 239 274 l 144 0 l 90 0 l 424 972 l 460 972 l 793 0 l 739 0 m 632 315 l 490 729 q 478 767 489 733 q 456 834 467 801 q 442 885 446 867 q 426 833 438 867 q 404 766 415 799 q 392 729 393 733 l 251 315 l 632 315 z "},"Á":{"ha":883,"x_min":90,"x_max":793,"o":"m 357 1063 l 567 1279 l 643 1279 l 408 1063 l 357 1063 m 739 0 l 644 274 l 239 274 l 144 0 l 90 0 l 424 972 l 460 972 l 793 0 l 739 0 m 632 315 l 490 729 q 478 767 489 733 q 456 834 467 801 q 442 885 446 867 q 426 833 438 867 q 404 766 415 799 q 392 729 393 733 l 251 315 l 632 315 z "},"Â":{"ha":883,"x_min":90,"x_max":793,"o":"m 621 1063 l 440 1229 l 260 1063 l 208 1063 l 418 1279 l 463 1279 l 672 1063 l 621 1063 m 739 0 l 644 274 l 239 274 l 144 0 l 90 0 l 424 972 l 460 972 l 793 0 l 739 0 m 632 315 l 490 729 q 478 767 489 733 q 456 834 467 801 q 442 885 446 867 q 426 833 438 867 q 404 766 415 799 q 392 729 393 733 l 251 315 l 632 315 z "},"Ã":{"ha":883,"x_min":90,"x_max":793,"o":"m 550 1099 q 429 1155 503 1099 q 319 1211 356 1211 q 247 1104 251 1211 l 210 1104 q 240 1215 210 1174 q 329 1257 271 1257 q 450 1201 376 1257 q 560 1144 524 1144 q 632 1251 628 1144 l 669 1251 q 639 1140 669 1182 q 550 1099 608 1099 m 739 0 l 644 274 l 239 274 l 144 0 l 90 0 l 424 972 l 460 972 l 793 0 l 739 0 m 632 315 l 490 729 q 478 767 489 733 q 456 834 467 801 q 442 885 446 867 q 426 833 438 867 q 404 766 415 799 q 392 729 393 733 l 251 315 l 632 315 z "},"Ä":{"ha":883,"x_min":90,"x_max":793,"o":"m 326 1104 q 298 1116 310 1104 q 286 1144 286 1128 q 298 1175 286 1163 q 326 1188 310 1188 q 356 1175 344 1188 q 367 1144 367 1163 q 356 1116 367 1128 q 326 1104 344 1104 m 557 1104 q 528 1116 540 1104 q 517 1144 517 1128 q 528 1175 517 1163 q 557 1188 540 1188 q 586 1175 575 1188 q 597 1144 597 1163 q 586 1116 597 1128 q 557 1104 575 1104 m 739 0 l 644 274 l 239 274 l 144 0 l 90 0 l 424 972 l 460 972 l 793 0 l 739 0 m 632 315 l 490 729 q 478 767 489 733 q 456 834 467 801 q 442 885 446 867 q 426 833 438 867 q 404 766 415 799 q 392 729 393 733 l 251 315 l 632 315 z "},"Å":{"ha":883,"x_min":90,"x_max":793,"o":"m 90 0 l 394 888 q 313 942 344 903 q 282 1036 282 982 q 329 1147 282 1100 q 442 1193 376 1193 q 554 1147 507 1193 q 601 1036 601 1100 q 570 943 601 983 q 489 888 539 903 l 793 0 l 739 0 l 644 274 l 239 274 l 144 0 l 90 0 m 442 924 q 522 956 489 924 q 554 1036 554 989 q 522 1117 554 1085 q 442 1150 489 1150 q 363 1118 396 1150 q 329 1036 329 1086 q 363 955 329 986 q 442 924 396 924 m 251 315 l 632 315 l 490 729 q 478 767 489 733 q 456 834 467 801 q 442 885 446 867 q 426 833 438 867 q 404 766 415 799 q 392 729 393 733 l 251 315 z "},"Æ":{"ha":1179,"x_min":4,"x_max":1061,"o":"m 4 0 l 565 972 l 1031 972 l 1031 926 l 614 926 l 614 526 l 882 526 l 882 481 l 614 481 l 614 46 l 1061 46 l 1061 0 l 564 0 l 564 274 l 218 274 l 61 0 l 4 0 m 240 315 l 564 315 l 564 883 q 531 822 553 861 l 240 315 z "},"Ç":{"ha":889,"x_min":118,"x_max":785,"o":"m 572 -289 q 554 -307 572 -289 q 474 -325 536 -325 q 375 -286 411 -325 l 410 -261 q 472 -285 439 -285 q 538 -261 514 -285 q 561 -200 561 -237 q 535 -140 561 -164 q 471 -117 510 -117 q 418 -128 440 -117 l 404 -111 l 472 -15 q 310 33 381 -11 q 199 148 240 76 q 138 305 158 219 q 118 486 118 390 q 141 674 118 585 q 209 834 164 763 q 327 947 254 906 q 493 989 400 989 q 667 947 604 989 q 771 832 729 904 l 728 807 q 640 903 692 868 q 493 939 588 939 q 255 807 339 939 q 171 486 171 675 q 189 317 171 396 q 244 174 207 239 q 346 71 282 108 q 494 33 410 33 q 647 75 585 33 q 739 179 708 117 l 785 161 q 681 38 750 88 q 510 -17 613 -12 l 472 -82 q 574 -117 539 -82 q 608 -199 608 -151 q 572 -289 608 -253 z "},"È":{"ha":808,"x_min":153,"x_max":690,"o":"m 419 1063 l 185 1279 l 261 1279 l 471 1063 l 419 1063 m 153 0 l 153 972 l 660 972 l 660 926 l 203 926 l 203 526 l 511 526 l 511 481 l 203 481 l 203 46 l 690 46 l 690 0 l 153 0 z "},"É":{"ha":808,"x_min":153,"x_max":690,"o":"m 326 1063 l 536 1279 l 613 1279 l 378 1063 l 326 1063 m 153 0 l 153 972 l 660 972 l 660 926 l 203 926 l 203 526 l 511 526 l 511 481 l 203 481 l 203 46 l 690 46 l 690 0 l 153 0 z "},"Ê":{"ha":808,"x_min":153,"x_max":690,"o":"m 585 1063 l 404 1229 l 224 1063 l 172 1063 l 382 1279 l 426 1279 l 636 1063 l 585 1063 m 153 0 l 153 972 l 660 972 l 660 926 l 203 926 l 203 526 l 511 526 l 511 481 l 203 481 l 203 46 l 690 46 l 690 0 l 153 0 z "},"Ë":{"ha":808,"x_min":153,"x_max":690,"o":"m 296 1104 q 267 1116 279 1104 q 256 1144 256 1128 q 267 1175 256 1163 q 296 1188 279 1188 q 325 1175 314 1188 q 336 1144 336 1163 q 325 1116 336 1128 q 296 1104 314 1104 m 526 1104 q 498 1116 510 1104 q 486 1144 486 1128 q 498 1175 486 1163 q 526 1188 510 1188 q 556 1175 544 1188 q 567 1144 567 1163 q 556 1116 567 1128 q 526 1104 544 1104 m 153 0 l 153 972 l 660 972 l 660 926 l 203 926 l 203 526 l 511 526 l 511 481 l 203 481 l 203 46 l 690 46 l 690 0 l 153 0 z "},"Ì":{"ha":356,"x_min":-32,"x_max":254,"o":"m 203 1063 l -32 1279 l 44 1279 l 254 1063 l 203 1063 m 153 0 l 153 972 l 203 972 l 203 0 l 153 0 z "},"Í":{"ha":356,"x_min":93,"x_max":379,"o":"m 93 1063 l 303 1279 l 379 1279 l 144 1063 l 93 1063 m 153 0 l 153 972 l 203 972 l 203 0 l 153 0 z "},"Î":{"ha":356,"x_min":-56,"x_max":408,"o":"m 357 1063 l 176 1229 l -4 1063 l -56 1063 l 154 1279 l 199 1279 l 408 1063 l 357 1063 m 153 0 l 153 972 l 203 972 l 203 0 l 153 0 z "},"Ï":{"ha":356,"x_min":22,"x_max":333,"o":"m 63 1104 q 34 1116 46 1104 q 22 1144 22 1128 q 34 1175 22 1163 q 63 1188 46 1188 q 92 1175 81 1188 q 103 1144 103 1163 q 92 1116 103 1128 q 63 1104 81 1104 m 293 1104 q 265 1116 276 1104 q 253 1144 253 1128 q 265 1175 253 1163 q 293 1188 276 1188 q 322 1175 311 1188 q 333 1144 333 1163 q 322 1116 333 1128 q 293 1104 311 1104 m 153 0 l 153 972 l 203 972 l 203 0 l 153 0 z "},"Ð":{"ha":924,"x_min":56,"x_max":806,"o":"m 153 460 l 56 460 l 56 510 l 153 510 l 153 972 l 375 972 q 577 931 490 972 q 712 818 664 889 q 783 665 760 747 q 806 486 806 582 q 794 349 806 415 q 751 219 782 283 q 672 106 719 154 q 546 29 624 58 q 369 0 468 0 l 153 0 l 153 460 m 369 50 q 524 76 456 50 q 634 145 592 103 q 703 247 676 188 q 741 364 731 306 q 751 486 751 422 q 740 614 751 553 q 700 732 728 675 q 630 831 672 789 q 522 897 588 872 q 375 922 457 922 l 203 922 l 203 510 l 446 510 l 446 460 l 203 460 l 203 50 l 369 50 z "},"Ñ":{"ha":946,"x_min":153,"x_max":793,"o":"m 582 1099 q 461 1155 535 1099 q 351 1211 388 1211 q 279 1104 283 1211 l 242 1104 q 272 1215 242 1174 q 361 1257 303 1257 q 482 1201 408 1257 q 592 1144 556 1144 q 664 1251 660 1144 l 701 1251 q 671 1140 701 1182 q 582 1099 640 1099 m 793 0 l 744 0 l 246 807 l 203 878 l 203 807 l 203 0 l 153 0 l 153 972 l 201 972 l 700 165 l 743 94 l 743 165 l 743 972 l 793 972 l 793 0 z "},"Ò":{"ha":994,"x_min":118,"x_max":876,"o":"m 553 1064 l 318 1281 l 394 1281 l 604 1064 l 553 1064 m 673 27 q 635 5 673 27 q 497 -17 597 -17 q 322 27 397 -17 q 203 145 246 71 q 139 306 160 219 q 118 486 118 392 q 139 667 118 581 q 203 827 160 753 q 322 945 246 901 q 497 989 397 989 q 673 945 597 989 q 792 827 749 901 q 856 667 835 753 q 876 486 876 581 q 856 306 876 392 q 792 145 835 219 q 673 27 749 71 m 497 33 q 649 74 583 33 q 751 181 715 114 q 805 326 788 249 q 822 486 822 403 q 805 655 822 576 q 751 799 788 733 q 649 901 714 864 q 497 939 585 939 q 345 899 411 939 q 243 791 279 858 q 190 647 207 724 q 172 486 172 569 q 190 317 172 396 q 244 174 207 239 q 345 71 281 108 q 497 33 410 33 z "},"Ó":{"ha":994,"x_min":118,"x_max":876,"o":"m 413 1063 l 622 1279 l 699 1279 l 464 1063 l 413 1063 m 673 27 q 635 5 673 27 q 497 -17 597 -17 q 322 27 397 -17 q 203 145 246 71 q 139 306 160 219 q 118 486 118 392 q 139 667 118 581 q 203 827 160 753 q 322 945 246 901 q 497 989 397 989 q 673 945 597 989 q 792 827 749 901 q 856 667 835 753 q 876 486 876 581 q 856 306 876 392 q 792 145 835 219 q 673 27 749 71 m 497 33 q 649 74 583 33 q 751 181 715 114 q 805 326 788 249 q 822 486 822 403 q 805 655 822 576 q 751 799 788 733 q 649 901 714 864 q 497 939 585 939 q 345 899 411 939 q 243 791 279 858 q 190 647 207 724 q 172 486 172 569 q 190 317 172 396 q 244 174 207 239 q 345 71 281 108 q 497 33 410 33 z "},"Ô":{"ha":994,"x_min":118,"x_max":876,"o":"m 676 1063 l 496 1229 l 315 1063 l 264 1063 l 474 1279 l 518 1279 l 728 1063 l 676 1063 m 673 27 q 635 5 673 27 q 497 -17 597 -17 q 322 27 397 -17 q 203 145 246 71 q 139 306 160 219 q 118 486 118 392 q 139 667 118 581 q 203 827 160 753 q 322 945 246 901 q 497 989 397 989 q 673 945 597 989 q 792 827 749 901 q 856 667 835 753 q 876 486 876 581 q 856 306 876 392 q 792 145 835 219 q 673 27 749 71 m 497 33 q 649 74 583 33 q 751 181 715 114 q 805 326 788 249 q 822 486 822 403 q 805 655 822 576 q 751 799 788 733 q 649 901 714 864 q 497 939 585 939 q 345 899 411 939 q 243 791 279 858 q 190 647 207 724 q 172 486 172 569 q 190 317 172 396 q 244 174 207 239 q 345 71 281 108 q 497 33 410 33 z "},"Õ":{"ha":994,"x_min":118,"x_max":876,"o":"m 606 1099 q 485 1155 558 1099 q 375 1211 411 1211 q 303 1104 307 1211 l 265 1104 q 296 1215 265 1174 q 385 1257 326 1257 q 506 1201 432 1257 q 615 1144 579 1144 q 688 1251 683 1144 l 725 1251 q 694 1140 725 1182 q 606 1099 664 1099 m 673 27 q 635 5 673 27 q 497 -17 597 -17 q 322 27 397 -17 q 203 145 246 71 q 139 306 160 219 q 118 486 118 392 q 139 667 118 581 q 203 827 160 753 q 322 945 246 901 q 497 989 397 989 q 673 945 597 989 q 792 827 749 901 q 856 667 835 753 q 876 486 876 581 q 856 306 876 392 q 792 145 835 219 q 673 27 749 71 m 497 33 q 649 74 583 33 q 751 181 715 114 q 805 326 788 249 q 822 486 822 403 q 805 655 822 576 q 751 799 788 733 q 649 901 714 864 q 497 939 585 939 q 345 899 411 939 q 243 791 279 858 q 190 647 207 724 q 172 486 172 569 q 190 317 172 396 q 244 174 207 239 q 345 71 281 108 q 497 33 410 33 z "},"Ö":{"ha":994,"x_min":118,"x_max":876,"o":"m 382 1104 q 353 1116 365 1104 q 342 1144 342 1128 q 353 1175 342 1163 q 382 1188 365 1188 q 411 1175 400 1188 q 422 1144 422 1163 q 411 1116 422 1128 q 382 1104 400 1104 m 613 1104 q 584 1116 596 1104 q 572 1144 572 1128 q 584 1175 572 1163 q 613 1188 596 1188 q 642 1175 631 1188 q 653 1144 653 1163 q 642 1116 653 1128 q 613 1104 631 1104 m 673 27 q 635 5 673 27 q 497 -17 597 -17 q 322 27 397 -17 q 203 145 246 71 q 139 306 160 219 q 118 486 118 392 q 139 667 118 581 q 203 827 160 753 q 322 945 246 901 q 497 989 397 989 q 673 945 597 989 q 792 827 749 901 q 856 667 835 753 q 876 486 876 581 q 856 306 876 392 q 792 145 835 219 q 673 27 749 71 m 497 33 q 649 74 583 33 q 751 181 715 114 q 805 326 788 249 q 822 486 822 403 q 805 655 822 576 q 751 799 788 733 q 649 901 714 864 q 497 939 585 939 q 345 899 411 939 q 243 791 279 858 q 190 647 207 724 q 172 486 172 569 q 190 317 172 396 q 244 174 207 239 q 345 71 281 108 q 497 33 410 33 z "},"×":{"ha":911,"x_min":158,"x_max":753,"o":"m 456 439 l 193 176 l 158 210 l 422 474 l 158 738 l 193 771 l 456 508 l 718 771 l 753 738 l 489 474 l 753 210 l 718 176 l 456 439 z "},"Ø":{"ha":994,"x_min":118,"x_max":876,"o":"m 133 -17 l 222 117 q 118 486 118 254 q 139 667 118 581 q 203 827 160 753 q 322 945 246 901 q 497 989 397 989 q 739 893 643 989 l 804 989 l 861 989 l 772 856 q 876 486 876 717 q 856 306 876 392 q 792 145 835 219 q 673 27 749 71 q 497 -17 597 -17 q 254 79 350 -17 l 190 -17 l 133 -17 m 251 160 l 711 850 q 497 939 629 939 q 345 899 411 939 q 242 791 279 858 q 188 647 206 724 q 171 486 171 569 q 251 160 171 279 m 497 33 q 649 74 583 33 q 752 181 715 114 q 806 326 789 249 q 824 486 824 403 q 743 811 824 692 l 282 121 q 497 33 363 33 z "},"Ù":{"ha":914,"x_min":147,"x_max":767,"o":"m 482 1063 l 247 1279 l 324 1279 l 533 1063 l 482 1063 m 767 346 q 457 -17 767 -17 q 147 346 147 -17 l 147 972 l 197 972 l 197 349 q 457 31 197 31 q 717 349 717 31 l 717 972 l 767 972 l 767 346 z "},"Ú":{"ha":914,"x_min":147,"x_max":767,"o":"m 372 1063 l 582 1279 l 658 1279 l 424 1063 l 372 1063 m 767 346 q 457 -17 767 -17 q 147 346 147 -17 l 147 972 l 197 972 l 197 349 q 457 31 197 31 q 717 349 717 31 l 717 972 l 767 972 l 767 346 z "},"Û":{"ha":914,"x_min":147,"x_max":767,"o":"m 636 1063 l 456 1229 l 275 1063 l 224 1063 l 433 1279 l 478 1279 l 688 1063 l 636 1063 m 767 346 q 457 -17 767 -17 q 147 346 147 -17 l 147 972 l 197 972 l 197 349 q 457 31 197 31 q 717 349 717 31 l 717 972 l 767 972 l 767 346 z "},"Ü":{"ha":914,"x_min":147,"x_max":767,"o":"m 342 1104 q 313 1116 325 1104 q 301 1144 301 1128 q 313 1175 301 1163 q 342 1188 325 1188 q 371 1175 360 1188 q 382 1144 382 1163 q 371 1116 382 1128 q 342 1104 360 1104 m 572 1104 q 544 1116 556 1104 q 532 1144 532 1128 q 544 1175 532 1163 q 572 1188 556 1188 q 601 1175 590 1188 q 613 1144 613 1163 q 601 1116 613 1128 q 572 1104 590 1104 m 767 346 q 457 -17 767 -17 q 147 346 147 -17 l 147 972 l 197 972 l 197 349 q 457 31 197 31 q 717 349 717 31 l 717 972 l 767 972 l 767 346 z "},"Ý":{"ha":833,"x_min":75,"x_max":758,"o":"m 313 1063 l 522 1279 l 599 1279 l 364 1063 l 313 1063 m 392 0 l 392 385 l 75 972 l 129 972 l 417 436 l 704 972 l 758 972 l 442 385 l 442 0 l 392 0 z "},"Þ":{"ha":832,"x_min":153,"x_max":763,"o":"m 153 0 l 153 972 l 203 972 l 203 779 l 456 779 q 690 697 617 779 q 763 493 763 615 q 746 394 763 442 q 694 303 729 346 q 598 234 660 260 q 456 208 536 208 l 203 208 l 203 0 l 153 0 m 457 258 q 647 329 585 258 q 708 493 708 400 q 649 661 708 593 q 457 729 589 729 l 203 729 l 203 258 l 457 258 z "},"ß":{"ha":781,"x_min":132,"x_max":683,"o":"m 132 -269 l 132 675 q 206 912 132 835 q 386 989 281 989 q 566 921 499 989 q 633 742 633 853 q 597 608 633 668 q 472 531 560 547 q 629 441 575 514 q 683 276 683 368 q 608 61 683 139 q 418 -17 533 -17 q 336 -4 368 -17 l 361 39 q 418 33 383 33 q 567 96 506 33 q 629 276 629 158 q 569 438 629 372 q 379 504 508 504 l 374 504 l 374 550 l 379 550 q 526 597 472 550 q 579 742 579 644 q 531 888 579 836 q 386 939 482 939 q 238 873 294 939 q 182 675 182 807 l 182 -244 l 132 -269 z "},"à":{"ha":718,"x_min":101,"x_max":603,"o":"m 410 800 l 175 1017 l 251 1017 l 461 800 l 410 800 m 553 0 l 553 111 q 451 17 511 51 q 328 -17 392 -17 q 162 44 222 -17 q 101 214 101 104 q 169 381 101 324 q 344 439 238 439 q 553 371 449 439 l 553 476 q 506 636 553 592 q 379 681 458 681 q 165 613 279 681 l 150 656 q 383 726 272 726 q 460 717 425 726 q 530 683 496 707 q 583 611 564 658 q 603 497 603 564 l 603 0 l 553 0 m 328 29 q 553 169 450 29 l 553 324 q 344 393 449 393 q 210 347 265 393 q 156 214 156 300 q 202 80 156 131 q 328 29 249 29 z "},"á":{"ha":718,"x_min":101,"x_max":603,"o":"m 296 800 l 506 1017 l 582 1017 l 347 800 l 296 800 m 553 0 l 553 111 q 451 17 511 51 q 328 -17 392 -17 q 162 44 222 -17 q 101 214 101 104 q 169 381 101 324 q 344 439 238 439 q 553 371 449 439 l 553 476 q 506 636 553 592 q 379 681 458 681 q 165 613 279 681 l 150 656 q 383 726 272 726 q 460 717 425 726 q 530 683 496 707 q 583 611 564 658 q 603 497 603 564 l 603 0 l 553 0 m 328 29 q 553 169 450 29 l 553 324 q 344 393 449 393 q 210 347 265 393 q 156 214 156 300 q 202 80 156 131 q 328 29 249 29 z "},"â":{"ha":718,"x_min":101,"x_max":611,"o":"m 560 800 l 379 967 l 199 800 l 147 800 l 357 1017 l 401 1017 l 611 800 l 560 800 m 553 0 l 553 111 q 451 17 511 51 q 328 -17 392 -17 q 162 44 222 -17 q 101 214 101 104 q 169 381 101 324 q 344 439 238 439 q 553 371 449 439 l 553 476 q 506 636 553 592 q 379 681 458 681 q 165 613 279 681 l 150 656 q 383 726 272 726 q 460 717 425 726 q 530 683 496 707 q 583 611 564 658 q 603 497 603 564 l 603 0 l 553 0 m 328 29 q 553 169 450 29 l 553 324 q 344 393 449 393 q 210 347 265 393 q 156 214 156 300 q 202 80 156 131 q 328 29 249 29 z "},"ã":{"ha":718,"x_min":101,"x_max":608,"o":"m 489 836 q 368 892 442 836 q 258 949 294 949 q 186 842 190 949 l 149 842 q 179 953 149 911 q 268 994 210 994 q 389 938 315 994 q 499 882 463 882 q 571 989 567 882 l 608 989 q 578 878 608 919 q 489 836 547 836 m 553 0 l 553 111 q 451 17 511 51 q 328 -17 392 -17 q 162 44 222 -17 q 101 214 101 104 q 169 381 101 324 q 344 439 238 439 q 553 371 449 439 l 553 476 q 506 636 553 592 q 379 681 458 681 q 165 613 279 681 l 150 656 q 383 726 272 726 q 460 717 425 726 q 530 683 496 707 q 583 611 564 658 q 603 497 603 564 l 603 0 l 553 0 m 328 29 q 553 169 450 29 l 553 324 q 344 393 449 393 q 210 347 265 393 q 156 214 156 300 q 202 80 156 131 q 328 29 249 29 z "},"ä":{"ha":718,"x_min":101,"x_max":603,"o":"m 265 842 q 237 853 249 842 q 225 882 225 865 q 237 913 225 900 q 265 925 249 925 q 294 913 283 925 q 306 882 306 900 q 294 853 306 865 q 265 842 283 842 m 496 842 q 467 853 479 842 q 456 882 456 865 q 467 913 456 900 q 496 925 479 925 q 525 913 514 925 q 536 882 536 900 q 525 853 536 865 q 496 842 514 842 m 553 0 l 553 111 q 451 17 511 51 q 328 -17 392 -17 q 162 44 222 -17 q 101 214 101 104 q 169 381 101 324 q 344 439 238 439 q 553 371 449 439 l 553 476 q 506 636 553 592 q 379 681 458 681 q 165 613 279 681 l 150 656 q 383 726 272 726 q 460 717 425 726 q 530 683 496 707 q 583 611 564 658 q 603 497 603 564 l 603 0 l 553 0 m 328 29 q 553 169 450 29 l 553 324 q 344 393 449 393 q 210 347 265 393 q 156 214 156 300 q 202 80 156 131 q 328 29 249 29 z "},"å":{"ha":718,"x_min":101,"x_max":603,"o":"m 500 844 q 476 822 500 844 q 388 799 453 799 q 275 844 322 799 q 228 954 228 890 q 275 1065 228 1018 q 388 1111 322 1111 q 500 1065 453 1111 q 547 954 547 1018 q 500 844 547 890 m 386 842 q 467 874 433 842 q 500 954 500 907 q 467 1035 500 1003 q 386 1068 433 1068 q 308 1035 340 1068 q 275 954 275 1003 q 308 874 275 907 q 386 842 340 842 m 553 0 l 553 111 q 451 17 511 51 q 328 -17 392 -17 q 162 44 222 -17 q 101 214 101 104 q 169 381 101 324 q 344 439 238 439 q 553 371 449 439 l 553 476 q 506 636 553 592 q 379 681 458 681 q 165 613 279 681 l 150 656 q 383 726 272 726 q 460 717 425 726 q 530 683 496 707 q 583 611 564 658 q 603 497 603 564 l 603 0 l 553 0 m 328 29 q 553 169 450 29 l 553 324 q 344 393 449 393 q 210 347 265 393 q 156 214 156 300 q 202 80 156 131 q 328 29 249 29 z "},"æ":{"ha":1175,"x_min":101,"x_max":1094,"o":"m 328 -17 q 162 44 222 -17 q 101 214 101 104 q 169 381 101 324 q 344 439 238 439 q 553 371 449 439 l 553 476 q 506 636 553 592 q 379 681 458 681 q 165 613 279 681 l 150 656 q 383 726 272 726 q 594 554 572 726 q 690 683 625 639 q 838 726 754 726 q 1026 634 957 726 q 1094 356 1094 542 l 1094 340 l 607 340 q 842 33 617 33 q 1008 93 935 33 l 1038 57 q 838 -17 951 -17 q 589 151 658 -17 q 465 24 536 65 q 328 -17 394 -17 m 607 386 l 1042 386 q 979 615 1040 550 q 838 681 918 681 q 676 609 738 681 q 607 386 615 538 m 328 29 q 571 201 471 29 q 553 324 557 249 q 344 393 449 393 q 210 347 265 393 q 156 214 156 300 q 202 80 156 131 q 328 29 249 29 z "},"ç":{"ha":657,"x_min":94,"x_max":576,"o":"m 440 -289 q 422 -307 440 -289 q 342 -325 404 -325 q 243 -286 279 -325 l 278 -261 q 340 -285 307 -285 q 406 -261 382 -285 q 429 -200 429 -237 q 403 -140 429 -164 q 339 -117 378 -117 q 286 -128 308 -117 l 272 -111 l 340 -17 q 160 85 226 -12 q 94 354 94 182 q 165 628 94 529 q 360 726 236 726 q 486 688 432 726 q 567 578 540 649 l 517 558 q 456 645 497 614 q 360 676 414 676 q 149 354 149 676 q 203 119 149 204 q 350 33 257 33 q 461 69 414 33 q 526 164 508 104 l 576 146 q 503 35 556 78 q 379 -14 451 -7 l 340 -82 q 442 -117 407 -82 q 476 -199 476 -151 q 440 -289 476 -253 z "},"è":{"ha":724,"x_min":94,"x_max":636,"o":"m 404 800 l 169 1017 l 246 1017 l 456 800 l 404 800 m 379 -17 q 169 83 244 -17 q 94 356 94 182 q 174 628 94 529 q 379 726 253 726 q 567 634 499 726 q 636 356 636 542 l 636 340 l 149 340 q 383 33 158 33 q 550 93 476 33 l 579 57 q 379 -17 493 -17 m 149 386 l 583 386 q 521 614 582 547 q 379 681 460 681 q 219 608 281 681 q 149 386 157 535 z "},"é":{"ha":724,"x_min":94,"x_max":636,"o":"m 294 800 l 504 1017 l 581 1017 l 346 800 l 294 800 m 379 -17 q 169 83 244 -17 q 94 356 94 182 q 174 628 94 529 q 379 726 253 726 q 567 634 499 726 q 636 356 636 542 l 636 340 l 149 340 q 383 33 158 33 q 550 93 476 33 l 579 57 q 379 -17 493 -17 m 149 386 l 583 386 q 521 614 582 547 q 379 681 460 681 q 219 608 281 681 q 149 386 157 535 z "},"ê":{"ha":724,"x_min":94,"x_max":636,"o":"m 558 800 l 378 967 l 197 800 l 146 800 l 356 1017 l 400 1017 l 610 800 l 558 800 m 379 -17 q 169 83 244 -17 q 94 356 94 182 q 174 628 94 529 q 379 726 253 726 q 567 634 499 726 q 636 356 636 542 l 636 340 l 149 340 q 383 33 158 33 q 550 93 476 33 l 579 57 q 379 -17 493 -17 m 149 386 l 583 386 q 521 614 582 547 q 379 681 460 681 q 219 608 281 681 q 149 386 157 535 z "},"ë":{"ha":724,"x_min":94,"x_max":636,"o":"m 264 842 q 235 853 247 842 q 224 882 224 865 q 235 913 224 900 q 264 925 247 925 q 293 913 282 925 q 304 882 304 900 q 293 853 304 865 q 264 842 282 842 m 494 842 q 466 853 478 842 q 454 882 454 865 q 466 913 454 900 q 494 925 478 925 q 524 913 513 925 q 535 882 535 900 q 524 853 535 865 q 494 842 513 842 m 379 -17 q 169 83 244 -17 q 94 356 94 182 q 174 628 94 529 q 379 726 253 726 q 567 634 499 726 q 636 356 636 542 l 636 340 l 149 340 q 383 33 158 33 q 550 93 476 33 l 579 57 q 379 -17 493 -17 m 149 386 l 583 386 q 521 614 582 547 q 379 681 460 681 q 219 608 281 681 q 149 386 157 535 z "},"ì":{"ha":344,"x_min":-22,"x_max":264,"o":"m 213 800 l -22 1017 l 54 1017 l 264 800 l 213 800 m 147 0 l 147 710 l 197 710 l 197 0 l 147 0 z "},"í":{"ha":344,"x_min":81,"x_max":367,"o":"m 81 800 l 290 1017 l 367 1017 l 132 800 l 81 800 m 147 0 l 147 710 l 197 710 l 197 0 l 147 0 z "},"î":{"ha":344,"x_min":-62,"x_max":401,"o":"m 350 800 l 169 967 l -11 800 l -62 800 l 147 1017 l 192 1017 l 401 800 l 350 800 m 147 0 l 147 710 l 197 710 l 197 0 l 147 0 z "},"ï":{"ha":344,"x_min":17,"x_max":328,"o":"m 57 842 q 28 853 40 842 q 17 882 17 865 q 28 913 17 900 q 57 925 40 925 q 86 913 75 925 q 97 882 97 900 q 86 853 97 865 q 57 842 75 842 m 288 842 q 259 853 271 842 q 247 882 247 865 q 259 913 247 900 q 288 925 271 925 q 317 913 306 925 q 328 882 328 900 q 317 853 328 865 q 288 842 306 842 m 147 0 l 147 710 l 197 710 l 197 0 l 147 0 z "},"ð":{"ha":750,"x_min":94,"x_max":656,"o":"m 374 -17 q 171 74 247 -17 q 94 307 94 165 q 174 543 94 453 q 374 633 253 633 q 522 586 463 633 q 601 465 582 539 q 417 851 579 726 l 317 746 l 286 776 l 378 876 q 197 940 299 926 l 197 989 q 413 913 319 968 l 503 1010 l 535 979 l 449 888 q 656 371 656 726 q 581 83 656 183 q 374 -17 507 -17 m 374 33 q 538 110 478 33 q 599 306 599 186 q 536 503 599 424 q 374 583 474 583 q 213 506 276 583 q 149 307 149 428 q 210 110 149 188 q 374 33 271 33 z "},"ñ":{"ha":767,"x_min":143,"x_max":631,"o":"m 507 836 q 386 892 460 836 q 276 949 313 949 q 204 842 208 949 l 167 842 q 197 953 167 911 q 286 994 228 994 q 407 938 333 994 q 517 882 481 882 q 589 989 585 882 l 626 989 q 596 878 626 919 q 507 836 565 836 m 581 0 l 581 443 q 399 679 581 679 q 193 413 193 679 l 193 0 l 143 0 l 143 710 l 193 710 l 193 582 q 279 691 219 656 q 403 726 339 726 q 631 433 631 726 l 631 0 l 581 0 z "},"ò":{"ha":750,"x_min":94,"x_max":656,"o":"m 385 800 l 150 1017 l 226 1017 l 436 800 l 385 800 m 579 83 q 541 33 579 83 q 375 -17 503 -17 q 171 81 247 -17 q 94 354 94 179 q 171 627 94 528 q 375 726 247 726 q 579 628 503 726 q 656 356 656 531 q 579 83 656 182 m 375 33 q 542 118 483 33 q 601 356 601 203 q 543 592 601 508 q 375 676 485 676 q 207 594 265 676 q 149 354 149 511 q 207 117 149 201 q 375 33 265 33 z "},"ó":{"ha":750,"x_min":94,"x_max":656,"o":"m 290 800 l 500 1017 l 576 1017 l 342 800 l 290 800 m 579 83 q 541 33 579 83 q 375 -17 503 -17 q 171 81 247 -17 q 94 354 94 179 q 171 627 94 528 q 375 726 247 726 q 579 628 503 726 q 656 356 656 531 q 579 83 656 182 m 375 33 q 542 118 483 33 q 601 356 601 203 q 543 592 601 508 q 375 676 485 676 q 207 594 265 676 q 149 354 149 511 q 207 117 149 201 q 375 33 265 33 z "},"ô":{"ha":750,"x_min":94,"x_max":656,"o":"m 554 800 l 374 967 l 193 800 l 142 800 l 351 1017 l 396 1017 l 606 800 l 554 800 m 579 83 q 541 33 579 83 q 375 -17 503 -17 q 171 81 247 -17 q 94 354 94 179 q 171 627 94 528 q 375 726 247 726 q 579 628 503 726 q 656 356 656 531 q 579 83 656 182 m 375 33 q 542 118 483 33 q 601 356 601 203 q 543 592 601 508 q 375 676 485 676 q 207 594 265 676 q 149 354 149 511 q 207 117 149 201 q 375 33 265 33 z "},"õ":{"ha":750,"x_min":94,"x_max":656,"o":"m 483 836 q 363 892 436 836 q 253 949 289 949 q 181 842 185 949 l 143 842 q 174 953 143 911 q 263 994 204 994 q 383 938 310 994 q 493 882 457 882 q 565 989 561 882 l 603 989 q 572 878 603 919 q 483 836 542 836 m 579 83 q 541 33 579 83 q 375 -17 503 -17 q 171 81 247 -17 q 94 354 94 179 q 171 627 94 528 q 375 726 247 726 q 579 628 503 726 q 656 356 656 531 q 579 83 656 182 m 375 33 q 542 118 483 33 q 601 356 601 203 q 543 592 601 508 q 375 676 485 676 q 207 594 265 676 q 149 354 149 511 q 207 117 149 201 q 375 33 265 33 z "},"ö":{"ha":750,"x_min":94,"x_max":656,"o":"m 260 842 q 231 853 243 842 q 219 882 219 865 q 231 913 219 900 q 260 925 243 925 q 289 913 278 925 q 300 882 300 900 q 289 853 300 865 q 260 842 278 842 m 490 842 q 462 853 474 842 q 450 882 450 865 q 462 913 450 900 q 490 925 474 925 q 519 913 508 925 q 531 882 531 900 q 519 853 531 865 q 490 842 508 842 m 579 83 q 541 33 579 83 q 375 -17 503 -17 q 171 81 247 -17 q 94 354 94 179 q 171 627 94 528 q 375 726 247 726 q 579 628 503 726 q 656 356 656 531 q 579 83 656 182 m 375 33 q 542 118 483 33 q 601 356 601 203 q 543 592 601 508 q 375 676 485 676 q 207 594 265 676 q 149 354 149 511 q 207 117 149 201 q 375 33 265 33 z "},"÷":{"ha":911,"x_min":129,"x_max":782,"o":"m 451 722 q 423 734 435 722 q 411 763 411 746 q 423 793 411 781 q 451 806 435 806 q 481 793 469 806 q 492 763 492 781 q 481 734 492 746 q 451 722 469 722 m 129 451 l 129 499 l 782 499 l 782 451 l 129 451 m 451 146 q 423 158 435 146 q 411 186 411 169 q 423 217 411 204 q 451 229 435 229 q 481 217 469 229 q 492 186 492 204 q 481 158 492 169 q 451 146 469 146 z "},"ø":{"ha":750,"x_min":88,"x_max":663,"o":"m 663 726 l 588 618 q 656 356 656 519 q 579 83 656 182 q 375 -17 503 -17 q 194 54 268 -17 l 146 -17 l 88 -17 l 163 92 q 94 354 94 190 q 171 627 94 528 q 375 726 247 726 q 556 656 482 726 l 604 726 l 663 726 m 149 354 q 194 138 149 219 l 526 614 q 375 676 468 676 q 207 594 265 676 q 149 354 149 511 m 601 356 q 556 572 601 492 l 224 96 q 375 33 282 33 q 542 118 483 33 q 601 356 601 203 z "},"ù":{"ha":767,"x_min":136,"x_max":624,"o":"m 397 800 l 163 1017 l 239 1017 l 449 800 l 397 800 m 574 0 l 574 119 q 365 -17 513 -17 q 136 276 136 -17 l 136 710 l 186 710 l 186 265 q 368 29 186 29 q 574 297 574 29 l 574 710 l 624 710 l 624 0 l 574 0 z "},"ú":{"ha":767,"x_min":136,"x_max":624,"o":"m 288 800 l 497 1017 l 574 1017 l 339 800 l 288 800 m 574 0 l 574 119 q 365 -17 513 -17 q 136 276 136 -17 l 136 710 l 186 710 l 186 265 q 368 29 186 29 q 574 297 574 29 l 574 710 l 624 710 l 624 0 l 574 0 z "},"û":{"ha":767,"x_min":136,"x_max":624,"o":"m 551 800 l 371 967 l 190 800 l 139 800 l 349 1017 l 393 1017 l 603 800 l 551 800 m 574 0 l 574 119 q 365 -17 513 -17 q 136 276 136 -17 l 136 710 l 186 710 l 186 265 q 368 29 186 29 q 574 297 574 29 l 574 710 l 624 710 l 624 0 l 574 0 z "},"ü":{"ha":767,"x_min":136,"x_max":624,"o":"m 257 842 q 228 853 240 842 q 217 882 217 865 q 228 913 217 900 q 257 925 240 925 q 286 913 275 925 q 297 882 297 900 q 286 853 297 865 q 257 842 275 842 m 488 842 q 459 853 471 842 q 447 882 447 865 q 459 913 447 900 q 488 925 471 925 q 517 913 506 925 q 528 882 528 900 q 517 853 528 865 q 488 842 506 842 m 574 0 l 574 119 q 365 -17 513 -17 q 136 276 136 -17 l 136 710 l 186 710 l 186 265 q 368 29 186 29 q 574 297 574 29 l 574 710 l 624 710 l 624 0 l 574 0 z "},"ý":{"ha":708,"x_min":74,"x_max":635,"o":"m 272 800 l 482 1017 l 558 1017 l 324 800 l 272 800 m 224 -269 l 329 17 l 74 710 l 124 710 l 329 150 l 354 79 l 379 150 l 585 710 l 635 710 l 274 -269 l 224 -269 z "},"þ":{"ha":775,"x_min":143,"x_max":681,"o":"m 400 -17 q 279 19 335 -17 q 193 117 224 56 l 193 -257 l 143 -282 l 143 978 l 193 1003 l 193 607 q 411 726 267 726 q 608 626 535 726 q 681 356 681 525 q 605 81 681 178 q 400 -17 529 -17 m 400 33 q 567 117 508 33 q 626 356 626 201 q 566 590 626 503 q 400 676 506 676 q 281 640 336 676 q 193 540 226 603 l 193 186 q 282 74 228 114 q 400 33 336 33 z "},"ÿ":{"ha":708,"x_min":74,"x_max":635,"o":"m 242 842 q 213 853 225 842 q 201 882 201 865 q 213 913 201 900 q 242 925 225 925 q 271 913 260 925 q 282 882 282 900 q 271 853 282 865 q 242 842 260 842 m 472 842 q 444 853 456 842 q 432 882 432 865 q 444 913 432 900 q 472 925 456 925 q 501 913 490 925 q 513 882 513 900 q 501 853 513 865 q 472 842 490 842 m 224 -269 l 329 17 l 74 710 l 124 710 l 329 150 l 354 79 l 379 150 l 585 710 l 635 710 l 274 -269 l 224 -269 z "},"Ā":{"ha":883,"x_min":90,"x_max":793,"o":"m 210 1128 l 210 1174 l 668 1174 l 668 1128 l 210 1128 m 739 0 l 644 274 l 239 274 l 144 0 l 90 0 l 424 972 l 460 972 l 793 0 l 739 0 m 632 315 l 490 729 q 478 767 489 733 q 456 834 467 801 q 442 885 446 867 q 426 833 438 867 q 404 766 415 799 q 392 729 393 733 l 251 315 l 632 315 z "},"ā":{"ha":718,"x_min":101,"x_max":607,"o":"m 149 865 l 149 911 l 607 911 l 607 865 l 149 865 m 553 0 l 553 111 q 451 17 511 51 q 328 -17 392 -17 q 162 44 222 -17 q 101 214 101 104 q 169 381 101 324 q 344 439 238 439 q 553 371 449 439 l 553 476 q 506 636 553 592 q 379 681 458 681 q 165 613 279 681 l 150 656 q 383 726 272 726 q 460 717 425 726 q 530 683 496 707 q 583 611 564 658 q 603 497 603 564 l 603 0 l 553 0 m 328 29 q 553 169 450 29 l 553 324 q 344 393 449 393 q 210 347 265 393 q 156 214 156 300 q 202 80 156 131 q 328 29 249 29 z "},"Ă":{"ha":883,"x_min":90,"x_max":793,"o":"m 615 1132 q 585 1101 615 1132 q 439 1069 556 1069 q 263 1132 322 1069 q 204 1293 204 1194 l 251 1293 q 304 1161 251 1207 q 439 1115 357 1115 q 574 1161 521 1115 q 626 1293 626 1207 l 674 1293 q 615 1132 674 1194 m 739 0 l 644 274 l 239 274 l 144 0 l 90 0 l 424 972 l 460 972 l 793 0 l 739 0 m 632 315 l 490 729 q 478 767 489 733 q 456 834 467 801 q 442 885 446 867 q 426 833 438 867 q 404 766 415 799 q 392 729 393 733 l 251 315 l 632 315 z "},"ă":{"ha":718,"x_min":101,"x_max":613,"o":"m 553 869 q 524 838 553 869 q 378 807 494 807 q 202 869 261 807 q 143 1031 143 932 l 190 1031 q 243 899 190 944 q 378 853 296 853 q 513 899 460 853 q 565 1031 565 944 l 613 1031 q 553 869 613 932 m 553 0 l 553 111 q 451 17 511 51 q 328 -17 392 -17 q 162 44 222 -17 q 101 214 101 104 q 169 381 101 324 q 344 439 238 439 q 553 371 449 439 l 553 476 q 506 636 553 592 q 379 681 458 681 q 165 613 279 681 l 150 656 q 383 726 272 726 q 460 717 425 726 q 530 683 496 707 q 583 611 564 658 q 603 497 603 564 l 603 0 l 553 0 m 328 29 q 553 169 450 29 l 553 324 q 344 393 449 393 q 210 347 265 393 q 156 214 156 300 q 202 80 156 131 q 328 29 249 29 z "},"Ą":{"ha":883,"x_min":90,"x_max":818,"o":"m 696 -325 q 601 -290 639 -325 q 563 -189 563 -256 q 608 -78 563 -128 q 739 1 653 -28 l 644 274 l 239 274 l 144 0 l 90 0 l 424 972 l 460 972 l 793 0 q 610 -189 610 -60 q 635 -261 610 -237 q 696 -285 661 -285 q 785 -240 744 -285 l 818 -264 q 696 -325 768 -325 m 251 315 l 632 315 l 490 731 q 478 768 489 735 q 456 834 467 801 q 442 885 446 867 q 426 833 438 867 q 404 767 415 799 q 392 731 393 735 l 251 315 z "},"ą":{"ha":718,"x_min":101,"x_max":628,"o":"m 506 -325 q 410 -290 449 -325 q 372 -189 372 -256 q 421 -75 372 -128 q 553 6 469 -22 l 553 111 q 451 17 511 51 q 328 -17 392 -17 q 162 44 222 -17 q 101 214 101 104 q 169 381 101 324 q 344 439 238 439 q 553 371 449 439 l 553 476 q 506 636 553 592 q 379 681 458 681 q 165 613 279 681 l 150 656 q 383 726 272 726 q 460 717 425 726 q 530 683 496 707 q 583 611 564 658 q 603 497 603 564 l 603 0 q 419 -189 419 -64 q 445 -261 419 -237 q 506 -285 471 -285 q 594 -240 554 -285 l 628 -264 q 506 -325 578 -325 m 328 29 q 553 169 450 29 l 553 324 q 344 393 449 393 q 210 347 265 393 q 156 214 156 300 q 202 80 156 131 q 328 29 249 29 z "},"Ć":{"ha":889,"x_min":118,"x_max":785,"o":"m 401 1063 l 611 1279 l 688 1279 l 453 1063 l 401 1063 m 494 -17 q 323 26 397 -17 q 205 140 249 68 q 140 300 161 213 q 118 486 118 388 q 141 674 118 585 q 209 834 164 763 q 327 947 254 906 q 493 989 400 989 q 667 947 604 989 q 771 832 729 904 l 728 807 q 640 903 692 868 q 493 939 588 939 q 256 807 339 939 q 172 486 172 675 q 203 265 172 364 q 308 100 233 167 q 494 33 383 33 q 647 75 585 33 q 739 179 708 117 l 785 161 q 676 34 749 85 q 494 -17 603 -17 z "},"ć":{"ha":657,"x_min":94,"x_max":576,"o":"m 274 800 l 483 1017 l 560 1017 l 325 800 l 274 800 m 350 -17 q 163 81 232 -17 q 94 354 94 179 q 165 628 94 529 q 360 726 236 726 q 486 688 432 726 q 567 578 540 649 l 517 558 q 456 645 497 614 q 360 676 414 676 q 149 354 149 676 q 203 119 149 204 q 350 33 257 33 q 461 69 414 33 q 526 164 508 104 l 576 146 q 492 27 553 71 q 350 -17 432 -17 z "},"Ĉ":{"ha":889,"x_min":118,"x_max":785,"o":"m 671 1063 l 490 1229 l 310 1063 l 258 1063 l 468 1279 l 513 1279 l 722 1063 l 671 1063 m 494 -17 q 323 26 397 -17 q 205 140 249 68 q 140 300 161 213 q 118 486 118 388 q 141 674 118 585 q 209 834 164 763 q 327 947 254 906 q 493 989 400 989 q 667 947 604 989 q 771 832 729 904 l 728 807 q 640 903 692 868 q 493 939 588 939 q 256 807 339 939 q 172 486 172 675 q 203 265 172 364 q 308 100 233 167 q 494 33 383 33 q 647 75 585 33 q 739 179 708 117 l 785 161 q 676 34 749 85 q 494 -17 603 -17 z "},"ĉ":{"ha":657,"x_min":94,"x_max":589,"o":"m 538 800 l 357 967 l 176 800 l 125 800 l 335 1017 l 379 1017 l 589 800 l 538 800 m 350 -17 q 163 81 232 -17 q 94 354 94 179 q 165 628 94 529 q 360 726 236 726 q 486 688 432 726 q 567 578 540 649 l 517 558 q 456 645 497 614 q 360 676 414 676 q 149 354 149 676 q 203 119 149 204 q 350 33 257 33 q 461 69 414 33 q 526 164 508 104 l 576 146 q 492 27 553 71 q 350 -17 432 -17 z "},"Ċ":{"ha":889,"x_min":118,"x_max":785,"o":"m 492 1104 q 463 1116 475 1104 q 451 1144 451 1128 q 463 1175 451 1163 q 492 1188 475 1188 q 521 1175 510 1188 q 532 1144 532 1163 q 521 1116 532 1128 q 492 1104 510 1104 m 494 -17 q 323 26 397 -17 q 205 140 249 68 q 140 300 161 213 q 118 486 118 388 q 141 674 118 585 q 209 834 164 763 q 327 947 254 906 q 493 989 400 989 q 667 947 604 989 q 771 832 729 904 l 728 807 q 640 903 692 868 q 493 939 588 939 q 256 807 339 939 q 172 486 172 675 q 203 265 172 364 q 308 100 233 167 q 494 33 383 33 q 647 75 585 33 q 739 179 708 117 l 785 161 q 676 34 749 85 q 494 -17 603 -17 z "},"ċ":{"ha":657,"x_min":94,"x_max":576,"o":"m 358 842 q 330 853 342 842 q 318 882 318 865 q 330 913 318 900 q 358 925 342 925 q 388 913 376 925 q 399 882 399 900 q 388 853 399 865 q 358 842 376 842 m 350 -17 q 163 81 232 -17 q 94 354 94 179 q 165 628 94 529 q 360 726 236 726 q 486 688 432 726 q 567 578 540 649 l 517 558 q 456 645 497 614 q 360 676 414 676 q 149 354 149 676 q 203 119 149 204 q 350 33 257 33 q 461 69 414 33 q 526 164 508 104 l 576 146 q 492 27 553 71 q 350 -17 432 -17 z "},"Č":{"ha":889,"x_min":118,"x_max":785,"o":"m 514 1063 l 469 1063 l 260 1279 l 311 1279 l 492 1113 l 672 1279 l 724 1279 l 514 1063 m 494 -17 q 323 26 397 -17 q 205 140 249 68 q 140 300 161 213 q 118 486 118 388 q 141 674 118 585 q 209 834 164 763 q 327 947 254 906 q 493 989 400 989 q 667 947 604 989 q 771 832 729 904 l 728 807 q 640 903 692 868 q 493 939 588 939 q 256 807 339 939 q 172 486 172 675 q 203 265 172 364 q 308 100 233 167 q 494 33 383 33 q 647 75 585 33 q 739 179 708 117 l 785 161 q 676 34 749 85 q 494 -17 603 -17 z "},"č":{"ha":657,"x_min":94,"x_max":590,"o":"m 381 800 l 336 800 l 126 1017 l 178 1017 l 358 850 l 539 1017 l 590 1017 l 381 800 m 350 -17 q 163 81 232 -17 q 94 354 94 179 q 165 628 94 529 q 360 726 236 726 q 486 688 432 726 q 567 578 540 649 l 517 558 q 456 645 497 614 q 360 676 414 676 q 149 354 149 676 q 203 119 149 204 q 350 33 257 33 q 461 69 414 33 q 526 164 508 104 l 576 146 q 492 27 553 71 q 350 -17 432 -17 z "},"Ď":{"ha":924,"x_min":153,"x_max":806,"o":"m 425 1063 l 381 1063 l 171 1279 l 222 1279 l 403 1113 l 583 1279 l 635 1279 l 425 1063 m 153 972 l 375 972 q 577 931 490 972 q 712 818 664 889 q 783 665 760 747 q 806 486 806 582 q 794 349 806 415 q 751 219 782 283 q 672 106 719 154 q 546 29 624 58 q 369 0 468 0 l 153 0 l 153 972 m 369 50 q 524 76 456 50 q 634 145 592 103 q 703 247 676 188 q 741 364 731 306 q 751 486 751 422 q 740 614 751 553 q 700 732 728 675 q 630 831 672 789 q 522 897 588 872 q 375 922 457 922 l 203 922 l 203 50 l 369 50 z "},"ď":{"ha":911,"x_min":113,"x_max":858,"o":"m 382 -17 q 185 84 257 -17 q 113 356 113 185 q 186 628 113 531 q 393 726 260 726 q 594 606 518 726 l 594 978 l 644 1003 l 644 0 l 594 0 l 594 101 q 382 -17 513 -17 m 858 989 l 858 964 q 781 672 858 769 l 767 683 q 808 989 808 774 l 858 989 m 393 33 q 507 75 451 33 q 594 179 563 117 l 594 533 q 393 676 510 676 q 225 593 283 676 q 167 356 167 510 q 229 126 167 218 q 393 33 292 33 z "},"Đ":{"ha":924,"x_min":56,"x_max":806,"o":"m 153 460 l 56 460 l 56 510 l 153 510 l 153 972 l 375 972 q 577 931 490 972 q 712 818 664 889 q 783 665 760 747 q 806 486 806 582 q 794 349 806 415 q 751 219 782 283 q 672 106 719 154 q 546 29 624 58 q 369 0 468 0 l 153 0 l 153 460 m 369 50 q 524 76 456 50 q 634 145 592 103 q 703 247 676 188 q 741 364 731 306 q 751 486 751 422 q 740 614 751 553 q 700 732 728 675 q 630 831 672 789 q 522 897 588 872 q 375 922 457 922 l 203 922 l 203 510 l 446 510 l 446 460 l 203 460 l 203 50 l 369 50 z "},"đ":{"ha":769,"x_min":94,"x_max":726,"o":"m 626 789 l 626 0 l 576 0 l 576 101 q 364 -17 494 -17 q 167 84 239 -17 q 94 356 94 185 q 168 628 94 531 q 375 726 242 726 q 576 606 500 726 l 576 789 l 376 789 l 376 835 l 576 835 l 576 978 l 626 1003 l 626 835 l 726 835 l 726 789 l 626 789 m 375 35 q 489 76 433 35 q 576 179 544 117 l 576 533 q 375 675 493 675 q 207 592 265 675 q 149 356 149 508 q 211 127 149 219 q 375 35 274 35 z "},"Ē":{"ha":808,"x_min":153,"x_max":690,"o":"m 181 1128 l 181 1174 l 639 1174 l 639 1128 l 181 1128 m 153 0 l 153 972 l 660 972 l 660 926 l 203 926 l 203 526 l 511 526 l 511 481 l 203 481 l 203 46 l 690 46 l 690 0 l 153 0 z "},"ē":{"ha":724,"x_min":94,"x_max":636,"o":"m 147 865 l 147 911 l 606 911 l 606 865 l 147 865 m 379 -17 q 169 83 244 -17 q 94 356 94 182 q 174 628 94 529 q 379 726 253 726 q 567 634 499 726 q 636 356 636 542 l 636 340 l 149 340 q 383 33 158 33 q 550 93 476 33 l 579 57 q 379 -17 493 -17 m 149 386 l 583 386 q 521 614 582 547 q 379 681 460 681 q 219 608 281 681 q 149 386 157 535 z "},"Ĕ":{"ha":808,"x_min":153,"x_max":690,"o":"m 584 1132 q 555 1101 584 1132 q 408 1069 525 1069 q 233 1132 292 1069 q 174 1293 174 1194 l 221 1293 q 274 1161 221 1207 q 408 1115 326 1115 q 543 1161 490 1115 q 596 1293 596 1207 l 643 1293 q 584 1132 643 1194 m 153 0 l 153 972 l 660 972 l 660 926 l 203 926 l 203 526 l 511 526 l 511 481 l 203 481 l 203 46 l 690 46 l 690 0 l 153 0 z "},"ĕ":{"ha":724,"x_min":94,"x_max":636,"o":"m 552 869 q 523 838 552 869 q 376 807 493 807 q 201 869 260 807 q 142 1031 142 932 l 189 1031 q 242 899 189 944 q 376 853 294 853 q 511 899 458 853 q 564 1031 564 944 l 611 1031 q 552 869 611 932 m 379 -17 q 169 83 244 -17 q 94 356 94 182 q 174 628 94 529 q 379 726 253 726 q 567 634 499 726 q 636 356 636 542 l 636 340 l 149 340 q 383 33 158 33 q 550 93 476 33 l 579 57 q 379 -17 493 -17 m 149 386 l 583 386 q 521 614 582 547 q 379 681 460 681 q 219 608 281 681 q 149 386 157 535 z "},"Ė":{"ha":808,"x_min":153,"x_max":690,"o":"m 417 1104 q 388 1116 400 1104 q 376 1144 376 1128 q 388 1175 376 1163 q 417 1188 400 1188 q 446 1175 435 1188 q 457 1144 457 1163 q 446 1116 457 1128 q 417 1104 435 1104 m 153 0 l 153 972 l 660 972 l 660 926 l 203 926 l 203 526 l 511 526 l 511 481 l 203 481 l 203 46 l 690 46 l 690 0 l 153 0 z "},"ė":{"ha":724,"x_min":94,"x_max":636,"o":"m 379 842 q 351 853 363 842 q 339 882 339 865 q 351 913 339 900 q 379 925 363 925 q 408 913 397 925 q 419 882 419 900 q 408 853 419 865 q 379 842 397 842 m 379 -17 q 169 83 244 -17 q 94 356 94 182 q 174 628 94 529 q 379 726 253 726 q 567 634 499 726 q 636 356 636 542 l 636 340 l 149 340 q 383 33 158 33 q 550 93 476 33 l 579 57 q 379 -17 493 -17 m 149 386 l 583 386 q 521 614 582 547 q 379 681 460 681 q 219 608 281 681 q 149 386 157 535 z "},"Ę":{"ha":808,"x_min":153,"x_max":690,"o":"m 525 -325 q 430 -290 468 -325 q 392 -189 392 -256 q 433 -77 392 -129 q 544 0 475 -25 l 153 0 l 153 972 l 660 972 l 660 926 l 203 926 l 203 526 l 511 526 l 511 481 l 203 481 l 203 46 l 690 46 l 690 0 l 650 0 q 501 -57 564 0 q 439 -189 439 -114 q 465 -261 439 -237 q 525 -285 490 -285 q 614 -240 574 -285 l 647 -264 q 525 -325 597 -325 z "},"ę":{"ha":724,"x_min":94,"x_max":636,"o":"m 393 -325 q 298 -290 336 -325 q 260 -189 260 -256 q 292 -92 260 -137 q 379 -17 324 -46 q 169 83 244 -17 q 94 356 94 182 q 174 628 94 529 q 379 726 253 726 q 567 634 499 726 q 636 356 636 542 l 636 340 l 149 340 q 383 33 158 33 q 550 93 476 33 l 579 57 q 450 -12 539 22 q 344 -86 381 -39 q 307 -189 307 -133 q 333 -261 307 -237 q 393 -285 358 -285 q 482 -240 442 -285 l 515 -264 q 393 -325 465 -325 m 379 681 q 218 609 279 681 q 149 386 157 538 l 583 386 q 521 615 582 550 q 379 681 460 681 z "},"Ě":{"ha":808,"x_min":153,"x_max":690,"o":"m 442 1063 l 397 1063 l 188 1279 l 239 1279 l 419 1113 l 600 1279 l 651 1279 l 442 1063 m 153 0 l 153 972 l 660 972 l 660 926 l 203 926 l 203 526 l 511 526 l 511 481 l 203 481 l 203 46 l 690 46 l 690 0 l 153 0 z "},"ě":{"ha":724,"x_min":94,"x_max":636,"o":"m 401 800 l 357 800 l 147 1017 l 199 1017 l 379 850 l 560 1017 l 611 1017 l 401 800 m 379 -17 q 169 83 244 -17 q 94 356 94 182 q 174 628 94 529 q 379 726 253 726 q 567 634 499 726 q 636 356 636 542 l 636 340 l 149 340 q 383 33 158 33 q 550 93 476 33 l 579 57 q 379 -17 493 -17 m 149 386 l 583 386 q 521 614 582 547 q 379 681 460 681 q 219 608 281 681 q 149 386 157 535 z "},"Ĝ":{"ha":946,"x_min":118,"x_max":806,"o":"m 676 1063 l 496 1229 l 315 1063 l 264 1063 l 474 1279 l 518 1279 l 728 1063 l 676 1063 m 497 -17 q 324 26 399 -17 q 205 140 249 68 q 140 300 161 213 q 118 486 118 388 q 141 677 118 589 q 208 836 164 765 q 327 948 253 907 q 497 989 401 989 q 763 856 664 989 l 718 826 q 497 939 638 939 q 346 899 411 939 q 244 791 281 858 q 190 647 207 724 q 172 486 172 569 q 204 264 172 363 q 312 99 236 165 q 497 33 388 33 q 685 119 617 33 q 753 374 753 206 l 753 390 l 549 390 l 549 438 l 806 438 l 806 390 q 722 83 806 183 q 497 -17 639 -17 z "},"ĝ":{"ha":772,"x_min":94,"x_max":629,"o":"m 572 800 l 392 967 l 211 800 l 160 800 l 369 1017 l 414 1017 l 624 800 l 572 800 m 318 -296 l 292 -251 q 513 -188 446 -243 q 579 -26 579 -133 l 579 117 q 367 -17 514 -17 q 173 81 251 -17 q 94 356 94 178 q 171 627 94 528 q 372 726 247 726 q 500 691 446 726 q 579 607 554 656 l 579 710 l 629 710 l 629 -32 q 603 -156 629 -104 q 531 -236 578 -208 q 433 -278 483 -264 q 318 -296 382 -292 m 368 33 q 492 77 436 33 q 579 186 549 121 l 579 540 q 489 641 544 606 q 372 676 433 676 q 206 593 264 676 q 149 356 149 510 q 212 120 149 207 q 368 33 275 33 z "},"Ğ":{"ha":946,"x_min":118,"x_max":806,"o":"m 670 1132 q 641 1101 670 1132 q 494 1069 611 1069 q 319 1132 378 1069 q 260 1293 260 1194 l 307 1293 q 360 1161 307 1207 q 494 1115 413 1115 q 629 1161 576 1115 q 682 1293 682 1207 l 729 1293 q 670 1132 729 1194 m 497 -17 q 324 26 399 -17 q 205 140 249 68 q 140 300 161 213 q 118 486 118 388 q 141 677 118 589 q 208 836 164 765 q 327 948 253 907 q 497 989 401 989 q 763 856 664 989 l 718 826 q 497 939 638 939 q 346 899 411 939 q 244 791 281 858 q 190 647 207 724 q 172 486 172 569 q 204 264 172 363 q 312 99 236 165 q 497 33 388 33 q 685 119 617 33 q 753 374 753 206 l 753 390 l 549 390 l 549 438 l 806 438 l 806 390 q 722 83 806 183 q 497 -17 639 -17 z "},"ğ":{"ha":772,"x_min":94,"x_max":629,"o":"m 569 869 q 539 838 569 869 q 393 807 510 807 q 217 869 276 807 q 158 1031 158 932 l 206 1031 q 258 899 206 944 q 393 853 311 853 q 528 899 475 853 q 581 1031 581 944 l 628 1031 q 569 869 628 932 m 318 -296 l 292 -251 q 513 -188 446 -243 q 579 -26 579 -133 l 579 117 q 367 -17 514 -17 q 173 81 251 -17 q 94 356 94 178 q 171 627 94 528 q 372 726 247 726 q 500 691 446 726 q 579 607 554 656 l 579 710 l 629 710 l 629 -32 q 603 -156 629 -104 q 531 -236 578 -208 q 433 -278 483 -264 q 318 -296 382 -292 m 368 33 q 492 77 436 33 q 579 186 549 121 l 579 540 q 489 641 544 606 q 372 676 433 676 q 206 593 264 676 q 149 356 149 510 q 212 120 149 207 q 368 33 275 33 z "},"Ġ":{"ha":946,"x_min":118,"x_max":806,"o":"m 497 1104 q 469 1116 481 1104 q 457 1144 457 1128 q 469 1175 457 1163 q 497 1188 481 1188 q 526 1175 515 1188 q 538 1144 538 1163 q 526 1116 538 1128 q 497 1104 515 1104 m 497 -17 q 324 26 399 -17 q 205 140 249 68 q 140 300 161 213 q 118 486 118 388 q 141 677 118 589 q 208 836 164 765 q 327 948 253 907 q 497 989 401 989 q 763 856 664 989 l 718 826 q 497 939 638 939 q 346 899 411 939 q 244 791 281 858 q 190 647 207 724 q 172 486 172 569 q 204 264 172 363 q 312 99 236 165 q 497 33 388 33 q 685 119 617 33 q 753 374 753 206 l 753 390 l 549 390 l 549 438 l 806 438 l 806 390 q 722 83 806 183 q 497 -17 639 -17 z "},"ġ":{"ha":772,"x_min":94,"x_max":629,"o":"m 393 842 q 365 853 376 842 q 353 882 353 865 q 365 913 353 900 q 393 925 376 925 q 422 913 411 925 q 433 882 433 900 q 422 853 433 865 q 393 842 411 842 m 318 -296 l 292 -251 q 513 -188 446 -243 q 579 -26 579 -133 l 579 117 q 367 -17 514 -17 q 173 81 251 -17 q 94 356 94 178 q 171 627 94 528 q 372 726 247 726 q 500 691 446 726 q 579 607 554 656 l 579 710 l 629 710 l 629 -32 q 603 -156 629 -104 q 531 -236 578 -208 q 433 -278 483 -264 q 318 -296 382 -292 m 368 33 q 492 77 436 33 q 579 186 549 121 l 579 540 q 489 641 544 606 q 372 676 433 676 q 206 593 264 676 q 149 356 149 510 q 212 120 149 207 q 368 33 275 33 z "},"Ģ":{"ha":946,"x_min":118,"x_max":806,"o":"m 497 -17 q 324 26 399 -17 q 205 140 249 68 q 140 300 161 213 q 118 486 118 388 q 141 677 118 589 q 208 836 164 765 q 327 948 253 907 q 497 989 401 989 q 763 856 664 989 l 718 826 q 497 939 638 939 q 346 899 411 939 q 244 791 281 858 q 190 647 207 724 q 172 486 172 569 q 204 264 172 363 q 312 99 236 165 q 497 33 388 33 q 685 119 617 33 q 753 374 753 206 l 753 390 l 549 390 l 549 438 l 806 438 l 806 390 q 722 83 806 183 q 497 -17 639 -17 m 447 -336 q 492 -164 492 -269 q 460 -153 472 -164 q 447 -124 447 -142 q 459 -93 447 -106 q 488 -81 471 -81 q 533 -144 533 -81 q 510 -256 533 -200 q 460 -340 488 -312 l 447 -336 z "},"ģ":{"ha":772,"x_min":94,"x_max":629,"o":"m 389 838 q 343 901 343 838 q 366 1013 343 957 q 417 1097 389 1069 l 429 1093 q 385 921 385 1026 q 417 910 404 921 q 429 881 429 899 q 417 850 429 863 q 389 838 406 838 m 318 -296 l 292 -251 q 513 -188 446 -243 q 579 -26 579 -133 l 579 117 q 367 -17 514 -17 q 173 81 251 -17 q 94 356 94 178 q 171 627 94 528 q 372 726 247 726 q 500 691 446 726 q 579 607 554 656 l 579 710 l 629 710 l 629 -32 q 603 -156 629 -104 q 531 -236 578 -208 q 433 -278 483 -264 q 318 -296 382 -292 m 368 33 q 492 77 436 33 q 579 186 549 121 l 579 540 q 489 641 544 606 q 372 676 433 676 q 206 593 264 676 q 149 356 149 510 q 212 120 149 207 q 368 33 275 33 z "},"Ĥ":{"ha":928,"x_min":153,"x_max":775,"o":"m 643 1063 l 463 1229 l 282 1063 l 231 1063 l 440 1279 l 485 1279 l 694 1063 l 643 1063 m 725 0 l 725 482 l 203 482 l 203 0 l 153 0 l 153 972 l 203 972 l 203 529 l 725 529 l 725 972 l 775 972 l 775 0 l 725 0 z "},"ĥ":{"ha":767,"x_min":143,"x_max":631,"o":"m 578 1063 l 397 1229 l 217 1063 l 165 1063 l 375 1279 l 419 1279 l 629 1063 l 578 1063 m 143 0 l 143 978 l 193 1003 l 193 582 q 279 691 219 656 q 403 726 339 726 q 631 433 631 726 l 631 0 l 581 0 l 581 444 q 399 679 581 679 q 193 413 193 679 l 193 0 l 143 0 z "},"Ħ":{"ha":928,"x_min":38,"x_max":890,"o":"m 725 0 l 725 482 l 203 482 l 203 0 l 153 0 l 153 761 l 38 761 l 38 808 l 153 808 l 153 972 l 203 972 l 203 808 l 725 808 l 725 972 l 775 972 l 775 808 l 890 808 l 890 761 l 775 761 l 775 0 l 725 0 m 725 529 l 725 761 l 203 761 l 203 529 l 725 529 z "},"ħ":{"ha":767,"x_min":49,"x_max":631,"o":"m 143 0 l 143 763 l 49 763 l 49 808 l 143 808 l 143 978 l 193 1003 l 193 808 l 406 808 l 406 763 l 193 763 l 193 535 q 279 644 219 608 q 403 679 339 679 q 631 386 631 679 l 631 0 l 581 0 l 581 397 q 399 632 581 632 q 193 365 193 632 l 193 0 l 143 0 z "},"Ĩ":{"ha":356,"x_min":-54,"x_max":406,"o":"m 286 1099 q 165 1155 239 1099 q 56 1211 92 1211 q -17 1104 -12 1211 l -54 1104 q -24 1215 -54 1174 q 65 1257 7 1257 q 186 1201 113 1257 q 296 1144 260 1144 q 368 1251 364 1144 l 406 1251 q 375 1140 406 1182 q 286 1099 344 1099 m 153 0 l 153 972 l 203 972 l 203 0 l 153 0 z "},"ĩ":{"ha":344,"x_min":-60,"x_max":400,"o":"m 281 836 q 160 892 233 836 q 50 949 86 949 q -22 842 -18 949 l -60 842 q -29 953 -60 911 q 60 994 1 994 q 181 938 107 994 q 290 882 254 882 q 363 989 358 882 l 400 989 q 369 878 400 919 q 281 836 339 836 m 147 0 l 147 710 l 197 710 l 197 0 l 147 0 z "},"Ī":{"ha":356,"x_min":-54,"x_max":404,"o":"m -54 1128 l -54 1174 l 404 1174 l 404 1128 l -54 1128 m 153 0 l 153 972 l 203 972 l 203 0 l 153 0 z "},"ī":{"ha":344,"x_min":-60,"x_max":399,"o":"m -60 865 l -60 911 l 399 911 l 399 865 l -60 865 m 147 0 l 147 710 l 197 710 l 197 0 l 147 0 z "},"Ĭ":{"ha":356,"x_min":-60,"x_max":410,"o":"m 351 1132 q 321 1101 351 1132 q 175 1069 292 1069 q -1 1132 58 1069 q -60 1293 -60 1194 l -12 1293 q 40 1161 -12 1207 q 175 1115 93 1115 q 310 1161 257 1115 q 363 1293 363 1207 l 410 1293 q 351 1132 410 1194 m 153 0 l 153 972 l 203 972 l 203 0 l 153 0 z "},"ĭ":{"ha":344,"x_min":-65,"x_max":404,"o":"m 345 869 q 316 838 345 869 q 169 807 286 807 q -6 869 53 807 q -65 1031 -65 932 l -18 1031 q 35 899 -18 944 q 169 853 88 853 q 304 899 251 853 q 357 1031 357 944 l 404 1031 q 345 869 404 932 m 147 0 l 147 710 l 197 710 l 197 0 l 147 0 z "},"Į":{"ha":356,"x_min":42,"x_max":297,"o":"m 175 -325 q 80 -290 118 -325 q 42 -189 42 -256 q 70 -87 42 -142 q 153 4 99 -32 l 153 972 l 203 972 l 203 0 q 89 -189 89 -68 q 115 -261 89 -237 q 175 -285 140 -285 q 264 -240 224 -285 l 297 -264 q 175 -325 247 -325 z "},"į":{"ha":344,"x_min":36,"x_max":292,"o":"m 172 879 q 144 891 156 879 q 132 919 132 903 q 144 950 132 938 q 172 963 156 963 q 201 950 190 963 q 213 919 213 938 q 201 891 213 903 q 172 879 190 879 m 169 -325 q 74 -290 113 -325 q 36 -189 36 -256 q 65 -87 36 -142 q 147 4 93 -32 l 147 710 l 197 710 l 197 0 q 83 -189 83 -68 q 109 -261 83 -237 q 169 -285 135 -285 q 258 -240 218 -285 l 292 -264 q 169 -325 242 -325 z "},"İ":{"ha":356,"x_min":138,"x_max":218,"o":"m 178 1104 q 149 1116 161 1104 q 138 1144 138 1128 q 149 1175 138 1163 q 178 1188 161 1188 q 207 1175 196 1188 q 218 1144 218 1163 q 207 1116 218 1128 q 178 1104 196 1104 m 153 0 l 153 972 l 203 972 l 203 0 l 153 0 z "},"ı":{"ha":344,"x_min":147,"x_max":197,"o":"m 147 0 l 147 710 l 197 710 l 197 0 l 147 0 z "},"Ĳ":{"ha":1108,"x_min":153,"x_max":961,"o":"m 153 0 l 153 972 l 203 972 l 203 0 l 153 0 m 675 -17 q 516 25 575 -17 q 422 149 457 67 l 464 171 q 675 31 526 31 q 756 43 718 31 q 831 85 794 56 q 890 172 868 114 q 911 310 911 229 l 911 972 l 961 972 l 961 313 q 935 150 961 218 q 865 48 908 82 q 774 -1 821 14 q 675 -17 728 -17 z "},"ĳ":{"ha":689,"x_min":132,"x_max":557,"o":"m 172 879 q 144 891 156 879 q 132 919 132 903 q 144 950 132 938 q 172 963 156 963 q 201 950 190 963 q 213 919 213 938 q 201 891 213 903 q 172 879 190 879 m 517 879 q 488 891 500 879 q 476 919 476 903 q 488 950 476 938 q 517 963 500 963 q 546 950 535 963 q 557 919 557 938 q 546 891 557 903 q 517 879 535 879 m 147 0 l 147 710 l 197 710 l 197 0 l 147 0 m 344 -296 l 319 -253 q 451 -203 410 -246 q 493 -71 493 -161 l 493 710 l 543 710 l 543 -68 q 489 -237 543 -181 q 344 -296 440 -286 z "},"Ĵ":{"ha":739,"x_min":53,"x_max":797,"o":"m 746 1063 l 565 1229 l 385 1063 l 333 1063 l 543 1279 l 588 1279 l 797 1063 l 746 1063 m 306 -17 q 147 25 206 -17 q 53 149 88 67 l 94 171 q 306 31 157 31 q 387 43 349 31 q 462 85 425 56 q 520 172 499 114 q 542 310 542 229 l 542 972 l 592 972 l 592 313 q 565 150 592 218 q 495 48 539 82 q 405 -1 451 14 q 306 -17 358 -17 z "},"ĵ":{"ha":344,"x_min":-57,"x_max":407,"o":"m 356 800 l 175 967 l -6 800 l -57 800 l 153 1017 l 197 1017 l 407 800 l 356 800 m 0 -296 l -25 -253 q 107 -203 65 -246 q 149 -71 149 -161 l 149 710 l 199 710 l 199 -68 q 144 -237 199 -181 q 0 -296 96 -286 z "},"Ķ":{"ha":860,"x_min":153,"x_max":772,"o":"m 714 0 l 388 599 l 203 367 l 203 0 l 153 0 l 153 972 l 203 972 l 203 440 l 625 972 l 685 972 l 422 642 l 772 0 l 714 0 m 390 -336 q 435 -164 435 -269 q 403 -153 415 -164 q 390 -124 390 -142 q 402 -93 390 -106 q 431 -81 414 -81 q 476 -144 476 -81 q 453 -256 476 -200 q 403 -340 431 -312 l 390 -336 z "},"ķ":{"ha":699,"x_min":143,"x_max":646,"o":"m 646 0 l 589 0 l 344 476 l 193 315 l 193 0 l 143 0 l 143 978 l 193 1003 l 193 378 l 496 710 l 558 710 l 381 515 l 646 0 m 310 -336 q 354 -164 354 -269 q 322 -153 335 -164 q 310 -124 310 -142 q 322 -93 310 -106 q 350 -81 333 -81 q 396 -144 396 -81 q 373 -256 396 -200 q 322 -340 350 -312 l 310 -336 z "},"ĸ":{"ha":717,"x_min":143,"x_max":664,"o":"m 608 0 l 390 408 l 193 160 l 193 0 l 143 0 l 143 710 l 193 710 l 193 235 l 564 710 l 628 710 l 424 450 l 664 0 l 608 0 z "},"Ĺ":{"ha":740,"x_min":94,"x_max":685,"o":"m 94 1063 l 304 1279 l 381 1279 l 146 1063 l 94 1063 m 153 0 l 153 972 l 203 972 l 203 46 l 685 46 l 685 0 l 153 0 z "},"ĺ":{"ha":336,"x_min":83,"x_max":369,"o":"m 83 1050 l 293 1267 l 369 1267 l 135 1050 l 83 1050 m 143 0 l 143 978 l 193 1003 l 193 0 l 143 0 z "},"Ļ":{"ha":740,"x_min":153,"x_max":685,"o":"m 153 0 l 153 972 l 203 972 l 203 46 l 685 46 l 685 0 l 153 0 m 378 -336 q 422 -164 422 -269 q 390 -153 403 -164 q 378 -124 378 -142 q 390 -93 378 -106 q 418 -81 401 -81 q 464 -144 464 -81 q 441 -256 464 -200 q 390 -340 418 -312 l 378 -336 z "},"ļ":{"ha":336,"x_min":128,"x_max":214,"o":"m 143 0 l 143 978 l 193 1003 l 193 0 l 143 0 m 128 -336 q 172 -164 172 -269 q 140 -153 153 -164 q 128 -124 128 -142 q 140 -93 128 -106 q 168 -81 151 -81 q 214 -144 214 -81 q 191 -256 214 -200 q 140 -340 168 -312 l 128 -336 z "},"Ľ":{"ha":740,"x_min":-53,"x_max":685,"o":"m 201 1063 l 157 1063 l -53 1279 l -1 1279 l 179 1113 l 360 1279 l 411 1279 l 201 1063 m 153 0 l 153 972 l 203 972 l 203 46 l 685 46 l 685 0 l 153 0 z "},"ľ":{"ha":476,"x_min":161,"x_max":460,"o":"m 161 0 l 161 978 l 211 1003 l 211 0 l 161 0 m 460 989 l 460 964 q 382 672 460 769 l 368 683 q 410 989 410 774 l 460 989 z "},"Ŀ":{"ha":740,"x_min":153,"x_max":685,"o":"m 153 0 l 153 972 l 203 972 l 203 46 l 685 46 l 685 0 l 153 0 m 550 418 q 522 430 533 418 q 510 458 510 442 q 522 489 510 476 q 550 501 533 501 q 579 489 568 501 q 590 458 590 476 q 579 430 590 442 q 550 418 568 418 z "},"ŀ":{"ha":464,"x_min":161,"x_max":450,"o":"m 161 0 l 161 978 l 211 1003 l 211 0 l 161 0 m 410 371 q 381 383 393 371 q 369 411 369 394 q 381 442 369 429 q 410 454 393 454 q 439 442 428 454 q 450 411 450 429 q 439 383 450 394 q 410 371 428 371 z "},"Ł":{"ha":740,"x_min":49,"x_max":685,"o":"m 153 0 l 153 415 l 49 335 l 49 390 l 153 471 l 153 972 l 203 972 l 203 510 l 381 647 l 381 592 l 203 453 l 203 46 l 685 46 l 685 0 l 153 0 z "},"ł":{"ha":338,"x_min":39,"x_max":299,"o":"m 136 0 l 136 407 l 39 332 l 39 386 l 136 461 l 136 978 l 186 1003 l 186 499 l 299 585 l 299 531 l 186 444 l 186 0 l 136 0 z "},"Ń":{"ha":946,"x_min":153,"x_max":793,"o":"m 400 1064 l 610 1281 l 686 1281 l 451 1064 l 400 1064 m 793 0 l 744 0 l 246 807 l 203 878 l 203 807 l 203 0 l 153 0 l 153 972 l 201 972 l 700 165 l 743 94 l 743 165 l 743 972 l 793 972 l 793 0 z "},"ń":{"ha":767,"x_min":143,"x_max":631,"o":"m 314 800 l 524 1017 l 600 1017 l 365 800 l 314 800 m 581 0 l 581 443 q 399 679 581 679 q 193 413 193 679 l 193 0 l 143 0 l 143 710 l 193 710 l 193 582 q 279 691 219 656 q 403 726 339 726 q 631 433 631 726 l 631 0 l 581 0 z "},"Ņ":{"ha":946,"x_min":153,"x_max":793,"o":"m 793 0 l 744 0 l 246 807 l 203 878 l 203 807 l 203 0 l 153 0 l 153 972 l 201 972 l 700 165 l 743 94 l 743 165 l 743 972 l 793 972 l 793 0 m 433 -336 q 478 -164 478 -269 q 446 -153 458 -164 q 433 -124 433 -142 q 445 -93 433 -106 q 474 -81 457 -81 q 519 -144 519 -81 q 497 -256 519 -200 q 446 -340 474 -312 l 433 -336 z "},"ņ":{"ha":767,"x_min":143,"x_max":631,"o":"m 581 0 l 581 443 q 399 679 581 679 q 193 413 193 679 l 193 0 l 143 0 l 143 710 l 193 710 l 193 582 q 279 691 219 656 q 403 726 339 726 q 631 433 631 726 l 631 0 l 581 0 m 343 -336 q 388 -164 388 -269 q 356 -153 368 -164 q 343 -124 343 -142 q 355 -93 343 -106 q 383 -81 367 -81 q 429 -144 429 -81 q 406 -256 429 -200 q 356 -340 383 -312 l 343 -336 z "},"Ň":{"ha":946,"x_min":153,"x_max":793,"o":"m 496 1063 l 451 1063 l 242 1279 l 293 1279 l 474 1113 l 654 1279 l 706 1279 l 496 1063 m 793 0 l 744 0 l 246 807 l 203 878 l 203 807 l 203 0 l 153 0 l 153 972 l 201 972 l 700 165 l 743 94 l 743 165 l 743 972 l 793 972 l 793 0 z "},"ň":{"ha":767,"x_min":143,"x_max":631,"o":"m 421 800 l 376 800 l 167 1017 l 218 1017 l 399 850 l 579 1017 l 631 1017 l 421 800 m 581 0 l 581 443 q 399 679 581 679 q 193 413 193 679 l 193 0 l 143 0 l 143 710 l 193 710 l 193 582 q 279 691 219 656 q 403 726 339 726 q 631 433 631 726 l 631 0 l 581 0 z "},"ŉ":{"ha":1011,"x_min":118,"x_max":893,"o":"m 118 733 q 163 906 163 800 q 131 917 143 906 q 118 946 118 928 q 130 976 118 964 q 158 989 142 989 q 204 925 204 989 q 181 813 204 869 q 131 729 158 757 l 118 733 m 843 0 l 843 443 q 661 679 843 679 q 456 413 456 679 l 456 0 l 406 0 l 406 710 l 456 710 l 456 582 q 542 691 482 656 q 665 726 601 726 q 893 433 893 726 l 893 0 l 843 0 z "},"Ŋ":{"ha":946,"x_min":153,"x_max":793,"o":"m 594 -339 l 569 -296 q 701 -247 660 -289 q 743 -114 743 -204 l 743 1 l 246 806 q 203 878 219 847 l 203 807 l 203 0 l 153 0 l 153 972 l 201 972 l 700 165 l 743 94 l 743 165 l 743 972 l 793 972 l 793 -111 q 739 -279 793 -225 q 594 -339 693 -329 z "},"ŋ":{"ha":767,"x_min":143,"x_max":631,"o":"m 432 -296 l 407 -253 q 539 -203 497 -246 q 581 -71 581 -161 l 581 443 q 399 679 581 679 q 193 413 193 679 l 193 0 l 143 0 l 143 710 l 193 710 l 193 582 q 279 691 219 656 q 403 726 339 726 q 631 433 631 726 l 631 -68 q 576 -237 631 -181 q 432 -296 528 -286 z "},"Ō":{"ha":994,"x_min":118,"x_max":876,"o":"m 265 1128 l 265 1174 l 724 1174 l 724 1128 l 265 1128 m 673 27 q 635 5 673 27 q 497 -17 597 -17 q 322 27 397 -17 q 203 145 246 71 q 139 306 160 219 q 118 486 118 392 q 139 667 118 581 q 203 827 160 753 q 322 945 246 901 q 497 989 397 989 q 673 945 597 989 q 792 827 749 901 q 856 667 835 753 q 876 486 876 581 q 856 306 876 392 q 792 145 835 219 q 673 27 749 71 m 497 33 q 649 74 583 33 q 751 181 715 114 q 805 326 788 249 q 822 486 822 403 q 805 655 822 576 q 751 799 788 733 q 649 901 714 864 q 497 939 585 939 q 345 899 411 939 q 243 791 279 858 q 190 647 207 724 q 172 486 172 569 q 190 317 172 396 q 244 174 207 239 q 345 71 281 108 q 497 33 410 33 z "},"ō":{"ha":750,"x_min":94,"x_max":656,"o":"m 143 865 l 143 911 l 601 911 l 601 865 l 143 865 m 579 83 q 541 33 579 83 q 375 -17 503 -17 q 171 81 247 -17 q 94 354 94 179 q 171 627 94 528 q 375 726 247 726 q 579 628 503 726 q 656 356 656 531 q 579 83 656 182 m 375 33 q 542 118 483 33 q 601 356 601 203 q 543 592 601 508 q 375 676 485 676 q 207 594 265 676 q 149 354 149 511 q 207 117 149 201 q 375 33 265 33 z "},"Ŏ":{"ha":994,"x_min":118,"x_max":876,"o":"m 670 1132 q 641 1101 670 1132 q 494 1069 611 1069 q 319 1132 378 1069 q 260 1293 260 1194 l 307 1293 q 360 1161 307 1207 q 494 1115 413 1115 q 629 1161 576 1115 q 682 1293 682 1207 l 729 1293 q 670 1132 729 1194 m 673 27 q 635 5 673 27 q 497 -17 597 -17 q 322 27 397 -17 q 203 145 246 71 q 139 306 160 219 q 118 486 118 392 q 139 667 118 581 q 203 827 160 753 q 322 945 246 901 q 497 989 397 989 q 673 945 597 989 q 792 827 749 901 q 856 667 835 753 q 876 486 876 581 q 856 306 876 392 q 792 145 835 219 q 673 27 749 71 m 497 33 q 649 74 583 33 q 751 181 715 114 q 805 326 788 249 q 822 486 822 403 q 805 655 822 576 q 751 799 788 733 q 649 901 714 864 q 497 939 585 939 q 345 899 411 939 q 243 791 279 858 q 190 647 207 724 q 172 486 172 569 q 190 317 172 396 q 244 174 207 239 q 345 71 281 108 q 497 33 410 33 z "},"ŏ":{"ha":750,"x_min":94,"x_max":656,"o":"m 548 869 q 518 838 548 869 q 372 807 489 807 q 197 869 256 807 q 138 1031 138 932 l 185 1031 q 238 899 185 944 q 372 853 290 853 q 507 899 454 853 q 560 1031 560 944 l 607 1031 q 548 869 607 932 m 579 83 q 541 33 579 83 q 375 -17 503 -17 q 171 81 247 -17 q 94 354 94 179 q 171 627 94 528 q 375 726 247 726 q 579 628 503 726 q 656 356 656 531 q 579 83 656 182 m 375 33 q 542 118 483 33 q 601 356 601 203 q 543 592 601 508 q 375 676 485 676 q 207 594 265 676 q 149 354 149 511 q 207 117 149 201 q 375 33 265 33 z "},"Ő":{"ha":994,"x_min":118,"x_max":876,"o":"m 278 1063 l 226 1063 l 436 1279 l 513 1279 l 278 1063 m 553 1063 l 501 1063 l 711 1279 l 788 1279 l 553 1063 m 673 27 q 635 5 673 27 q 497 -17 597 -17 q 322 27 397 -17 q 203 145 246 71 q 139 306 160 219 q 118 486 118 392 q 139 667 118 581 q 203 827 160 753 q 322 945 246 901 q 497 989 397 989 q 673 945 597 989 q 792 827 749 901 q 856 667 835 753 q 876 486 876 581 q 856 306 876 392 q 792 145 835 219 q 673 27 749 71 m 497 33 q 649 74 583 33 q 751 181 715 114 q 805 326 788 249 q 822 486 822 403 q 805 655 822 576 q 751 799 788 733 q 649 901 714 864 q 497 939 585 939 q 345 899 411 939 q 243 791 279 858 q 190 647 207 724 q 172 486 172 569 q 190 317 172 396 q 244 174 207 239 q 345 71 281 108 q 497 33 410 33 z "},"ő":{"ha":750,"x_min":94,"x_max":665,"o":"m 156 800 l 104 800 l 314 1017 l 390 1017 l 156 800 m 431 800 l 379 800 l 589 1017 l 665 1017 l 431 800 m 579 83 q 541 33 579 83 q 375 -17 503 -17 q 171 81 247 -17 q 94 354 94 179 q 171 627 94 528 q 375 726 247 726 q 579 628 503 726 q 656 356 656 531 q 579 83 656 182 m 375 33 q 542 118 483 33 q 601 356 601 203 q 543 592 601 508 q 375 676 485 676 q 207 594 265 676 q 149 354 149 511 q 207 117 149 201 q 375 33 265 33 z "},"Œ":{"ha":1271,"x_min":118,"x_max":1153,"o":"m 681 0 l 681 33 q 504 -17 606 -17 q 325 27 403 -17 q 204 144 247 71 q 140 304 161 218 q 118 486 118 390 q 140 668 118 582 q 205 828 161 754 q 326 945 249 901 q 504 989 403 989 q 681 940 601 989 l 681 972 l 1122 972 l 1122 926 l 731 926 l 731 526 l 974 526 l 974 481 l 731 481 l 731 46 l 1153 46 l 1153 0 l 681 0 m 504 33 q 681 96 607 33 l 681 881 q 504 939 607 939 q 349 899 415 939 q 244 791 282 858 q 189 647 207 724 q 171 485 171 569 q 189 315 171 393 q 244 173 207 238 q 349 71 282 108 q 504 33 415 33 z "},"œ":{"ha":1231,"x_min":94,"x_max":1143,"o":"m 375 -17 q 171 81 247 -17 q 94 354 94 179 q 171 627 94 528 q 375 726 247 726 q 534 674 467 726 q 629 519 601 621 q 726 674 657 621 q 886 726 794 726 q 1074 634 1006 726 q 1143 356 1143 542 l 1143 340 l 656 340 q 890 33 665 33 q 1057 93 983 33 l 1086 57 q 886 -17 1000 -17 q 722 36 789 -17 q 628 189 654 89 q 533 36 600 89 q 375 -17 465 -17 m 656 386 l 1090 386 q 1028 615 1089 550 q 886 681 967 681 q 725 609 786 681 q 656 386 664 538 m 375 33 q 542 117 482 33 q 601 356 601 200 q 542 593 601 510 q 375 676 483 676 q 207 594 265 676 q 149 354 149 511 q 207 117 149 201 q 375 33 265 33 z "},"Ŕ":{"ha":883,"x_min":153,"x_max":765,"o":"m 335 1063 l 544 1279 l 621 1279 l 386 1063 l 335 1063 m 153 0 l 153 972 l 486 972 q 699 899 632 972 q 765 718 765 825 q 701 540 765 614 q 511 457 638 467 l 735 0 l 679 0 l 458 457 l 203 457 l 203 0 l 153 0 m 203 503 l 486 503 q 658 566 604 503 q 713 718 713 629 q 701 790 713 756 q 667 856 690 824 q 597 907 643 888 q 486 926 550 926 l 203 926 l 203 503 z "},"ŕ":{"ha":531,"x_min":143,"x_max":497,"o":"m 211 800 l 421 1017 l 497 1017 l 263 800 l 211 800 m 143 0 l 143 710 l 193 710 l 193 558 q 281 684 225 642 q 401 726 336 726 q 496 697 464 726 l 488 647 q 394 671 449 671 q 256 602 318 671 q 193 393 193 533 l 193 0 l 143 0 z "},"Ŗ":{"ha":883,"x_min":153,"x_max":765,"o":"m 153 0 l 153 972 l 486 972 q 699 899 632 972 q 765 718 765 825 q 701 540 765 614 q 511 457 638 467 l 735 0 l 679 0 l 458 457 l 203 457 l 203 0 l 153 0 m 203 503 l 486 503 q 658 566 604 503 q 713 718 713 629 q 701 790 713 756 q 667 856 690 824 q 597 907 643 888 q 486 926 550 926 l 203 926 l 203 503 m 390 -336 q 435 -164 435 -269 q 403 -153 415 -164 q 390 -124 390 -142 q 402 -93 390 -106 q 431 -81 414 -81 q 476 -144 476 -81 q 453 -256 476 -200 q 403 -340 431 -312 l 390 -336 z "},"ŗ":{"ha":531,"x_min":126,"x_max":496,"o":"m 143 0 l 143 710 l 193 710 l 193 558 q 281 684 225 642 q 401 726 336 726 q 496 697 464 726 l 488 647 q 394 671 449 671 q 256 602 318 671 q 193 393 193 533 l 193 0 l 143 0 m 126 -364 q 171 -192 171 -297 q 139 -181 151 -192 q 126 -151 126 -169 q 138 -121 126 -133 q 167 -108 150 -108 q 213 -172 213 -108 q 190 -284 213 -228 q 139 -368 167 -340 l 126 -364 z "},"Ř":{"ha":883,"x_min":153,"x_max":765,"o":"m 442 1063 l 397 1063 l 188 1279 l 239 1279 l 419 1113 l 600 1279 l 651 1279 l 442 1063 m 153 0 l 153 972 l 486 972 q 699 899 632 972 q 765 718 765 825 q 701 540 765 614 q 511 457 638 467 l 735 0 l 679 0 l 458 457 l 203 457 l 203 0 l 153 0 m 203 503 l 486 503 q 658 566 604 503 q 713 718 713 629 q 701 790 713 756 q 667 856 690 824 q 597 907 643 888 q 486 926 550 926 l 203 926 l 203 503 z "},"ř":{"ha":531,"x_min":64,"x_max":528,"o":"m 318 800 l 274 800 l 64 1017 l 115 1017 l 296 850 l 476 1017 l 528 1017 l 318 800 m 143 0 l 143 710 l 193 710 l 193 558 q 281 684 225 642 q 401 726 336 726 q 496 697 464 726 l 488 647 q 394 671 449 671 q 256 602 318 671 q 193 393 193 533 l 193 0 l 143 0 z "},"Ś":{"ha":819,"x_min":104,"x_max":693,"o":"m 331 1063 l 540 1279 l 617 1279 l 382 1063 l 331 1063 m 410 -17 q 222 42 303 -17 q 104 188 140 100 l 157 204 q 259 78 192 125 q 411 32 326 32 q 578 86 517 32 q 640 242 640 140 q 406 499 640 408 q 307 542 346 522 q 224 595 268 563 q 158 674 181 628 q 136 776 136 719 q 206 929 136 869 q 399 989 275 989 q 558 945 489 989 q 651 829 628 901 l 601 814 q 394 940 549 940 q 244 896 299 940 q 189 774 189 851 q 208 694 189 729 q 266 631 226 658 q 338 587 306 603 q 428 547 371 571 q 522 502 482 525 q 605 443 563 479 q 670 356 647 407 q 693 240 693 304 q 615 51 693 119 q 410 -17 536 -17 z "},"ś":{"ha":635,"x_min":101,"x_max":540,"o":"m 254 800 l 464 1017 l 540 1017 l 306 800 l 254 800 m 328 -17 q 104 90 199 -17 l 143 124 q 326 31 228 31 q 446 65 403 31 q 489 167 489 100 q 438 275 489 233 q 294 351 386 317 q 150 433 199 388 q 101 551 101 478 q 158 677 101 628 q 310 726 214 726 q 514 639 431 726 l 476 607 q 308 679 399 679 q 194 644 235 679 q 153 551 153 610 q 163 503 153 525 q 185 467 174 481 q 226 437 197 453 q 272 414 256 421 q 326 392 288 407 q 413 353 382 369 q 477 312 443 338 q 526 251 511 286 q 540 167 540 215 q 485 33 540 83 q 328 -17 429 -17 z "},"Ŝ":{"ha":804,"x_min":104,"x_max":693,"o":"m 579 1063 l 399 1229 l 218 1063 l 167 1063 l 376 1279 l 421 1279 l 631 1063 l 579 1063 m 410 -17 q 222 42 303 -17 q 104 188 140 100 l 157 204 q 259 78 192 125 q 411 32 326 32 q 578 86 517 32 q 640 242 640 140 q 406 499 640 408 q 307 542 346 522 q 224 595 268 563 q 158 674 181 628 q 136 776 136 719 q 206 929 136 869 q 399 989 275 989 q 558 945 489 989 q 651 829 628 901 l 601 814 q 394 940 549 940 q 244 896 299 940 q 189 774 189 851 q 208 694 189 729 q 266 631 226 658 q 338 587 306 603 q 428 547 371 571 q 522 502 482 525 q 605 443 563 479 q 670 356 647 407 q 693 240 693 304 q 615 51 693 119 q 410 -17 536 -17 z "},"ŝ":{"ha":635,"x_min":78,"x_max":542,"o":"m 490 800 l 310 967 l 129 800 l 78 800 l 288 1017 l 332 1017 l 542 800 l 490 800 m 328 -17 q 104 90 199 -17 l 143 124 q 326 31 228 31 q 446 65 403 31 q 489 167 489 100 q 438 275 489 233 q 294 351 386 317 q 150 433 199 388 q 101 551 101 478 q 158 677 101 628 q 310 726 214 726 q 514 639 431 726 l 476 607 q 308 679 399 679 q 194 644 235 679 q 153 551 153 610 q 163 503 153 525 q 185 467 174 481 q 226 437 197 453 q 272 414 256 421 q 326 392 288 407 q 413 353 382 369 q 477 312 443 338 q 526 251 511 286 q 540 167 540 215 q 485 33 540 83 q 328 -17 429 -17 z "},"Ş":{"ha":804,"x_min":104,"x_max":693,"o":"m 490 -289 q 472 -307 490 -289 q 392 -325 454 -325 q 293 -286 329 -325 l 328 -261 q 390 -285 357 -285 q 456 -261 432 -285 q 479 -200 479 -237 q 453 -140 479 -164 q 389 -117 428 -117 q 336 -128 358 -117 l 322 -111 l 390 -15 q 215 47 290 -10 q 104 188 139 104 l 157 206 q 259 80 192 126 q 411 33 326 33 q 578 87 517 33 q 639 242 639 140 q 406 499 639 408 q 307 542 346 522 q 224 595 268 563 q 158 674 181 628 q 136 776 136 719 q 206 929 136 869 q 399 989 275 989 q 558 945 489 989 q 651 829 628 901 l 601 813 q 394 939 549 939 q 244 895 299 939 q 190 774 190 851 q 209 694 190 729 q 267 631 228 658 q 339 586 306 603 q 428 547 372 569 q 522 502 482 525 q 605 443 563 479 q 670 356 647 407 q 693 240 693 304 q 620 57 693 124 q 428 -15 547 -10 l 390 -82 q 492 -117 457 -82 q 526 -199 526 -151 q 490 -289 526 -253 z "},"ş":{"ha":635,"x_min":101,"x_max":540,"o":"m 397 -289 q 379 -307 397 -289 q 299 -325 361 -325 q 200 -286 236 -325 l 235 -261 q 297 -285 264 -285 q 363 -261 339 -285 q 386 -200 386 -237 q 360 -140 386 -164 q 296 -117 335 -117 q 243 -128 265 -117 l 229 -111 l 299 -15 q 104 90 186 -4 l 143 124 q 326 31 228 31 q 446 65 403 31 q 489 167 489 100 q 438 275 489 233 q 294 351 386 317 q 150 433 199 388 q 101 551 101 478 q 158 677 101 628 q 310 726 214 726 q 514 639 431 726 l 476 607 q 308 679 399 679 q 194 644 235 679 q 153 551 153 610 q 163 503 153 525 q 185 467 174 481 q 226 437 197 453 q 272 414 256 421 q 326 392 288 407 q 413 353 382 369 q 477 312 443 338 q 526 251 511 286 q 540 167 540 215 q 487 35 540 85 q 335 -17 433 -15 l 297 -82 q 399 -117 364 -82 q 433 -199 433 -151 q 397 -289 433 -253 z "},"Š":{"ha":804,"x_min":104,"x_max":693,"o":"m 422 1063 l 378 1063 l 168 1279 l 219 1279 l 400 1113 l 581 1279 l 632 1279 l 422 1063 m 410 -17 q 222 42 303 -17 q 104 188 140 100 l 157 204 q 259 78 192 125 q 411 32 326 32 q 578 86 517 32 q 640 242 640 140 q 406 499 640 408 q 307 542 346 522 q 224 595 268 563 q 158 674 181 628 q 136 776 136 719 q 206 929 136 869 q 399 989 275 989 q 558 945 489 989 q 651 829 628 901 l 601 814 q 394 940 549 940 q 244 896 299 940 q 189 774 189 851 q 208 694 189 729 q 266 631 226 658 q 338 587 306 603 q 428 547 371 571 q 522 502 482 525 q 605 443 563 479 q 670 356 647 407 q 693 240 693 304 q 615 51 693 119 q 410 -17 536 -17 z "},"š":{"ha":635,"x_min":79,"x_max":543,"o":"m 333 800 l 289 800 l 79 1017 l 131 1017 l 311 850 l 492 1017 l 543 1017 l 333 800 m 328 -17 q 104 90 199 -17 l 143 124 q 326 31 228 31 q 446 65 403 31 q 489 167 489 100 q 438 275 489 233 q 294 351 386 317 q 150 433 199 388 q 101 551 101 478 q 158 677 101 628 q 310 726 214 726 q 514 639 431 726 l 476 607 q 308 679 399 679 q 194 644 235 679 q 153 551 153 610 q 163 503 153 525 q 185 467 174 481 q 226 437 197 453 q 272 414 256 421 q 326 392 288 407 q 413 353 382 369 q 477 312 443 338 q 526 251 511 286 q 540 167 540 215 q 485 33 540 83 q 328 -17 429 -17 z "},"Ţ":{"ha":774,"x_min":94,"x_max":679,"o":"m 456 -289 q 438 -307 456 -289 q 357 -325 419 -325 q 258 -286 294 -325 l 293 -261 q 356 -285 322 -285 q 421 -261 397 -285 q 444 -200 444 -237 q 419 -140 444 -164 q 354 -117 393 -117 q 301 -128 324 -117 l 288 -111 l 368 0 l 361 0 l 361 926 l 94 926 l 94 972 l 679 972 l 679 926 l 411 926 l 411 0 l 403 0 l 356 -82 q 457 -117 422 -82 q 492 -199 492 -151 q 456 -289 492 -253 z "},"ţ":{"ha":501,"x_min":60,"x_max":421,"o":"m 363 -289 q 344 -307 363 -289 q 264 -325 326 -325 q 165 -286 201 -325 l 200 -261 q 263 -285 229 -285 q 328 -261 304 -285 q 351 -200 351 -237 q 326 -140 351 -164 q 261 -117 300 -117 q 208 -128 231 -117 l 194 -111 l 267 -11 q 181 144 181 14 l 181 664 l 60 664 l 60 710 l 181 710 l 181 978 l 231 1003 l 231 710 l 411 710 l 411 664 l 231 664 l 231 151 q 249 61 231 90 q 317 32 267 32 q 421 65 369 32 l 415 13 q 311 -17 368 -17 l 300 -17 l 263 -82 q 364 -117 329 -82 q 399 -199 399 -151 q 363 -289 399 -253 z "},"Ť":{"ha":774,"x_min":94,"x_max":679,"o":"m 410 1063 l 365 1063 l 156 1279 l 207 1279 l 388 1113 l 568 1279 l 619 1279 l 410 1063 m 411 926 l 411 0 l 361 0 l 361 926 l 94 926 l 94 972 l 679 972 l 679 926 l 411 926 z "},"ť":{"ha":519,"x_min":78,"x_max":460,"o":"m 460 1167 l 460 1142 q 382 850 460 947 l 368 861 q 410 1167 410 951 l 460 1167 m 329 -17 q 199 144 199 -17 l 199 664 l 78 664 l 78 710 l 199 710 l 199 978 l 249 1003 l 249 710 l 429 710 l 429 664 l 249 664 l 249 151 q 267 61 249 90 q 335 32 285 32 q 439 65 388 32 l 433 13 q 329 -17 386 -17 z "},"Ŧ":{"ha":774,"x_min":94,"x_max":679,"o":"m 679 926 l 411 926 l 411 463 l 613 463 l 613 417 l 411 417 l 411 0 l 361 0 l 361 417 l 158 417 l 158 463 l 361 463 l 361 926 l 94 926 l 94 972 l 679 972 l 679 926 z "},"ŧ":{"ha":501,"x_min":60,"x_max":421,"o":"m 311 -17 q 181 144 181 -17 l 181 351 l 60 351 l 60 397 l 181 397 l 181 664 l 60 664 l 60 710 l 181 710 l 181 978 l 231 1003 l 231 710 l 411 710 l 411 664 l 231 664 l 231 397 l 411 397 l 411 351 l 231 351 l 231 151 q 249 61 231 90 q 317 32 267 32 q 421 65 369 32 l 415 13 q 311 -17 368 -17 z "},"Ũ":{"ha":914,"x_min":147,"x_max":767,"o":"m 565 1099 q 444 1155 518 1099 q 335 1211 371 1211 q 263 1104 267 1211 l 225 1104 q 256 1215 225 1174 q 344 1257 286 1257 q 465 1201 392 1257 q 575 1144 539 1144 q 647 1251 643 1144 l 685 1251 q 654 1140 685 1182 q 565 1099 624 1099 m 767 346 q 457 -17 767 -17 q 147 346 147 -17 l 147 972 l 197 972 l 197 349 q 457 31 197 31 q 717 349 717 31 l 717 972 l 767 972 l 767 346 z "},"ũ":{"ha":767,"x_min":136,"x_max":624,"o":"m 490 836 q 369 892 443 836 q 260 949 296 949 q 188 842 192 949 l 150 842 q 181 953 150 911 q 269 994 211 994 q 390 938 317 994 q 500 882 464 882 q 572 989 568 882 l 610 989 q 579 878 610 919 q 490 836 549 836 m 574 0 l 574 119 q 365 -17 513 -17 q 136 276 136 -17 l 136 710 l 186 710 l 186 265 q 368 29 186 29 q 574 297 574 29 l 574 710 l 624 710 l 624 0 l 574 0 z "},"Ū":{"ha":914,"x_min":147,"x_max":767,"o":"m 225 1128 l 225 1174 l 683 1174 l 683 1128 l 225 1128 m 767 346 q 457 -17 767 -17 q 147 346 147 -17 l 147 972 l 197 972 l 197 349 q 457 31 197 31 q 717 349 717 31 l 717 972 l 767 972 l 767 346 z "},"ū":{"ha":767,"x_min":136,"x_max":624,"o":"m 153 865 l 153 911 l 611 911 l 611 865 l 153 865 m 574 0 l 574 119 q 365 -17 513 -17 q 136 276 136 -17 l 136 710 l 186 710 l 186 265 q 368 29 186 29 q 574 297 574 29 l 574 710 l 624 710 l 624 0 l 574 0 z "},"Ŭ":{"ha":914,"x_min":147,"x_max":767,"o":"m 630 1132 q 600 1101 630 1132 q 454 1069 571 1069 q 278 1132 338 1069 q 219 1293 219 1194 l 267 1293 q 319 1161 267 1207 q 454 1115 372 1115 q 589 1161 536 1115 q 642 1293 642 1207 l 689 1293 q 630 1132 689 1194 m 767 346 q 457 -17 767 -17 q 147 346 147 -17 l 147 972 l 197 972 l 197 349 q 457 31 197 31 q 717 349 717 31 l 717 972 l 767 972 l 767 346 z "},"ŭ":{"ha":767,"x_min":136,"x_max":624,"o":"m 556 869 q 527 838 556 869 q 381 807 497 807 q 205 869 264 807 q 146 1031 146 932 l 193 1031 q 246 899 193 944 q 381 853 299 853 q 515 899 463 853 q 568 1031 568 944 l 615 1031 q 556 869 615 932 m 574 0 l 574 119 q 365 -17 513 -17 q 136 276 136 -17 l 136 710 l 186 710 l 186 265 q 368 29 186 29 q 574 297 574 29 l 574 710 l 624 710 l 624 0 l 574 0 z "},"Ů":{"ha":914,"x_min":147,"x_max":767,"o":"m 569 1058 q 546 1035 569 1058 q 457 1013 522 1013 q 344 1058 392 1013 q 297 1168 297 1104 q 344 1278 297 1232 q 457 1325 392 1325 q 569 1278 522 1325 q 617 1168 617 1232 q 569 1058 617 1104 m 456 1056 q 536 1088 503 1056 q 569 1168 569 1121 q 536 1249 569 1217 q 456 1282 503 1282 q 377 1249 410 1282 q 344 1168 344 1217 q 377 1088 344 1121 q 456 1056 410 1056 m 767 346 q 457 -17 767 -17 q 147 346 147 -17 l 147 972 l 197 972 l 197 349 q 457 31 197 31 q 717 349 717 31 l 717 972 l 767 972 l 767 346 z "},"ů":{"ha":767,"x_min":136,"x_max":624,"o":"m 492 796 q 468 773 492 796 q 379 750 444 750 q 267 796 314 750 q 219 906 219 842 q 267 1016 219 969 q 379 1063 314 1063 q 492 1016 444 1063 q 539 906 539 969 q 492 796 539 842 m 378 793 q 458 826 425 793 q 492 906 492 858 q 458 987 492 954 q 378 1019 425 1019 q 299 987 332 1019 q 267 906 267 954 q 299 826 267 858 q 378 793 332 793 m 574 0 l 574 119 q 365 -17 513 -17 q 136 276 136 -17 l 136 710 l 186 710 l 186 265 q 368 29 186 29 q 574 297 574 29 l 574 710 l 624 710 l 624 0 l 574 0 z "},"Ű":{"ha":914,"x_min":147,"x_max":796,"o":"m 286 1063 l 235 1063 l 444 1279 l 521 1279 l 286 1063 m 561 1063 l 510 1063 l 719 1279 l 796 1279 l 561 1063 m 767 346 q 457 -17 767 -17 q 147 346 147 -17 l 147 972 l 197 972 l 197 349 q 457 31 197 31 q 717 349 717 31 l 717 972 l 767 972 l 767 346 z "},"ű":{"ha":767,"x_min":136,"x_max":728,"o":"m 218 800 l 167 800 l 376 1017 l 453 1017 l 218 800 m 493 800 l 442 800 l 651 1017 l 728 1017 l 493 800 m 574 0 l 574 119 q 365 -17 513 -17 q 136 276 136 -17 l 136 710 l 186 710 l 186 265 q 368 29 186 29 q 574 297 574 29 l 574 710 l 624 710 l 624 0 l 574 0 z "},"Ų":{"ha":914,"x_min":147,"x_max":767,"o":"m 490 -325 q 395 -290 433 -325 q 357 -189 357 -256 q 478 -17 357 -83 l 457 -17 q 147 346 147 -17 l 147 972 l 197 972 l 197 349 q 457 31 197 31 q 717 349 717 31 l 717 972 l 767 972 l 767 346 q 713 106 767 189 q 553 -12 660 22 q 442 -84 481 -36 q 404 -189 404 -132 q 430 -261 404 -237 q 490 -285 456 -285 q 579 -240 539 -285 l 613 -264 q 490 -325 563 -325 z "},"ų":{"ha":767,"x_min":136,"x_max":675,"o":"m 553 -325 q 458 -290 496 -325 q 419 -189 419 -256 q 464 -78 419 -128 q 574 0 508 -28 l 574 119 q 365 -17 513 -17 q 136 276 136 -17 l 136 710 l 186 710 l 186 265 q 368 29 186 29 q 574 297 574 29 l 574 710 l 624 710 l 624 0 q 467 -189 467 -69 q 492 -261 467 -237 q 553 -285 518 -285 q 642 -240 601 -285 l 675 -264 q 553 -325 625 -325 z "},"Ŵ":{"ha":1156,"x_min":88,"x_max":1068,"o":"m 757 1063 l 576 1229 l 396 1063 l 344 1063 l 554 1279 l 599 1279 l 808 1063 l 757 1063 m 324 0 l 88 972 l 142 972 l 329 194 q 346 122 343 135 q 363 192 351 147 l 557 972 l 599 972 l 793 192 q 810 122 804 147 q 826 194 813 136 l 1014 972 l 1068 972 l 832 0 l 790 0 l 615 700 q 578 853 590 800 q 540 700 565 800 l 365 0 l 324 0 z "},"ŵ":{"ha":969,"x_min":74,"x_max":896,"o":"m 664 800 l 483 967 l 303 800 l 251 800 l 461 1017 l 506 1017 l 715 800 l 664 800 m 254 0 l 74 710 l 124 710 l 260 163 l 276 92 q 297 163 286 129 l 467 710 l 503 710 l 672 163 l 693 92 q 710 163 701 129 l 846 710 l 896 710 l 715 0 l 679 0 l 514 522 l 485 618 q 456 522 469 568 l 290 0 l 254 0 z "},"Ŷ":{"ha":833,"x_min":75,"x_max":758,"o":"m 596 1063 l 415 1229 l 235 1063 l 183 1063 l 393 1279 l 438 1279 l 647 1063 l 596 1063 m 392 0 l 392 385 l 75 972 l 129 972 l 417 436 l 704 972 l 758 972 l 442 385 l 442 0 l 392 0 z "},"ŷ":{"ha":708,"x_min":74,"x_max":635,"o":"m 536 800 l 356 967 l 175 800 l 124 800 l 333 1017 l 378 1017 l 588 800 l 536 800 m 224 -269 l 329 17 l 74 710 l 124 710 l 329 150 l 354 79 l 379 150 l 585 710 l 635 710 l 274 -269 l 224 -269 z "},"Ÿ":{"ha":833,"x_min":75,"x_max":758,"o":"m 301 1104 q 273 1116 285 1104 q 261 1144 261 1128 q 273 1175 261 1163 q 301 1188 285 1188 q 331 1175 319 1188 q 342 1144 342 1163 q 331 1116 342 1128 q 301 1104 319 1104 m 532 1104 q 503 1116 515 1104 q 492 1144 492 1128 q 503 1175 492 1163 q 532 1188 515 1188 q 561 1175 550 1188 q 572 1144 572 1163 q 561 1116 572 1128 q 532 1104 550 1104 m 392 0 l 392 385 l 75 972 l 129 972 l 417 436 l 704 972 l 758 972 l 442 385 l 442 0 l 392 0 z "},"Ź":{"ha":826,"x_min":93,"x_max":733,"o":"m 350 1063 l 560 1279 l 636 1279 l 401 1063 l 350 1063 m 93 0 l 93 26 l 667 926 l 125 926 l 125 972 l 733 972 l 733 943 l 165 46 l 733 46 l 733 0 l 93 0 z "},"ź":{"ha":688,"x_min":94,"x_max":586,"o":"m 260 800 l 469 1017 l 546 1017 l 311 800 l 260 800 m 94 0 l 94 31 l 519 664 l 122 664 l 122 710 l 586 710 l 586 681 l 160 46 l 585 46 l 585 0 l 94 0 z "},"Ż":{"ha":826,"x_min":93,"x_max":733,"o":"m 419 1104 q 391 1116 403 1104 q 379 1144 379 1128 q 391 1175 379 1163 q 419 1188 403 1188 q 449 1175 438 1188 q 460 1144 460 1163 q 449 1116 460 1128 q 419 1104 438 1104 m 93 0 l 93 26 l 667 926 l 125 926 l 125 972 l 733 972 l 733 943 l 165 46 l 733 46 l 733 0 l 93 0 z "},"ż":{"ha":688,"x_min":94,"x_max":586,"o":"m 344 842 q 316 853 328 842 q 304 882 304 865 q 316 913 304 900 q 344 925 328 925 q 374 913 363 925 q 385 882 385 900 q 374 853 385 865 q 344 842 363 842 m 94 0 l 94 31 l 519 664 l 122 664 l 122 710 l 586 710 l 586 681 l 160 46 l 585 46 l 585 0 l 94 0 z "},"Ž":{"ha":826,"x_min":93,"x_max":733,"o":"m 457 1063 l 413 1063 l 203 1279 l 254 1279 l 435 1113 l 615 1279 l 667 1279 l 457 1063 m 93 0 l 93 26 l 667 926 l 125 926 l 125 972 l 733 972 l 733 943 l 165 46 l 733 46 l 733 0 l 93 0 z "},"ž":{"ha":688,"x_min":94,"x_max":586,"o":"m 367 800 l 322 800 l 113 1017 l 164 1017 l 344 850 l 525 1017 l 576 1017 l 367 800 m 94 0 l 94 31 l 519 664 l 122 664 l 122 710 l 586 710 l 586 681 l 160 46 l 585 46 l 585 0 l 94 0 z "},"ſ":{"ha":406,"x_min":143,"x_max":364,"o":"m 143 0 l 143 838 q 279 989 143 989 q 364 967 322 989 l 364 922 q 279 943 317 943 q 213 917 232 943 q 193 832 193 890 l 193 0 l 143 0 z "},"ƒ":{"ha":453,"x_min":11,"x_max":406,"o":"m 36 -296 l 11 -253 q 143 -203 101 -246 q 185 -71 185 -161 l 185 664 l 71 664 l 71 710 l 185 710 l 185 838 q 321 989 185 989 q 406 967 364 989 l 406 922 q 321 943 358 943 q 254 917 274 943 q 235 832 235 890 l 235 710 l 406 710 l 406 664 l 235 664 l 235 -68 q 181 -236 235 -186 q 36 -296 128 -286 z "},"Ǎ":{"ha":883,"x_min":90,"x_max":793,"o":"m 464 1063 l 419 1063 l 210 1279 l 261 1279 l 442 1113 l 622 1279 l 674 1279 l 464 1063 m 739 0 l 644 274 l 239 274 l 144 0 l 90 0 l 424 972 l 460 972 l 793 0 l 739 0 m 632 315 l 490 729 q 478 767 489 733 q 456 834 467 801 q 442 885 446 867 q 426 833 438 867 q 404 766 415 799 q 392 729 393 733 l 251 315 l 632 315 z "},"ǎ":{"ha":718,"x_min":101,"x_max":613,"o":"m 403 800 l 358 800 l 149 1017 l 200 1017 l 381 850 l 561 1017 l 613 1017 l 403 800 m 553 0 l 553 111 q 451 17 511 51 q 328 -17 392 -17 q 162 44 222 -17 q 101 214 101 104 q 169 381 101 324 q 344 439 238 439 q 553 371 449 439 l 553 476 q 506 636 553 592 q 379 681 458 681 q 165 613 279 681 l 150 656 q 383 726 272 726 q 460 717 425 726 q 530 683 496 707 q 583 611 564 658 q 603 497 603 564 l 603 0 l 553 0 m 328 29 q 553 169 450 29 l 553 324 q 344 393 449 393 q 210 347 265 393 q 156 214 156 300 q 202 80 156 131 q 328 29 249 29 z "},"Ǐ":{"ha":356,"x_min":-54,"x_max":410,"o":"m 200 1063 l 156 1063 l -54 1279 l -3 1279 l 178 1113 l 358 1279 l 410 1279 l 200 1063 m 153 0 l 153 972 l 203 972 l 203 0 l 153 0 z "},"ǐ":{"ha":344,"x_min":-60,"x_max":404,"o":"m 194 800 l 150 800 l -60 1017 l -8 1017 l 172 850 l 353 1017 l 404 1017 l 194 800 m 147 0 l 147 710 l 197 710 l 197 0 l 147 0 z "},"Ǒ":{"ha":994,"x_min":118,"x_max":876,"o":"m 519 1063 l 475 1063 l 265 1279 l 317 1279 l 497 1113 l 678 1279 l 729 1279 l 519 1063 m 673 27 q 635 5 673 27 q 497 -17 597 -17 q 322 27 397 -17 q 203 145 246 71 q 139 306 160 219 q 118 486 118 392 q 139 667 118 581 q 203 827 160 753 q 322 945 246 901 q 497 989 397 989 q 673 945 597 989 q 792 827 749 901 q 856 667 835 753 q 876 486 876 581 q 856 306 876 392 q 792 145 835 219 q 673 27 749 71 m 497 33 q 649 74 583 33 q 751 181 715 114 q 805 326 788 249 q 822 486 822 403 q 805 655 822 576 q 751 799 788 733 q 649 901 714 864 q 497 939 585 939 q 345 899 411 939 q 243 791 279 858 q 190 647 207 724 q 172 486 172 569 q 190 317 172 396 q 244 174 207 239 q 345 71 281 108 q 497 33 410 33 z "},"ǒ":{"ha":750,"x_min":94,"x_max":656,"o":"m 397 800 l 353 800 l 143 1017 l 194 1017 l 375 850 l 556 1017 l 607 1017 l 397 800 m 579 83 q 541 33 579 83 q 375 -17 503 -17 q 171 81 247 -17 q 94 354 94 179 q 171 627 94 528 q 375 726 247 726 q 579 628 503 726 q 656 356 656 531 q 579 83 656 182 m 375 33 q 542 118 483 33 q 601 356 601 203 q 543 592 601 508 q 375 676 485 676 q 207 594 265 676 q 149 354 149 511 q 207 117 149 201 q 375 33 265 33 z "},"Ǔ":{"ha":914,"x_min":147,"x_max":767,"o":"m 479 1063 l 435 1063 l 225 1279 l 276 1279 l 457 1113 l 638 1279 l 689 1279 l 479 1063 m 767 346 q 457 -17 767 -17 q 147 346 147 -17 l 147 972 l 197 972 l 197 349 q 457 31 197 31 q 717 349 717 31 l 717 972 l 767 972 l 767 346 z "},"ǔ":{"ha":767,"x_min":136,"x_max":624,"o":"m 394 800 l 350 800 l 140 1017 l 192 1017 l 372 850 l 553 1017 l 604 1017 l 394 800 m 574 0 l 574 119 q 365 -17 513 -17 q 136 276 136 -17 l 136 710 l 186 710 l 186 265 q 368 29 186 29 q 574 297 574 29 l 574 710 l 624 710 l 624 0 l 574 0 z "},"Ǽ":{"ha":1179,"x_min":4,"x_max":1061,"o":"m 561 1063 l 771 1279 l 847 1279 l 613 1063 l 561 1063 m 4 0 l 565 972 l 1031 972 l 1031 926 l 614 926 l 614 526 l 882 526 l 882 481 l 614 481 l 614 46 l 1061 46 l 1061 0 l 564 0 l 564 274 l 218 274 l 61 0 l 4 0 m 240 315 l 564 315 l 564 883 q 531 822 553 861 l 240 315 z "},"ǽ":{"ha":1175,"x_min":101,"x_max":1094,"o":"m 507 800 l 717 1017 l 793 1017 l 558 800 l 507 800 m 328 -17 q 162 44 222 -17 q 101 214 101 104 q 169 381 101 324 q 344 439 238 439 q 553 371 449 439 l 553 476 q 506 636 553 592 q 379 681 458 681 q 165 613 279 681 l 150 656 q 383 726 272 726 q 594 554 572 726 q 690 683 625 639 q 838 726 754 726 q 1026 634 957 726 q 1094 356 1094 542 l 1094 340 l 607 340 q 842 33 617 33 q 1008 93 935 33 l 1038 57 q 838 -17 951 -17 q 589 151 658 -17 q 465 24 536 65 q 328 -17 394 -17 m 607 386 l 1042 386 q 979 615 1040 550 q 838 681 918 681 q 676 609 738 681 q 607 386 615 538 m 328 29 q 571 201 471 29 q 553 324 557 249 q 344 393 449 393 q 210 347 265 393 q 156 214 156 300 q 202 80 156 131 q 328 29 249 29 z "},"Ǿ":{"ha":994,"x_min":118,"x_max":876,"o":"m 413 1063 l 622 1279 l 699 1279 l 464 1063 l 413 1063 m 133 -17 l 222 117 q 118 486 118 254 q 139 667 118 581 q 203 827 160 753 q 322 945 246 901 q 497 989 397 989 q 739 893 643 989 l 804 989 l 861 989 l 772 856 q 876 486 876 717 q 856 306 876 392 q 792 145 835 219 q 673 27 749 71 q 497 -17 597 -17 q 254 79 350 -17 l 190 -17 l 133 -17 m 251 160 l 711 850 q 497 939 629 939 q 345 899 411 939 q 242 791 279 858 q 188 647 206 724 q 171 486 171 569 q 251 160 171 279 m 497 33 q 649 74 583 33 q 752 181 715 114 q 806 326 789 249 q 824 486 824 403 q 743 811 824 692 l 282 121 q 497 33 363 33 z "},"ǿ":{"ha":750,"x_min":88,"x_max":663,"o":"m 590 1017 l 356 800 l 304 800 l 514 1017 l 590 1017 m 663 726 l 588 618 q 656 356 656 519 q 579 83 656 182 q 375 -17 503 -17 q 194 54 268 -17 l 146 -17 l 88 -17 l 163 92 q 94 354 94 190 q 171 627 94 528 q 375 726 247 726 q 556 656 482 726 l 604 726 l 663 726 m 149 354 q 194 138 149 219 l 526 614 q 375 676 468 676 q 207 594 265 676 q 149 354 149 511 m 601 356 q 556 572 601 492 l 224 96 q 375 33 282 33 q 542 118 483 33 q 601 356 601 203 z "},"Ș":{"ha":804,"x_min":104,"x_max":693,"o":"m 410 -17 q 222 42 303 -17 q 104 188 140 100 l 157 204 q 259 78 192 125 q 411 32 326 32 q 578 86 517 32 q 640 242 640 140 q 406 499 640 408 q 307 542 346 522 q 224 595 268 563 q 158 674 181 628 q 136 776 136 719 q 206 929 136 869 q 399 989 275 989 q 558 945 489 989 q 651 829 628 901 l 601 814 q 394 940 549 940 q 244 896 299 940 q 189 774 189 851 q 208 694 189 729 q 266 631 226 658 q 338 587 306 603 q 428 547 371 571 q 522 502 482 525 q 605 443 563 479 q 670 356 647 407 q 693 240 693 304 q 615 51 693 119 q 410 -17 536 -17 m 368 -336 q 413 -164 413 -269 q 381 -153 393 -164 q 368 -124 368 -142 q 380 -93 368 -106 q 408 -81 392 -81 q 454 -144 454 -81 q 431 -256 454 -200 q 381 -340 408 -312 l 368 -336 z "},"ș":{"ha":635,"x_min":101,"x_max":540,"o":"m 328 -17 q 104 90 199 -17 l 143 124 q 326 31 228 31 q 446 65 403 31 q 489 167 489 100 q 438 275 489 233 q 294 351 386 317 q 150 433 199 388 q 101 551 101 478 q 158 677 101 628 q 310 726 214 726 q 514 639 431 726 l 476 607 q 308 679 399 679 q 194 644 235 679 q 153 551 153 610 q 163 503 153 525 q 185 467 174 481 q 226 437 197 453 q 272 414 256 421 q 326 392 288 407 q 413 353 382 369 q 477 312 443 338 q 526 251 511 286 q 540 167 540 215 q 485 33 540 83 q 328 -17 429 -17 m 286 -336 q 331 -164 331 -269 q 299 -153 311 -164 q 286 -124 286 -142 q 298 -93 286 -106 q 326 -81 310 -81 q 372 -144 372 -81 q 349 -256 372 -200 q 299 -340 326 -312 l 286 -336 z "},"Ț":{"ha":774,"x_min":94,"x_max":679,"o":"m 411 926 l 411 0 l 361 0 l 361 926 l 94 926 l 94 972 l 679 972 l 679 926 l 411 926 m 347 -336 q 392 -164 392 -269 q 360 -153 372 -164 q 347 -124 347 -142 q 359 -93 347 -106 q 388 -81 371 -81 q 433 -144 433 -81 q 410 -256 433 -200 q 360 -340 388 -312 l 347 -336 z "},"ț":{"ha":501,"x_min":60,"x_max":421,"o":"m 311 -17 q 181 144 181 -17 l 181 664 l 60 664 l 60 710 l 181 710 l 181 978 l 231 1003 l 231 710 l 411 710 l 411 664 l 231 664 l 231 151 q 249 61 231 90 q 317 32 267 32 q 421 65 369 32 l 415 13 q 311 -17 368 -17 m 253 -336 q 297 -164 297 -269 q 265 -153 278 -164 q 253 -124 253 -142 q 265 -93 253 -106 q 293 -81 276 -81 q 339 -144 339 -81 q 316 -256 339 -200 q 265 -340 293 -312 l 253 -336 z "},"ȷ":{"ha":344,"x_min":-25,"x_max":199,"o":"m 0 -296 l -25 -253 q 107 -203 65 -246 q 149 -71 149 -161 l 149 710 l 199 710 l 199 -68 q 144 -237 199 -181 q 0 -296 96 -286 z "},"ˆ":{"ha":460,"x_min":-3,"x_max":461,"o":"m 410 800 l 229 967 l 49 800 l -3 800 l 207 1017 l 251 1017 l 461 800 l 410 800 z "},"ˇ":{"ha":460,"x_min":0,"x_max":464,"o":"m 254 800 l 210 800 l 0 1017 l 51 1017 l 232 850 l 413 1017 l 464 1017 l 254 800 z "},"ˉ":{"ha":460,"x_min":0,"x_max":458,"o":"m 0 865 l 0 911 l 458 911 l 458 865 l 0 865 z "},"˘":{"ha":460,"x_min":-6,"x_max":464,"o":"m 405 869 q 375 838 405 869 q 229 807 346 807 q 53 869 113 807 q -6 1031 -6 932 l 42 1031 q 94 899 42 944 q 229 853 147 853 q 364 899 311 853 q 417 1031 417 944 l 464 1031 q 405 869 464 932 z "},"˙":{"ha":460,"x_min":189,"x_max":269,"o":"m 229 842 q 201 853 213 842 q 189 882 189 865 q 201 913 189 900 q 229 925 213 925 q 258 913 247 925 q 269 882 269 900 q 258 853 269 865 q 229 842 247 842 z "},"˚":{"ha":460,"x_min":72,"x_max":392,"o":"m 344 796 q 321 773 344 796 q 232 750 297 750 q 119 796 167 750 q 72 906 72 842 q 119 1016 72 969 q 232 1063 167 1063 q 344 1016 297 1063 q 392 906 392 969 q 344 796 392 842 m 231 793 q 311 826 278 793 q 344 906 344 858 q 311 987 344 954 q 231 1019 278 1019 q 152 987 185 1019 q 119 906 119 954 q 152 826 119 858 q 231 793 185 793 z "},"˛":{"ha":460,"x_min":103,"x_max":358,"o":"m 236 -325 q 141 -290 179 -325 q 103 -189 103 -256 q 155 -69 103 -125 q 292 14 207 -14 l 336 14 q 150 -189 150 -62 q 176 -261 150 -237 q 236 -285 201 -285 q 325 -240 285 -285 l 358 -264 q 236 -325 308 -325 z "},"˜":{"ha":460,"x_min":0,"x_max":460,"o":"m 340 836 q 219 892 293 836 q 110 949 146 949 q 38 842 42 949 l 0 842 q 31 953 0 911 q 119 994 61 994 q 240 938 167 994 q 350 882 314 882 q 422 989 418 882 l 460 989 q 429 878 460 919 q 340 836 399 836 z "},"˝":{"ha":460,"x_min":58,"x_max":619,"o":"m 110 800 l 58 800 l 268 1017 l 344 1017 l 110 800 m 385 800 l 333 800 l 543 1017 l 619 1017 l 385 800 z "},"̒":{"ha":0,"x_min":-274,"x_max":-187,"o":"m -228 838 q -274 901 -274 838 q -251 1013 -274 957 q -200 1097 -228 1069 l -187 1093 q -232 921 -232 1026 q -200 910 -212 921 q -187 881 -187 899 q -199 850 -187 863 q -228 838 -211 838 z "},"̦":{"ha":0,"x_min":-267,"x_max":-181,"o":"m -267 -336 q -222 -164 -222 -269 q -254 -153 -242 -164 q -267 -124 -267 -142 q -255 -93 -267 -106 q -226 -81 -243 -81 q -181 -144 -181 -81 q -203 -256 -181 -200 q -254 -340 -226 -312 l -267 -336 z "},"Ω":{"ha":1019,"x_min":115,"x_max":901,"o":"m 606 0 l 606 58 q 778 278 721 150 q 836 542 836 407 q 819 683 836 615 q 765 809 801 750 q 662 903 728 868 q 508 939 596 939 q 356 903 422 939 q 253 809 290 868 q 199 683 217 750 q 181 542 181 615 q 238 278 181 406 q 411 58 294 150 l 411 0 l 115 0 l 115 50 l 360 50 q 188 258 250 132 q 126 542 126 385 q 147 700 126 624 q 211 843 168 776 q 331 949 254 910 q 508 989 407 989 q 687 949 610 989 q 807 843 764 910 q 870 701 850 776 q 890 542 890 625 q 828 259 890 386 q 657 50 765 132 l 901 50 l 901 0 l 606 0 z "},"μ":{"ha":767,"x_min":136,"x_max":624,"o":"m 574 0 l 574 119 q 491 19 544 56 q 365 -17 438 -17 q 186 69 240 -17 l 186 -251 l 136 -278 l 136 710 l 186 710 l 186 265 q 368 29 186 29 q 574 297 574 29 l 574 710 l 624 710 l 624 0 l 574 0 z "},"π":{"ha":892,"x_min":76,"x_max":806,"o":"m 696 -17 q 565 144 565 -17 l 565 660 l 286 660 l 286 463 q 248 153 286 268 q 117 -28 210 39 l 76 4 q 195 154 154 58 q 236 453 236 250 l 236 660 l 101 660 l 101 710 l 794 710 l 794 660 l 615 660 l 615 151 q 633 61 615 90 q 701 32 651 32 q 806 65 754 32 l 800 13 q 696 -17 753 -17 z "},"Ẁ":{"ha":1156,"x_min":88,"x_max":1068,"o":"m 603 1063 l 368 1279 l 444 1279 l 654 1063 l 603 1063 m 324 0 l 88 972 l 142 972 l 329 194 q 346 122 343 135 q 363 192 351 147 l 557 972 l 599 972 l 793 192 q 810 122 804 147 q 826 194 813 136 l 1014 972 l 1068 972 l 832 0 l 790 0 l 615 700 q 578 853 590 800 q 540 700 565 800 l 365 0 l 324 0 z "},"ẁ":{"ha":969,"x_min":74,"x_max":896,"o":"m 510 800 l 275 1017 l 351 1017 l 561 800 l 510 800 m 254 0 l 74 710 l 124 710 l 260 163 l 276 92 q 297 163 286 129 l 467 710 l 503 710 l 672 163 l 693 92 q 710 163 701 129 l 846 710 l 896 710 l 715 0 l 679 0 l 514 522 l 485 618 q 456 522 469 568 l 290 0 l 254 0 z "},"Ẃ":{"ha":1156,"x_min":88,"x_max":1068,"o":"m 493 1063 l 703 1279 l 779 1279 l 544 1063 l 493 1063 m 324 0 l 88 972 l 142 972 l 329 194 q 346 122 343 135 q 363 192 351 147 l 557 972 l 599 972 l 793 192 q 810 122 804 147 q 826 194 813 136 l 1014 972 l 1068 972 l 832 0 l 790 0 l 615 700 q 578 853 590 800 q 540 700 565 800 l 365 0 l 324 0 z "},"ẃ":{"ha":969,"x_min":74,"x_max":896,"o":"m 400 800 l 610 1017 l 686 1017 l 451 800 l 400 800 m 254 0 l 74 710 l 124 710 l 260 163 l 276 92 q 297 163 286 129 l 467 710 l 503 710 l 672 163 l 693 92 q 710 163 701 129 l 846 710 l 896 710 l 715 0 l 679 0 l 514 522 l 485 618 q 456 522 469 568 l 290 0 l 254 0 z "},"Ẅ":{"ha":1156,"x_min":88,"x_max":1068,"o":"m 463 1104 q 434 1116 446 1104 q 422 1144 422 1128 q 434 1175 422 1163 q 463 1188 446 1188 q 492 1175 481 1188 q 503 1144 503 1163 q 492 1116 503 1128 q 463 1104 481 1104 m 693 1104 q 665 1116 676 1104 q 653 1144 653 1128 q 665 1175 653 1163 q 693 1188 676 1188 q 722 1175 711 1188 q 733 1144 733 1163 q 722 1116 733 1128 q 693 1104 711 1104 m 324 0 l 88 972 l 142 972 l 329 194 q 346 122 343 135 q 363 192 351 147 l 557 972 l 599 972 l 793 192 q 810 122 804 147 q 826 194 813 136 l 1014 972 l 1068 972 l 832 0 l 790 0 l 615 700 q 578 853 590 800 q 540 700 565 800 l 365 0 l 324 0 z "},"ẅ":{"ha":969,"x_min":74,"x_max":896,"o":"m 369 842 q 341 853 353 842 q 329 882 329 865 q 341 913 329 900 q 369 925 353 925 q 399 913 388 925 q 410 882 410 900 q 399 853 410 865 q 369 842 388 842 m 600 842 q 572 853 583 842 q 560 882 560 865 q 572 913 560 900 q 600 925 583 925 q 629 913 618 925 q 640 882 640 900 q 629 853 640 865 q 600 842 618 842 m 254 0 l 74 710 l 124 710 l 260 163 l 276 92 q 297 163 286 129 l 467 710 l 503 710 l 672 163 l 693 92 q 710 163 701 129 l 846 710 l 896 710 l 715 0 l 679 0 l 514 522 l 485 618 q 456 522 469 568 l 290 0 l 254 0 z "},"Ỳ":{"ha":833,"x_min":75,"x_max":758,"o":"m 446 1063 l 211 1279 l 288 1279 l 497 1063 l 446 1063 m 392 0 l 392 385 l 75 972 l 129 972 l 417 436 l 704 972 l 758 972 l 442 385 l 442 0 l 392 0 z "},"ỳ":{"ha":708,"x_min":74,"x_max":635,"o":"m 382 800 l 147 1017 l 224 1017 l 433 800 l 382 800 m 224 -269 l 329 17 l 74 710 l 124 710 l 329 150 l 354 79 l 379 150 l 585 710 l 635 710 l 274 -269 l 224 -269 z "},"–":{"ha":724,"x_min":97,"x_max":626,"o":"m 97 374 l 97 424 l 626 424 l 626 374 l 97 374 z "},"—":{"ha":835,"x_min":11,"x_max":824,"o":"m 11 374 l 11 424 l 824 424 l 824 374 l 11 374 z "},"―":{"ha":835,"x_min":11,"x_max":824,"o":"m 11 374 l 11 424 l 824 424 l 824 374 l 11 374 z "},"‘":{"ha":281,"x_min":94,"x_max":181,"o":"m 140 729 q 94 793 94 729 q 117 905 94 849 q 168 989 140 961 l 181 985 q 136 813 136 918 q 168 801 156 813 q 181 772 181 790 q 169 742 181 754 q 140 729 157 729 z "},"’":{"ha":281,"x_min":100,"x_max":186,"o":"m 100 733 q 144 906 144 800 q 113 917 125 906 q 100 946 100 928 q 112 976 100 964 q 140 989 124 989 q 186 925 186 989 q 163 813 186 869 q 113 729 140 757 l 100 733 z "},"‚":{"ha":281,"x_min":100,"x_max":186,"o":"m 100 -192 q 144 -19 144 -125 q 113 -8 125 -19 q 100 21 100 3 q 112 51 100 39 q 140 64 124 64 q 186 0 186 64 q 163 -112 186 -56 q 113 -196 140 -168 l 100 -192 z "},"‛":{"ha":281,"x_min":94,"x_max":181,"o":"m 168 729 q 117 813 140 757 q 94 925 94 869 q 140 989 94 989 q 169 976 157 989 q 181 946 181 964 q 168 917 181 928 q 136 906 156 906 q 181 733 136 800 l 168 729 z "},"“":{"ha":525,"x_min":94,"x_max":425,"o":"m 140 729 q 94 793 94 729 q 117 905 94 849 q 168 989 140 961 l 181 985 q 136 813 136 918 q 168 801 156 813 q 181 772 181 790 q 169 742 181 754 q 140 729 157 729 m 385 729 q 339 793 339 729 q 362 905 339 849 q 413 989 385 961 l 425 985 q 381 813 381 918 q 413 801 400 813 q 425 772 425 790 q 413 742 425 754 q 385 729 401 729 z "},"”":{"ha":525,"x_min":100,"x_max":431,"o":"m 100 733 q 144 906 144 800 q 113 917 125 906 q 100 946 100 928 q 112 976 100 964 q 140 989 124 989 q 186 925 186 989 q 163 813 186 869 q 113 729 140 757 l 100 733 m 344 733 q 389 906 389 800 q 357 917 369 906 q 344 946 344 928 q 356 976 344 964 q 385 989 368 989 q 431 925 431 989 q 408 813 431 869 q 357 729 385 757 l 344 733 z "},"„":{"ha":525,"x_min":100,"x_max":431,"o":"m 100 -192 q 144 -19 144 -125 q 113 -8 125 -19 q 100 21 100 3 q 112 51 100 39 q 140 64 124 64 q 186 0 186 64 q 163 -112 186 -56 q 113 -196 140 -168 l 100 -192 m 344 -192 q 389 -19 389 -125 q 357 -8 369 -19 q 344 21 344 3 q 356 51 344 39 q 385 64 368 64 q 431 0 431 64 q 408 -112 431 -56 q 357 -196 385 -168 l 344 -192 z "},"†":{"ha":772,"x_min":129,"x_max":643,"o":"m 400 644 l 411 469 l 390 -196 l 382 -196 l 361 469 l 372 644 l 178 632 l 129 632 l 129 679 l 178 679 l 372 667 l 361 815 l 361 989 l 411 989 l 411 815 l 400 667 l 594 679 l 643 679 l 643 632 l 594 632 l 400 644 z "},"‡":{"ha":772,"x_min":129,"x_max":643,"o":"m 643 114 l 594 114 l 400 126 l 411 -22 l 411 -196 l 361 -196 l 361 -22 l 372 126 l 178 114 l 129 114 l 129 161 l 178 161 l 372 149 l 361 324 l 361 469 l 372 644 l 178 632 l 129 632 l 129 679 l 178 679 l 372 667 l 361 815 l 361 989 l 411 989 l 411 815 l 400 667 l 594 679 l 643 679 l 643 632 l 594 632 l 400 644 l 411 469 l 411 324 l 400 149 l 594 161 l 643 161 l 643 114 z "},"•":{"ha":572,"x_min":164,"x_max":408,"o":"m 373 402 q 355 384 373 402 q 286 367 338 367 q 199 402 235 367 q 164 488 164 438 q 199 573 164 538 q 286 608 235 608 q 373 573 338 608 q 408 488 408 538 q 373 402 408 438 z "},"…":{"ha":1133,"x_min":158,"x_max":971,"o":"m 199 -17 q 170 -5 182 -17 q 158 24 158 7 q 170 54 158 42 q 199 67 182 67 q 228 54 217 67 q 239 24 239 42 q 228 -5 239 7 q 199 -17 217 -17 m 565 -17 q 537 -5 549 -17 q 525 24 525 7 q 537 54 525 42 q 565 67 549 67 q 594 54 583 67 q 606 24 606 42 q 594 -5 606 7 q 565 -17 583 -17 m 931 -17 q 902 -5 914 -17 q 890 24 890 7 q 902 54 890 42 q 931 67 914 67 q 960 54 949 67 q 971 24 971 42 q 960 -5 971 7 q 931 -17 949 -17 z "},"‰":{"ha":1760,"x_min":94,"x_max":1679,"o":"m 465 567 q 439 531 465 567 q 306 494 413 494 q 147 567 199 494 q 94 742 94 640 q 106 826 94 785 q 140 905 117 867 q 206 966 164 943 q 306 989 249 989 q 405 966 363 989 q 471 905 447 943 q 506 826 494 867 q 517 742 517 785 q 465 567 517 640 m 313 -17 l 253 -17 l 917 989 l 976 989 l 313 -17 m 186 603 q 206 574 186 603 q 306 544 225 544 q 425 603 386 544 q 464 742 464 661 q 425 878 464 818 q 306 939 386 939 q 186 878 225 939 q 147 742 147 818 q 186 603 147 661 m 1083 56 q 1057 20 1083 56 q 924 -17 1031 -17 q 765 56 817 -17 q 713 231 713 129 q 724 315 713 274 q 758 394 735 356 q 824 455 782 432 q 924 478 867 478 q 1023 455 981 478 q 1089 394 1065 432 q 1124 315 1113 356 q 1135 231 1135 274 q 1083 56 1135 129 m 1627 56 q 1601 20 1627 56 q 1468 -17 1575 -17 q 1309 56 1361 -17 q 1257 231 1257 129 q 1268 315 1257 274 q 1303 394 1279 356 q 1369 455 1326 432 q 1468 478 1411 478 q 1567 455 1525 478 q 1633 394 1610 432 q 1668 315 1657 356 q 1679 231 1679 274 q 1627 56 1679 129 m 804 92 q 824 63 804 92 q 924 33 843 33 q 1043 92 1004 33 q 1082 231 1082 150 q 1043 367 1082 307 q 924 428 1004 428 q 804 367 843 428 q 765 231 765 307 q 804 92 765 150 m 1349 92 q 1368 63 1349 92 q 1468 33 1388 33 q 1588 92 1549 33 q 1626 231 1626 150 q 1588 367 1626 307 q 1468 428 1549 428 q 1349 367 1388 428 q 1310 231 1310 307 q 1349 92 1310 150 z "},"′":{"ha":265,"x_min":88,"x_max":178,"o":"m 88 590 l 115 1014 l 178 1014 l 138 590 l 88 590 z "},"″":{"ha":494,"x_min":88,"x_max":407,"o":"m 88 590 l 115 1014 l 178 1014 l 138 590 l 88 590 m 317 590 l 344 1014 l 407 1014 l 367 590 l 317 590 z "},"‹":{"ha":390,"x_min":71,"x_max":340,"o":"m 282 0 l 71 356 l 282 710 l 340 710 l 129 356 l 340 0 l 282 0 z "},"›":{"ha":390,"x_min":50,"x_max":319,"o":"m 50 0 l 261 356 l 50 710 l 108 710 l 319 356 l 108 0 l 50 0 z "},"⁄":{"ha":446,"x_min":-139,"x_max":585,"o":"m -139 -17 l 525 989 l 585 989 l -79 -17 l -139 -17 z "},"ⁿ":{"ha":632,"x_min":125,"x_max":514,"o":"m 464 393 l 464 719 q 431 893 464 843 q 326 943 397 943 q 218 888 260 943 q 176 725 176 833 l 176 393 l 125 393 l 125 975 l 176 975 l 176 875 q 239 958 197 928 q 332 989 281 989 q 468 926 422 989 q 514 721 514 864 l 514 393 l 464 393 z "},"₤":{"ha":813,"x_min":143,"x_max":746,"o":"m 143 0 l 143 56 q 285 349 281 175 l 143 349 l 143 394 l 282 394 q 250 519 276 449 l 143 519 l 143 565 l 232 565 q 193 731 193 664 q 267 914 193 839 q 479 989 342 989 q 724 914 628 989 l 703 868 q 479 940 619 940 q 305 878 364 940 q 246 732 246 817 q 288 565 246 669 l 551 565 l 551 519 l 306 519 q 335 394 329 453 l 551 394 l 551 349 l 338 349 q 190 46 333 167 l 746 46 l 746 0 l 143 0 z "},"€":{"ha":814,"x_min":81,"x_max":740,"o":"m 496 -17 q 358 13 418 -17 q 261 94 299 42 q 201 206 224 146 q 168 339 179 267 l 81 339 l 100 385 l 161 385 q 158 472 158 414 q 164 568 158 524 l 81 568 l 100 614 l 169 614 q 279 881 196 774 q 508 989 363 989 q 713 933 626 989 l 693 888 q 508 939 611 939 q 392 912 443 939 q 308 837 340 885 q 255 734 275 789 q 224 614 235 679 l 579 614 l 560 568 l 218 568 q 213 472 213 524 q 217 385 213 428 l 483 385 l 465 339 l 222 339 q 308 119 242 206 q 496 33 375 33 q 700 128 615 33 l 740 100 q 496 -17 649 -17 z "},"℅":{"ha":1324,"x_min":79,"x_max":1244,"o":"m 303 378 q 140 458 200 378 q 79 683 79 539 q 140 908 79 826 q 303 989 200 989 q 490 868 432 989 l 440 849 q 303 938 396 938 q 179 870 225 938 q 133 683 133 803 q 179 497 133 564 q 303 429 225 429 q 444 528 400 429 l 496 508 q 303 378 438 378 m 279 -17 l 943 989 l 1003 989 l 339 -17 l 279 -17 m 1000 -17 q 823 64 889 -17 q 757 289 757 144 q 823 513 757 432 q 1000 594 889 594 q 1178 513 1113 594 q 1244 289 1244 432 q 1179 64 1244 144 q 1000 -17 1114 -17 m 1000 35 q 1140 102 1089 35 q 1190 289 1190 169 q 1139 476 1190 408 q 1000 543 1088 543 q 863 475 914 543 q 811 289 811 407 q 863 102 811 169 q 1000 35 914 35 z "},"ℓ":{"ha":624,"x_min":122,"x_max":518,"o":"m 351 -17 q 231 126 231 -17 l 231 383 q 136 335 186 356 l 122 367 q 231 428 182 393 l 231 739 q 378 989 231 989 q 478 939 438 989 q 518 797 518 889 q 496 664 518 726 q 432 552 474 601 q 358 474 390 503 q 281 410 326 444 l 281 133 q 299 52 281 75 q 354 29 318 29 q 465 79 418 29 l 481 44 q 351 -17 419 -17 m 378 943 q 303 897 326 943 q 281 726 281 851 l 281 460 q 425 618 382 539 q 468 792 468 697 q 444 899 468 856 q 378 943 419 943 z "},"№":{"ha":1592,"x_min":153,"x_max":1460,"o":"m 1215 378 q 1038 458 1104 378 q 972 683 972 539 q 1038 908 972 826 q 1215 989 1104 989 q 1394 908 1328 989 q 1460 683 1460 826 q 1394 458 1460 539 q 1215 378 1329 378 m 793 0 l 744 0 l 246 807 l 203 878 l 203 807 l 203 0 l 153 0 l 153 972 l 201 972 l 700 165 l 743 94 l 743 165 l 743 972 l 793 972 l 793 0 m 1215 429 q 1355 497 1304 429 q 1406 683 1406 564 q 1354 870 1406 803 q 1215 938 1303 938 q 1078 869 1129 938 q 1026 683 1026 801 q 1078 497 1026 564 q 1215 429 1129 429 m 986 194 l 986 244 l 1446 244 l 1446 194 l 986 194 z "},"™":{"ha":1086,"x_min":53,"x_max":964,"o":"m 219 386 l 219 925 l 53 925 l 53 972 l 435 972 l 435 925 l 269 925 l 269 386 l 219 386 m 964 386 l 914 386 l 914 799 l 735 372 l 556 799 l 556 386 l 506 386 l 506 972 l 536 972 l 718 536 l 735 497 l 751 536 l 933 972 l 964 972 l 964 386 z "},"Ω":{"ha":1019,"x_min":115,"x_max":901,"o":"m 606 0 l 606 58 q 778 278 721 150 q 836 542 836 407 q 819 683 836 615 q 765 809 801 750 q 662 903 728 868 q 508 939 596 939 q 356 903 422 939 q 253 809 290 868 q 199 683 217 750 q 181 542 181 615 q 238 278 181 406 q 411 58 294 150 l 411 0 l 115 0 l 115 50 l 360 50 q 188 258 250 132 q 126 542 126 385 q 147 700 126 624 q 211 843 168 776 q 331 949 254 910 q 508 989 407 989 q 687 949 610 989 q 807 843 764 910 q 870 701 850 776 q 890 542 890 625 q 828 259 890 386 q 657 50 765 132 l 901 50 l 901 0 l 606 0 z "},"℮":{"ha":1125,"x_min":90,"x_max":1035,"o":"m 569 -17 q 229 122 368 -17 q 90 486 90 261 q 131 708 90 610 q 239 868 171 807 q 393 961 307 929 q 574 993 479 993 q 744 960 664 993 q 888 866 824 928 q 990 706 951 804 q 1035 486 1029 608 l 292 486 l 292 138 q 569 33 400 33 q 780 86 696 33 q 933 243 864 139 l 976 217 q 805 42 900 101 q 569 -17 710 -17 m 292 536 l 840 536 l 840 839 q 574 943 733 943 q 415 916 490 943 q 292 844 339 889 l 292 536 z "},"⅓":{"ha":992,"x_min":35,"x_max":926,"o":"m 35 -17 l 699 989 l 758 989 l 94 -17 l 35 -17 m 128 393 l 128 857 l 50 857 l 50 888 q 120 910 100 889 q 147 979 140 932 l 181 979 l 181 393 l 128 393 m 738 -17 q 542 113 600 -17 l 590 131 q 738 33 636 33 q 836 65 799 33 q 874 151 874 96 q 842 240 874 206 q 751 275 810 275 l 708 275 l 708 325 l 738 325 q 819 359 788 325 q 850 440 850 393 q 822 517 850 488 q 740 546 793 546 q 610 457 654 546 l 563 476 q 740 596 614 596 q 858 554 813 596 q 903 440 903 513 q 880 359 903 397 q 815 304 857 321 q 897 253 867 293 q 926 151 926 213 q 872 29 926 75 q 738 -17 817 -17 z "},"⅔":{"ha":1210,"x_min":65,"x_max":1144,"o":"m 65 393 q 114 544 67 488 q 250 657 161 601 q 340 731 313 696 q 368 821 368 765 q 337 903 368 867 q 246 939 306 939 q 111 835 142 939 l 65 853 q 128 950 81 911 q 246 989 176 989 q 372 944 324 989 q 421 821 421 899 q 386 703 421 749 q 274 611 351 657 q 125 449 147 538 l 418 449 l 418 393 l 65 393 m 253 -17 l 917 989 l 976 989 l 313 -17 l 253 -17 m 956 -17 q 760 113 818 -17 l 808 131 q 956 33 854 33 q 1054 65 1017 33 q 1092 151 1092 96 q 1060 240 1092 206 q 969 275 1028 275 l 926 275 l 926 325 l 956 325 q 1037 359 1006 325 q 1068 440 1068 393 q 1040 517 1068 488 q 958 546 1011 546 q 828 457 872 546 l 781 476 q 958 596 832 596 q 1076 554 1031 596 q 1121 440 1121 513 q 1098 359 1121 397 q 1033 304 1075 321 q 1115 253 1085 293 q 1144 151 1144 213 q 1090 29 1144 75 q 956 -17 1035 -17 z "},"⅛":{"ha":981,"x_min":35,"x_max":901,"o":"m 35 -17 l 699 989 l 758 989 l 94 -17 l 35 -17 m 128 393 l 128 857 l 50 857 l 50 888 q 120 910 100 889 q 147 979 140 932 l 181 979 l 181 393 l 128 393 m 851 33 q 825 8 851 33 q 721 -17 800 -17 q 591 33 642 -17 q 540 158 540 82 q 570 261 540 219 q 649 321 600 303 q 589 369 611 335 q 567 444 567 404 q 610 553 567 511 q 721 596 654 596 q 831 553 788 596 q 875 444 875 511 q 853 369 875 404 q 793 321 831 335 q 872 261 842 303 q 901 158 901 219 q 851 33 901 82 m 645 369 q 659 356 645 369 q 721 342 674 342 q 797 369 768 342 q 825 443 825 397 q 797 519 825 490 q 721 547 768 547 q 645 519 674 547 q 617 443 617 490 q 645 369 617 397 m 629 67 q 647 49 629 67 q 721 32 665 32 q 813 67 776 32 q 849 165 849 101 q 813 256 849 218 q 721 294 778 294 q 628 256 664 294 q 593 165 593 218 q 629 67 593 101 z "},"⅜":{"ha":1182,"x_min":54,"x_max":1101,"o":"m 250 376 q 54 506 113 376 l 103 524 q 250 426 149 426 q 349 458 311 426 q 386 544 386 489 q 354 633 386 599 q 264 668 322 668 l 221 668 l 221 718 l 250 718 q 331 752 300 718 q 363 833 363 786 q 334 910 363 881 q 253 939 306 939 q 122 850 167 939 l 75 869 q 253 989 126 989 q 370 947 325 989 q 415 833 415 906 q 392 752 415 790 q 328 697 369 714 q 409 646 379 686 q 439 544 439 606 q 384 422 439 468 q 250 376 329 376 m 233 -17 l 897 989 l 957 989 l 293 -17 l 233 -17 m 1051 33 q 1025 8 1051 33 q 921 -17 1000 -17 q 791 33 842 -17 q 740 158 740 82 q 770 261 740 219 q 849 321 800 303 q 789 369 811 335 q 767 444 767 404 q 810 553 767 511 q 921 596 854 596 q 1031 553 988 596 q 1075 444 1075 511 q 1053 369 1075 404 q 993 321 1031 335 q 1072 261 1042 303 q 1101 158 1101 219 q 1051 33 1101 82 m 845 369 q 859 356 845 369 q 921 342 874 342 q 997 369 968 342 q 1025 443 1025 397 q 997 519 1025 490 q 921 547 968 547 q 845 519 874 547 q 817 443 817 490 q 845 369 817 397 m 829 67 q 847 49 829 67 q 921 32 865 32 q 1013 67 976 32 q 1049 165 1049 101 q 1013 256 1049 218 q 921 294 978 294 q 828 256 864 294 q 793 165 793 218 q 829 67 793 101 z "},"⅝":{"ha":1158,"x_min":56,"x_max":1078,"o":"m 211 -17 l 875 989 l 935 989 l 271 -17 l 211 -17 m 222 376 q 56 440 119 376 l 88 481 q 222 425 151 425 q 333 466 293 425 q 372 572 372 507 q 339 674 372 635 q 244 714 306 714 q 107 654 164 714 l 69 665 l 117 972 l 383 972 l 383 919 l 154 919 l 124 718 q 247 763 178 763 q 376 710 328 763 q 425 572 425 658 q 369 432 425 488 q 222 376 313 376 m 1027 33 q 1002 8 1027 33 q 897 -17 976 -17 q 767 33 818 -17 q 717 158 717 82 q 747 261 717 219 q 825 321 776 303 q 765 369 788 335 q 743 444 743 404 q 787 553 743 511 q 897 596 831 596 q 1008 553 964 596 q 1051 444 1051 511 q 1029 369 1051 404 q 969 321 1007 335 q 1048 261 1018 303 q 1078 158 1078 219 q 1027 33 1078 82 m 822 369 q 836 356 822 369 q 897 342 850 342 q 973 369 944 342 q 1001 443 1001 397 q 973 519 1001 490 q 897 547 944 547 q 822 519 850 547 q 793 443 793 490 q 822 369 793 397 m 806 67 q 824 49 806 67 q 897 32 842 32 q 989 67 953 32 q 1025 165 1025 101 q 990 256 1025 218 q 897 294 954 294 q 805 256 840 294 q 769 165 769 218 q 806 67 769 101 z "},"⅞":{"ha":1032,"x_min":38,"x_max":953,"o":"m 83 -17 l 747 989 l 807 989 l 143 -17 l 83 -17 m 149 393 q 336 922 154 689 l 38 922 l 38 972 l 385 972 l 385 910 q 203 393 208 707 l 149 393 m 902 33 q 877 8 902 33 q 772 -17 851 -17 q 642 33 693 -17 q 592 158 592 82 q 622 261 592 219 q 700 321 651 303 q 640 369 663 335 q 618 444 618 404 q 662 553 618 511 q 772 596 706 596 q 883 553 839 596 q 926 444 926 511 q 904 369 926 404 q 844 321 882 335 q 923 261 893 303 q 953 158 953 219 q 902 33 953 82 m 697 369 q 711 356 697 369 q 772 342 725 342 q 848 369 819 342 q 876 443 876 397 q 848 519 876 490 q 772 547 819 547 q 697 519 725 547 q 668 443 668 490 q 697 369 668 397 m 681 67 q 699 49 681 67 q 772 32 717 32 q 864 67 828 32 q 900 165 900 101 q 865 256 900 218 q 772 294 829 294 q 680 256 715 294 q 644 165 644 218 q 681 67 644 101 z "},"←":{"ha":1139,"x_min":76,"x_max":1049,"o":"m 339 313 q 313 325 331 313 l 96 474 q 76 500 76 486 q 96 526 76 514 l 313 675 q 339 688 331 688 q 356 672 356 688 q 347 643 356 665 l 306 522 l 1049 533 l 1049 465 l 306 478 l 347 357 q 356 328 356 335 q 339 313 356 313 z "},"↑":{"ha":528,"x_min":76,"x_max":451,"o":"m 231 0 l 242 743 l 121 701 q 92 693 99 693 q 76 710 76 693 q 89 736 76 717 l 238 953 q 264 972 250 972 q 290 953 278 972 l 439 736 q 451 710 451 717 q 436 693 451 693 q 407 701 429 693 l 286 743 l 299 0 l 231 0 z "},"→":{"ha":1139,"x_min":90,"x_max":1063,"o":"m 800 313 q 783 328 783 313 q 792 357 783 335 l 833 478 l 90 465 l 90 533 l 833 522 l 792 643 q 783 672 783 665 q 800 688 783 688 q 826 675 808 688 l 1043 526 q 1063 500 1063 514 q 1043 474 1063 486 l 826 325 q 800 313 808 313 z "},"↓":{"ha":536,"x_min":79,"x_max":457,"o":"m 288 13 q 268 0 279 0 q 249 13 257 0 l 86 250 q 79 267 79 260 q 96 281 79 281 q 108 278 100 281 l 244 231 l 236 974 l 300 974 l 292 231 l 428 278 q 440 281 436 281 q 457 267 457 281 q 450 250 457 260 l 288 13 z "},"↔":{"ha":1125,"x_min":76,"x_max":1049,"o":"m 786 313 q 769 328 769 313 q 778 357 769 335 l 818 474 l 307 474 l 347 357 q 356 328 356 335 q 339 313 356 313 q 313 325 331 313 l 96 474 q 76 500 76 486 q 96 526 76 514 l 313 675 q 339 688 331 688 q 356 672 356 688 q 347 643 356 665 l 307 526 l 818 526 l 778 643 q 769 672 769 665 q 786 688 769 688 q 813 675 794 688 l 1029 526 q 1049 500 1049 514 q 1029 474 1049 486 l 813 325 q 786 313 794 313 z "},"↕":{"ha":536,"x_min":81,"x_max":456,"o":"m 294 -217 q 268 -236 282 -236 q 242 -217 254 -236 l 93 0 q 81 26 81 19 q 96 43 81 43 q 125 35 103 43 l 242 -6 l 242 833 l 125 793 q 96 785 103 785 q 81 801 81 785 q 93 828 81 808 l 242 1044 q 268 1064 254 1064 q 294 1044 282 1064 l 443 828 q 456 801 456 808 q 440 785 456 785 q 411 793 433 785 l 294 833 l 294 -6 l 411 35 q 440 43 433 43 q 456 26 456 43 q 443 0 456 19 l 294 -217 z "},"↖":{"ha":863,"x_min":97,"x_max":814,"o":"m 767 118 l 250 653 l 194 538 q 168 506 181 506 q 147 539 153 506 l 100 790 q 97 813 97 804 q 121 836 97 836 q 151 832 129 836 l 394 786 q 428 765 428 779 q 396 739 428 756 l 281 683 l 814 165 l 767 118 z "},"↗":{"ha":863,"x_min":49,"x_max":765,"o":"m 96 118 l 49 165 l 582 683 l 467 739 q 435 765 435 756 q 468 786 435 779 l 711 832 q 742 836 735 836 q 765 813 765 836 q 763 790 765 804 l 715 539 q 694 506 710 506 q 668 538 682 506 l 613 653 l 96 118 z "},"↘":{"ha":863,"x_min":49,"x_max":765,"o":"m 742 118 q 711 122 733 118 l 468 168 q 435 189 435 175 q 467 215 435 200 l 582 271 l 49 789 l 96 836 l 613 301 l 668 417 q 694 449 682 449 q 715 415 710 449 l 763 164 q 765 142 765 150 q 742 118 765 118 z "},"↙":{"ha":863,"x_min":97,"x_max":814,"o":"m 121 118 q 97 142 97 118 q 100 164 97 150 l 147 415 q 168 449 153 449 q 194 417 181 449 l 250 301 l 767 836 l 814 789 l 281 271 l 396 215 q 428 189 428 200 q 394 168 428 175 l 151 122 q 121 118 128 118 z "},"↳":{"ha":917,"x_min":147,"x_max":840,"o":"m 821 324 q 840 297 840 311 q 821 271 840 283 l 604 122 q 578 110 586 110 q 561 125 561 110 q 569 154 561 132 l 610 271 l 147 271 l 147 972 l 207 972 l 207 324 l 610 324 l 569 440 q 561 469 561 463 q 578 485 561 485 q 604 472 586 485 l 821 324 z "},"↴":{"ha":917,"x_min":147,"x_max":840,"o":"m 825 458 q 840 442 840 458 q 828 415 840 433 l 679 199 q 653 179 667 179 q 626 199 639 179 l 478 415 q 465 442 465 433 q 481 458 465 458 q 510 450 488 458 l 624 411 l 624 919 l 147 919 l 147 972 l 682 972 l 682 411 l 796 450 q 825 458 818 458 z "},"↵":{"ha":917,"x_min":76,"x_max":769,"o":"m 710 972 l 769 972 l 769 271 l 307 271 l 347 154 q 356 125 356 132 q 339 110 356 110 q 313 122 331 110 l 96 271 q 76 297 76 283 q 96 324 76 311 l 313 472 q 339 485 331 485 q 356 469 356 485 q 347 440 356 463 l 307 324 l 710 324 l 710 972 z "},"↶":{"ha":1054,"x_min":76,"x_max":907,"o":"m 328 889 q 375 939 328 889 q 571 989 422 989 q 813 889 719 989 q 907 621 907 789 l 907 0 l 849 0 l 849 621 q 771 852 849 767 q 571 938 693 938 q 370 853 447 938 q 293 621 293 768 l 293 571 l 407 610 q 436 618 429 618 q 451 601 451 618 q 439 575 451 594 l 290 358 q 264 339 278 339 q 238 358 250 339 l 89 575 q 76 601 76 594 q 92 618 76 618 q 121 610 99 618 l 235 571 l 235 621 q 328 889 235 789 z "},"↷":{"ha":1054,"x_min":147,"x_max":978,"o":"m 963 618 q 978 601 978 618 q 965 575 978 594 l 817 358 q 790 339 804 339 q 764 358 776 339 l 615 575 q 603 601 603 594 q 618 618 603 618 q 647 610 625 618 l 761 571 l 761 621 q 684 853 761 768 q 483 938 607 938 q 283 852 361 938 q 206 621 206 767 l 206 0 l 147 0 l 147 621 q 241 889 147 789 q 483 989 335 989 q 726 889 632 989 q 819 621 819 789 l 819 571 l 933 610 q 963 618 956 618 z "},"↸":{"ha":863,"x_min":97,"x_max":814,"o":"m 97 919 l 97 972 l 814 972 l 814 919 l 97 919 m 767 46 l 250 581 l 194 465 q 168 433 181 433 q 147 467 153 433 l 100 718 q 97 740 97 732 q 121 764 97 764 q 151 760 129 764 l 394 714 q 428 693 428 707 q 396 667 428 683 l 281 611 l 814 93 l 767 46 z "},"↹":{"ha":1071,"x_min":147,"x_max":924,"o":"m 561 556 q 535 568 553 556 l 318 717 q 299 743 299 729 q 318 769 299 757 l 535 918 q 561 931 553 931 q 578 915 578 931 q 569 886 578 908 l 528 765 l 924 776 l 924 708 l 528 721 l 569 600 q 578 571 578 578 q 561 556 578 556 m 147 569 l 147 917 l 211 917 l 211 569 l 147 569 m 510 -237 q 493 -222 493 -237 q 501 -193 493 -215 l 543 -72 l 147 -85 l 147 -17 l 543 -28 l 501 93 q 493 122 493 115 q 510 138 493 138 q 536 125 517 138 l 753 -24 q 772 -50 772 -36 q 753 -76 772 -64 l 536 -225 q 510 -237 517 -237 m 860 -224 l 860 124 l 924 124 l 924 -224 l 860 -224 z "},"↺":{"ha":1175,"x_min":139,"x_max":1051,"o":"m 1051 874 q 1019 847 1051 864 l 913 796 q 1036 486 1036 665 q 904 169 1036 300 q 588 38 772 38 q 271 169 403 38 q 139 486 139 300 q 271 803 139 674 l 313 761 q 197 486 197 646 q 313 210 197 325 q 588 96 428 96 q 863 210 747 96 q 978 486 978 325 q 869 754 978 639 l 818 646 q 792 614 804 614 q 771 647 776 614 l 724 899 q 721 921 721 913 q 744 944 721 944 q 775 940 753 944 l 1018 894 q 1051 874 1051 888 z "},"⇚":{"ha":1139,"x_min":76,"x_max":1049,"o":"m 1049 569 l 321 569 l 304 521 l 1049 521 l 1049 479 l 304 479 l 321 431 l 1049 431 l 1049 389 l 336 389 l 347 357 q 356 328 356 335 q 339 313 356 313 q 313 325 331 313 l 96 474 q 76 500 76 486 q 96 526 76 514 l 313 675 q 339 688 331 688 q 356 672 356 688 q 347 643 356 665 l 336 611 l 1049 611 l 1049 569 z "},"⇛":{"ha":1139,"x_min":90,"x_max":1063,"o":"m 1043 526 q 1063 500 1063 514 q 1043 474 1063 486 l 826 325 q 800 313 808 313 q 783 328 783 313 q 792 357 783 335 l 803 389 l 90 389 l 90 431 l 818 431 l 835 479 l 90 479 l 90 521 l 835 521 l 818 569 l 90 569 l 90 611 l 803 611 l 792 643 q 783 672 783 665 q 800 688 783 688 q 826 675 808 688 l 1043 526 z "},"⇜":{"ha":1139,"x_min":76,"x_max":1049,"o":"m 896 526 l 1049 526 l 1049 474 l 854 474 l 825 564 l 756 349 l 697 349 l 628 564 l 558 349 l 500 349 l 460 474 l 307 474 l 347 357 q 356 328 356 335 q 339 313 356 313 q 313 325 331 313 l 96 474 q 76 500 76 486 q 96 526 76 514 l 313 675 q 339 688 331 688 q 356 672 356 688 q 347 643 356 665 l 307 526 l 501 526 l 529 439 l 599 654 l 657 654 l 726 439 l 796 654 l 854 654 l 896 526 z "},"⇝":{"ha":1139,"x_min":90,"x_max":1063,"o":"m 1043 526 q 1063 500 1063 514 q 1043 474 1063 486 l 826 325 q 800 313 808 313 q 783 328 783 313 q 792 357 783 335 l 832 474 l 679 474 l 639 349 l 581 349 l 511 564 l 442 349 l 383 349 l 314 564 l 285 474 l 90 474 l 90 526 l 243 526 l 285 654 l 343 654 l 413 439 l 482 654 l 540 654 l 610 439 l 638 526 l 832 526 l 792 643 q 783 672 783 665 q 800 688 783 688 q 826 675 808 688 l 1043 526 z "},"⇞":{"ha":528,"x_min":76,"x_max":451,"o":"m 439 736 q 451 710 451 717 q 436 693 451 693 q 407 701 429 693 l 293 742 l 293 467 l 436 467 l 436 414 l 293 414 l 293 247 l 436 247 l 436 194 l 293 194 l 293 0 l 235 0 l 235 194 l 92 194 l 92 247 l 235 247 l 235 414 l 92 414 l 92 467 l 235 467 l 235 742 l 121 701 q 92 693 99 693 q 76 710 76 693 q 89 736 76 717 l 238 953 q 264 972 250 972 q 290 953 278 972 l 439 736 z "},"⇟":{"ha":528,"x_min":76,"x_max":451,"o":"m 436 279 q 451 263 451 279 q 439 236 451 256 l 290 19 q 264 0 278 0 q 238 19 250 0 l 89 236 q 76 263 76 254 q 92 279 76 279 q 121 271 99 279 l 235 231 l 235 506 l 92 506 l 92 558 l 235 558 l 235 725 l 92 725 l 92 778 l 235 778 l 235 972 l 293 972 l 293 778 l 436 778 l 436 725 l 293 725 l 293 558 l 436 558 l 436 506 l 293 506 l 293 231 l 407 271 q 436 279 429 279 z "},"⇠":{"ha":1139,"x_min":76,"x_max":1049,"o":"m 347 643 l 307 526 l 471 526 l 471 474 l 307 474 l 347 357 q 356 328 356 335 q 339 313 356 313 q 313 325 331 313 l 96 474 q 76 500 76 486 q 96 526 76 514 l 313 675 q 339 688 331 688 q 356 672 356 688 q 347 643 356 665 m 589 474 l 589 526 l 760 526 l 760 474 l 589 474 m 878 526 l 1049 526 l 1049 474 l 878 474 l 878 526 z "},"⇡":{"ha":528,"x_min":76,"x_max":451,"o":"m 439 736 q 451 710 451 717 q 436 693 451 693 q 407 701 429 693 l 293 742 l 293 581 l 235 581 l 235 742 l 121 701 q 92 693 99 693 q 76 710 76 693 q 89 736 76 717 l 238 953 q 264 972 250 972 q 290 953 278 972 l 439 736 m 235 290 l 235 465 l 293 465 l 293 290 l 235 290 m 235 0 l 235 175 l 293 175 l 293 0 l 235 0 z "},"⇢":{"ha":1139,"x_min":90,"x_max":1063,"o":"m 1043 526 q 1063 500 1063 514 q 1043 474 1063 486 l 826 325 q 800 313 808 313 q 783 328 783 313 q 792 357 783 335 l 832 474 l 668 474 l 668 526 l 832 526 l 792 643 q 783 672 783 665 q 800 688 783 688 q 826 675 808 688 l 1043 526 m 90 474 l 90 526 l 261 526 l 261 474 l 90 474 m 379 474 l 379 526 l 550 526 l 550 474 l 379 474 z "},"⇣":{"ha":528,"x_min":76,"x_max":451,"o":"m 293 972 l 293 797 l 235 797 l 235 972 l 293 972 m 293 682 l 293 507 l 235 507 l 235 682 l 293 682 m 436 279 q 451 263 451 279 q 439 236 451 256 l 290 19 q 264 0 278 0 q 238 19 250 0 l 89 236 q 76 263 76 254 q 92 279 76 279 q 121 271 99 279 l 235 231 l 235 392 l 293 392 l 293 231 l 407 271 q 436 279 429 279 z "},"⇤":{"ha":1014,"x_min":147,"x_max":924,"o":"m 147 144 l 147 854 l 197 854 l 197 144 l 147 144 m 561 313 q 535 325 553 313 l 318 474 q 299 500 299 486 q 318 526 299 514 l 535 675 q 561 688 553 688 q 578 672 578 688 q 569 643 578 665 l 528 522 l 924 533 l 924 465 l 528 478 l 569 357 q 578 328 578 335 q 561 313 578 313 z "},"⇥":{"ha":1014,"x_min":90,"x_max":867,"o":"m 817 144 l 817 854 l 867 854 l 867 144 l 817 144 m 453 313 q 436 328 436 313 q 444 357 436 335 l 486 478 l 90 465 l 90 533 l 486 522 l 444 643 q 436 672 436 665 q 453 688 436 688 q 479 675 461 688 l 696 526 q 715 500 715 514 q 696 474 715 486 l 479 325 q 453 313 461 313 z "},"∂":{"ha":808,"x_min":74,"x_max":700,"o":"m 342 -17 q 149 59 224 -17 q 74 257 74 135 q 165 506 74 407 q 388 604 257 604 q 567 548 499 604 q 646 393 635 492 q 650 492 650 447 q 318 944 650 899 l 329 989 q 700 492 700 935 q 680 297 700 386 q 618 135 660 207 q 506 24 576 64 q 342 -17 436 -17 m 342 33 q 538 113 463 33 q 613 325 613 193 q 551 492 613 432 q 388 551 490 551 q 202 469 276 551 q 128 257 128 386 q 188 95 128 157 q 342 33 249 33 z "},"∆":{"ha":914,"x_min":104,"x_max":810,"o":"m 104 0 l 440 972 l 474 972 l 810 0 l 104 0 m 171 50 l 743 50 l 508 725 l 457 876 q 406 726 431 797 l 171 50 z "},"∏":{"ha":967,"x_min":153,"x_max":814,"o":"m 764 -194 l 764 922 l 203 922 l 203 -194 l 153 -194 l 153 972 l 814 972 l 814 -194 l 764 -194 z "},"∑":{"ha":869,"x_min":97,"x_max":785,"o":"m 97 -197 l 97 -157 l 508 400 l 117 929 l 117 969 l 757 969 l 757 919 l 190 919 l 572 403 l 169 -147 l 785 -147 l 785 -197 l 97 -197 z "},"−":{"ha":911,"x_min":129,"x_max":782,"o":"m 129 450 l 129 500 l 782 500 l 782 450 l 129 450 z "},"∕":{"ha":446,"x_min":-139,"x_max":585,"o":"m -139 -17 l 525 989 l 585 989 l -79 -17 l -139 -17 z "},"∙":{"ha":281,"x_min":100,"x_max":181,"o":"m 140 444 q 112 456 124 444 q 100 485 100 468 q 112 515 100 503 q 140 528 124 528 q 169 515 158 528 q 181 485 181 503 q 169 456 181 468 q 140 444 158 444 z "},"√":{"ha":769,"x_min":94,"x_max":689,"o":"m 689 972 l 394 0 l 331 0 l 94 454 l 147 454 l 360 49 l 636 972 l 689 972 z "},"∞":{"ha":1386,"x_min":81,"x_max":1306,"o":"m 1017 199 q 694 460 815 199 q 554 269 632 339 q 371 199 476 199 q 163 278 246 199 q 81 496 81 357 q 163 715 81 635 q 371 796 246 796 q 693 532 558 796 q 828 728 753 660 q 1014 796 903 796 q 1223 715 1140 796 q 1306 496 1306 635 q 1224 278 1306 357 q 1017 199 1142 199 m 371 244 q 675 496 550 244 q 371 750 546 750 q 201 681 269 750 q 133 496 133 611 q 201 313 133 381 q 371 244 268 244 m 1017 244 q 1185 313 1118 244 q 1253 496 1253 381 q 1185 681 1253 613 q 1014 750 1118 750 q 710 496 835 750 q 1017 244 835 244 z "},"∫":{"ha":511,"x_min":60,"x_max":451,"o":"m 144 -194 q 60 -172 101 -194 l 60 -128 q 144 -149 107 -149 q 211 -122 192 -149 q 231 -37 231 -96 l 231 838 q 367 989 231 989 q 451 967 410 989 l 451 922 q 367 943 404 943 q 300 917 319 943 q 281 832 281 890 l 281 -43 q 144 -194 281 -194 z "},"≈":{"ha":911,"x_min":132,"x_max":779,"o":"m 615 508 q 503 541 560 508 q 392 606 446 574 q 293 639 339 639 q 215 605 243 639 q 183 508 186 571 l 132 508 q 174 636 132 583 q 296 689 215 689 q 408 656 351 689 q 519 591 465 624 q 618 558 572 558 q 697 593 668 558 q 728 689 725 628 l 779 689 q 738 561 779 614 q 615 508 696 508 m 615 264 q 503 297 560 264 q 392 362 446 329 q 293 394 339 394 q 215 360 243 394 q 183 264 186 326 l 132 264 q 174 392 132 339 q 296 444 215 444 q 408 412 351 444 q 519 347 465 379 q 618 314 572 314 q 697 349 668 314 q 728 444 725 383 l 779 444 q 738 317 779 369 q 615 264 696 264 z "},"≠":{"ha":911,"x_min":129,"x_max":782,"o":"m 410 318 l 333 171 l 274 171 l 350 318 l 129 318 l 129 368 l 375 368 l 486 582 l 129 582 l 129 632 l 511 632 l 576 758 l 636 758 l 571 632 l 782 632 l 782 582 l 546 582 l 435 368 l 782 368 l 782 318 l 410 318 z "},"≤":{"ha":911,"x_min":129,"x_max":782,"o":"m 782 217 l 129 500 l 129 553 l 782 836 l 782 779 l 194 526 l 782 274 l 782 217 m 129 0 l 129 50 l 782 50 l 782 0 l 129 0 z "},"≥":{"ha":911,"x_min":129,"x_max":782,"o":"m 129 217 l 129 274 l 717 526 l 129 779 l 129 836 l 782 553 l 782 500 l 129 217 m 129 0 l 129 50 l 782 50 l 782 0 l 129 0 z "},"◊":{"ha":856,"x_min":124,"x_max":735,"o":"m 404 -17 l 124 486 l 404 989 l 454 989 l 735 486 l 454 -17 l 404 -17 m 429 944 l 175 486 l 429 28 l 683 486 l 429 944 z "},"◌":{"ha":931,"x_min":94,"x_max":836,"o":"m 435 794 q 430 800 435 794 q 424 825 424 806 q 435 857 424 844 q 465 869 447 869 q 495 857 483 869 q 507 825 507 844 q 495 794 507 806 q 465 783 483 783 q 435 794 447 783 m 297 800 q 309 832 297 819 q 340 844 321 844 q 370 832 358 844 q 382 800 382 819 q 370 770 382 782 q 340 758 358 758 q 310 770 322 758 q 297 800 297 782 m 559 770 q 553 776 559 770 q 547 800 547 782 q 560 831 547 818 q 589 843 572 843 q 621 831 608 843 q 633 800 633 819 q 621 770 633 782 q 589 758 608 758 q 559 770 571 758 m 192 731 q 203 760 192 749 q 235 772 215 772 q 265 761 253 772 q 276 731 276 750 q 265 699 276 711 q 235 688 254 688 q 203 699 215 688 q 192 731 192 711 m 665 699 q 660 705 665 699 q 654 731 654 711 q 666 761 654 750 q 696 772 678 772 q 727 760 715 772 q 739 731 739 749 q 727 699 739 711 q 696 688 715 688 q 665 699 676 688 m 737 594 q 731 600 737 594 q 725 624 725 606 q 737 655 725 642 q 767 668 749 668 q 797 655 785 668 q 810 624 810 642 q 797 594 810 606 q 767 582 785 582 q 737 594 749 582 m 133 593 q 127 599 133 593 q 121 624 121 606 q 133 654 121 642 q 164 667 144 667 q 195 654 183 667 q 207 624 207 642 q 194 593 207 606 q 164 581 181 581 q 133 593 146 581 m 94 499 q 107 530 94 518 q 139 542 119 542 q 169 530 158 542 q 181 499 181 518 q 169 469 181 481 q 139 457 158 457 q 107 469 119 457 q 94 499 94 481 m 750 499 q 761 530 750 518 q 792 542 772 542 q 823 530 810 542 q 836 499 836 518 q 823 469 836 481 q 792 457 810 457 q 761 469 772 457 q 750 499 750 481 m 133 343 q 127 349 133 343 q 121 374 121 356 q 133 404 121 392 q 164 417 144 417 q 194 404 182 417 q 206 374 206 392 q 194 343 206 356 q 164 331 182 331 q 133 343 146 331 m 724 375 q 736 405 724 393 q 767 417 749 417 q 797 405 785 417 q 810 375 810 393 q 798 344 810 356 q 767 332 786 332 q 735 344 747 332 q 724 375 724 356 m 203 238 q 198 244 203 238 q 192 268 192 250 q 204 299 192 286 q 235 311 217 311 q 265 299 253 311 q 276 268 276 288 q 265 238 276 250 q 235 226 253 226 q 203 238 215 226 m 654 268 q 666 299 654 288 q 696 311 678 311 q 726 299 714 311 q 739 268 739 286 q 727 238 739 250 q 696 226 715 226 q 666 238 678 226 q 654 268 654 250 m 297 199 q 310 228 297 217 q 342 240 322 240 q 372 228 360 240 q 383 199 383 217 q 371 167 383 181 q 342 154 358 154 q 310 167 322 154 q 297 199 297 179 m 560 167 q 555 173 560 167 q 549 197 549 179 q 560 228 549 215 q 590 240 572 240 q 621 228 608 240 q 633 197 633 217 q 621 166 633 178 q 590 154 608 154 q 560 167 572 154 m 435 141 q 430 147 435 141 q 424 172 424 153 q 435 203 424 192 q 465 215 447 215 q 495 203 483 215 q 507 172 507 192 q 495 141 507 153 q 465 129 483 129 q 435 141 447 129 z "},"":{"ha":0,"x_min":-300,"x_max":-208,"o":"m -208 1014 l -208 989 q -286 697 -208 794 l -300 708 q -258 1014 -258 799 l -208 1014 z "},"ﬁ":{"ha":774,"x_min":53,"x_max":642,"o":"m 217 664 l 217 0 l 167 0 l 167 664 l 53 664 l 53 710 l 167 710 l 167 838 q 303 989 167 989 q 388 967 346 989 l 388 922 q 303 943 340 943 q 236 917 256 943 q 217 832 217 890 l 217 710 l 388 710 l 388 664 l 217 664 m 601 879 q 573 891 585 879 q 561 919 561 903 q 573 950 561 938 q 601 963 585 963 q 631 950 619 963 q 642 919 642 938 q 631 891 642 903 q 601 879 619 879 m 576 0 l 576 710 l 626 710 l 626 0 l 576 0 z "},"ﬂ":{"ha":765,"x_min":53,"x_max":622,"o":"m 572 0 l 572 978 l 622 1003 l 622 0 l 572 0 m 217 664 l 217 0 l 167 0 l 167 664 l 53 664 l 53 710 l 167 710 l 167 838 q 303 989 167 989 q 388 967 346 989 l 388 922 q 303 943 340 943 q 236 917 256 943 q 217 832 217 890 l 217 710 l 388 710 l 388 664 l 217 664 z "}}}
